<?xml version="1.0" standalone="yes"?>
<svg xmlns="http://www.w3.org/2000/svg" width="2160" height="2160">
<path style="fill:#010101; stroke:none;" d="M0 0L0 2160L2160 2160L2160 0L0 0z"/>
<path style="fill:#fbffeb; stroke:none;" d="M677 909L677 1248L686 1248L686 909L677 909M795 959C795.287 968.842 792.32 980.205 791.129 990.089C789.826 1000.9 791.636 1011.52 792.871 1022.04C794.289 1034.12 794.096 1047.3 800.26 1058.25C808.846 1073.5 818.972 1082 837 1082C844.305 1082 854.684 1080.95 856 1072C868.976 1067.72 868 1039.52 868 1029C854.78 1029 854.025 1045.96 849 1055C847.769 1057.22 846.393 1067.7 841 1065C836.322 1062.66 838.155 1058.88 836 1055C834.522 1052.34 831.534 1049.07 830 1046C828.552 1043.1 831.568 1037.82 830 1035C824.371 1024.87 818.653 993.225 826 980C826.997 978.204 825.078 974.843 826 973C828.214 968.573 831.963 950.991 836 952C836.796 946.035 842.617 947.471 847 948L847 953C831.716 955.227 834.319 971.502 835 982C853.456 986.113 863.998 977.57 864 958L874 958L874 951C861.76 951 865.837 944.318 859 939C851.463 933.138 845.865 931 834 931C831.472 931 825.149 929.806 823 931C814.806 935.552 805.752 938.446 801 947C798.92 950.744 799.004 960.001 795 959M1411 1070C1412.78 1082.09 1436.7 1084.29 1445.96 1081.49C1449.78 1080.33 1452.07 1077.01 1456 1076L1464.95 1057.96L1468 1029L1459 1029L1447 1063L1443 1065L1442 1065C1424.67 1041.6 1420.2 1005.67 1425.93 976.925C1427.64 968.326 1430.04 950.604 1440 948L1440 944L1441 944L1447 948L1447 953L1439 955C1436.18 966.007 1426.64 986.988 1448.91 983.866C1452.27 983.395 1454.72 980.841 1458 980L1464 958C1471.22 957.975 1473.92 956.527 1474 949C1470.97 948.998 1467.2 949.497 1464.57 947.686C1458.68 943.642 1460.76 937.266 1452 937C1450.85 930.229 1444.63 931 1439 931C1427.44 930.999 1415.98 930.23 1407.09 939.129C1388.23 958.024 1388.49 996.914 1392.74 1021.09C1394.21 1029.44 1392.05 1036.48 1396 1044.4C1399.8 1052.01 1400.41 1068.44 1411 1070z"/>
<path style="fill:#ffff68; stroke:none;" d="M859 939L860 940L859 939z"/>
<path style="fill:#7fff7f; stroke:none;" d="M835 950L836 951L835 950M834 951L835 952L834 951z"/>
<path style="fill:#ffff68; stroke:none;" d="M1653 957L1654 958L1653 957z"/>
<path style="fill:#fbffeb; stroke:none;" d="M1645 985C1642.24 985 1635.34 983.697 1633 985C1631.89 985.614 1631.16 989.48 1629 989C1627.78 988.73 1626.79 985.44 1626 985C1624.72 984.287 1622.32 985.658 1621 985C1617.75 983.375 1607.16 980.851 1602 983C1596.61 985.244 1587.18 993.546 1585 993C1584.22 1001.54 1576.47 1011.38 1583 1020C1578.3 1025.83 1572 1037.52 1571 1045L1567 1047L1566 1047L1564 997L1545.18 993.278L1537 997C1537 1010.78 1530.91 1028.82 1537 1041C1538.45 1043.9 1535.43 1049.18 1537 1052C1538.96 1055.52 1547.52 1061.92 1547 1064C1554.33 1063.53 1563.68 1065.91 1570.67 1063.49C1579.25 1060.53 1589.43 1042.43 1590 1034L1591 1034C1593.49 1038.77 1601.82 1044.76 1607 1046L1607 1051L1603 1051C1602.39 1060.35 1596.61 1065.85 1601.82 1075.49C1609.73 1090.09 1630.51 1078.74 1636.25 1068.71C1643.09 1056.78 1634.55 1047.02 1638 1036L1639 1036C1642.92 1046.22 1642.5 1059.04 1652.04 1066.2C1660.63 1072.65 1680.37 1067.22 1682 1056L1686 1056L1690 1044L1691 1044L1699 1062C1712.25 1062.86 1722.57 1069.83 1735.52 1061.29C1742.24 1056.85 1744.11 1047.17 1751 1044L1757 1056C1769.38 1056.14 1791.27 1060.76 1794 1042L1795 1042C1796.9 1056.29 1813.8 1071.1 1827 1058.33C1841.63 1044.18 1851.38 1018.67 1856 999C1842.33 999 1836.01 1017.98 1831 1027C1829.02 1030.56 1828.53 1037.88 1825 1037L1823 1045C1809.25 1026.02 1832.81 985.026 1799 985L1797 995L1796 995C1794.92 989.604 1779.94 985.145 1773 989C1765.94 992.923 1760.68 998.318 1755 1004C1752.38 1006.62 1751.15 1013.54 1749 1013L1739 1037C1734.21 1038.53 1729.73 1044.03 1729 1049C1714.58 1051.55 1717.38 1034.78 1728 1032C1728.5 1024.28 1733.95 1018.62 1734 1011C1734.03 1006.26 1735.35 998.94 1732.72 994.76C1726.98 985.629 1709.64 987.502 1702.67 994.018C1694.59 1001.57 1694.24 1008.43 1690.17 1017.73C1684.74 1030.15 1677.34 1041.12 1671 1053L1670 1053L1672 990C1675.08 989.989 1691.53 987.217 1686.63 980.853C1684.23 977.743 1677.42 979 1674 979C1674 970.17 1667.5 947.685 1653.75 958.51C1648.06 962.99 1645.21 977.965 1645 985z"/>
<path style="fill:#ffff68; stroke:none;" d="M796 959L797 960L796 959M795 960L796 961L795 960z"/>
<path style="fill:#fbffeb; stroke:none;" d="M1543 969L1543 986C1550.43 987.656 1558.33 989.631 1565.43 985.161C1573.5 980.082 1564.98 969.12 1558.71 967.46C1552.93 965.929 1548.43 968.476 1543 969M1146 986C1146.76 982.571 1148.82 979.009 1147.16 975.517C1143.65 968.142 1128.21 965.808 1122.06 970.804C1110.64 980.076 1125.91 988.051 1134 987.999C1138.25 987.972 1141.9 986.843 1146 986z"/>
<path style="fill:#ffff68; stroke:none;" d="M1544 969L1545 970L1544 969M1543 970L1544 971L1543 970z"/>
<path style="fill:#fbffeb; stroke:none;" d="M877 993C876.487 1000.5 870.668 1007.38 869.259 1015.17C865.446 1036.26 872.905 1060 897 1060C903.134 1060 908.097 1059.32 914 1058L914 1054C924.339 1051.46 927.731 1033.12 928 1024L937 1024L943 1036C947.538 1037.17 957.722 1043.74 959.444 1048.42C960.448 1051.16 955.034 1055.75 954.019 1058.58C951.967 1064.3 952.893 1071.24 955.46 1076.67C960.383 1087.1 984.37 1083.09 986 1072C991.677 1070.13 991.982 1063.22 992 1058L993 1058C998.052 1064.77 1010.94 1066.15 1015.16 1057.48C1016.97 1053.76 1015.56 1049.06 1016.26 1045.09C1018.76 1030.83 1019.93 1005.04 1035 998C1035 1002.02 1036.19 1007.8 1033 1007L1033 1060C1041 1062.03 1043.54 1063.89 1052 1062C1053.53 1055.14 1060.13 1042.32 1056 1036L1058.28 1017.09L1064 1004L1065 1004C1065 1016.89 1060.29 1041.43 1068.22 1052.24C1077.11 1064.34 1103.93 1056.23 1106 1042C1110.04 1040.74 1111.44 1038.09 1112 1034L1113 1034C1113.27 1043.11 1116.58 1058.67 1125.51 1063.14C1133.01 1066.9 1146.34 1063.71 1154 1062L1160 1050L1161 1050C1161 1062.81 1162.69 1070.01 1177 1070C1180.17 1070 1184.29 1070.61 1186.74 1068.12C1191.37 1063.39 1191.09 1053.23 1192.26 1047.09C1193.87 1038.63 1203.16 1025.48 1211 1022C1211 1037.36 1205.2 1065.97 1227 1066C1229.74 1066 1232.94 1066.38 1235.48 1065.16C1244.51 1060.82 1247.08 1047.65 1255 1044C1255.14 1048.71 1256.06 1051.27 1261 1052C1262.04 1059.09 1268.17 1058 1274 1058C1283.87 1058 1296.31 1053.59 1298 1042L1299 1042L1303 1051L1303 1056L1309 1062L1334 1058C1335.04 1054.03 1338.18 1052.48 1339.95 1048.96C1347.33 1034.27 1358.9 1015.55 1360 999C1337.76 1000.56 1339.66 1035.77 1324 1045C1324 1035.11 1322.39 1025.61 1322.07 1015.99C1321.81 1008 1324.53 1000.51 1321.49 992.343C1319.87 987.998 1308.66 982.863 1304.6 986.028C1302.22 987.886 1301.38 994.129 1301 997L1300 997L1298 991L1273 991L1259 1006L1251 1017L1235 1047L1234 1047C1234.06 1029.52 1239.99 1014.89 1236 997L1232 997L1232 993C1215.28 993 1204.57 999.461 1197 1015L1196 1015C1194.77 1005.67 1180.95 987.962 1170.06 996.804C1166.01 1000.09 1166.57 1007.31 1164.85 1012C1161.8 1020.3 1157.45 1028.41 1153.18 1036.2C1151.03 1040.12 1147.67 1042.41 1147 1047C1136.16 1042.01 1143.36 1018.15 1143.82 1008.95C1144.01 1005.01 1142.05 1001.08 1142 997L1136 993C1130.59 993.349 1125.11 992.155 1120.25 995.255C1115.35 998.385 1111.75 1013.36 1111 1019L1107 1019C1105.22 1026.84 1097.42 1037.7 1090 1041L1090 1040C1093.53 1036.91 1092 1029.41 1092 1025C1092 1012.99 1095.06 994.37 1081.48 987.843C1071.54 983.064 1065.27 990.871 1057 993L1055 999L1054 999L1052 991C1041.26 988.565 1027.68 981.45 1021 995L1020 995L1016 993C1015.45 985.835 1009.57 983.074 1003 983L996.161 1009.68L985 1029L980 1023C970.409 1020.49 964.408 1004.48 968 996C972.632 1001.32 973 1005.07 973 1012C991.636 1012 985.262 999.714 982 987C972.706 984.892 945.742 976.84 943 993L939 993L935 1011L929 1015C926.963 1008.11 928.553 1001.14 925.544 994.311C923.467 989.595 919.521 988.264 915.31 986.18C911.826 984.455 909.123 981.751 905.039 981.314C894.148 980.148 886.23 990.624 877 993M1536 1004L1536 993C1533.08 993 1533.29 989.506 1530 989C1512.95 986.377 1503.79 996.159 1499 1011C1494.66 1005.19 1494.27 998.862 1488.83 993.264C1485.27 989.605 1469.96 985.863 1467.51 992.344C1465.1 998.737 1467.63 1006.8 1468.74 1013.09C1471.34 1027.86 1467.96 1051.86 1476.8 1064.66C1480.05 1069.36 1494.69 1069.82 1499.43 1067.14C1505.44 1063.74 1502.93 1054.3 1503.17 1049.12C1503.72 1037.09 1506.93 1007.58 1520.09 1001.79C1522.8 1000.59 1532.13 1004 1536 1004z"/>
<path style="fill:#7fff7f; stroke:none;" d="M1711.67 989.333L1712.33 989.667L1711.67 989.333z"/>
<path style="fill:#ffff68; stroke:none;" d="M1134 993L1135 994L1134 993M1534 993L1535 994L1534 993M1586 993L1587 994L1586 993M1135 994L1136 995L1135 994M1535 994L1536 995L1535 994M1585 994L1586 995L1585 994z"/>
<path style="fill:#fbffeb; stroke:none;" d="M321 995C322.979 1003.42 326.691 1019.67 335 1024L335 1025C327.093 1028.85 322.277 1032.99 313 1033L313 1038C321.1 1039.81 335.28 1041.06 340 1032L341 1032C338.236 1039.45 332.916 1045.2 325 1047L325 1052C332.417 1051.99 344.25 1049.2 348 1042L349 1042L341 1062C350.081 1061.9 356.234 1051.73 360 1044L361 1044L357 1066C364.795 1065.45 367.098 1056.82 368 1050L371 1050L371 1068L376 1068L378 1046L379 1046L385 1068L390 1068L388 1046L389 1046C392.841 1053.88 398.686 1061.9 408 1062L398 1040L399 1040C403.507 1049.14 414.6 1051.99 424 1052L424 1047C417.286 1045.48 410.811 1040.32 408 1034C418.876 1038.03 424.738 1038.73 436 1038L436 1033C431.519 1032.95 418.658 1031.37 417.317 1025.83C416.496 1022.43 420.737 1018.71 422.177 1015.99C425.372 1009.95 427.924 1001.8 428 995C418.498 995.107 412.908 1004.16 404.986 1008.75C393.356 1015.49 383.248 1017.08 370 1017C350.328 1016.87 338.492 995.013 321 995M467 995C467.132 1006.88 475.017 1016.26 479 1027L459 1033L459 1038C467.634 1039.92 479.872 1040.21 486 1032L487 1032L471 1052C479.721 1051.9 489.931 1048.25 494 1040L495 1040L487 1062C494.847 1061.45 502.901 1051.55 504 1044L505 1044L503 1068L508 1068L514 1046L515 1046L517 1068L522 1068L524 1050L525 1050L529 1064L536 1064L532 1046C540.892 1050.08 540.737 1061.87 552 1062L544 1042L545 1042C548.75 1049.2 560.583 1051.99 568 1052C567.553 1045.65 557.64 1037.78 552 1035L552 1034C562.339 1037.84 569.049 1040.44 580 1038L580 1033L560 1027L574 995C556.689 995.013 546.506 1016.87 527 1017C515.572 1017.07 504.266 1016.58 494.015 1010.75C484.128 1005.13 478.975 995.009 467 995z"/>
<path style="fill:#010101; stroke:none;" d="M1616 1015L1620 1015L1626 1027L1633 1027L1633 1021L1637 1021L1643 996L1632 996C1632 1000.33 1629.15 1019.64 1620.89 1009.68C1618.05 1006.26 1620.65 1000.08 1617.15 997.373C1610.96 992.593 1613.25 1006.05 1613.87 1008C1614.62 1010.34 1615.47 1012.6 1616 1015z"/>
<path style="fill:#7fff7f; stroke:none;" d="M1638 996L1639 997L1638 996M967 997L968 998L967 997M1493 997L1494 998L1493 997z"/>
<path style="fill:#01ff01; stroke:none;" d="M1639 997L1640 998L1639 997z"/>
<path style="fill:#ffff68; stroke:none;" d="M1031 999L1032 1000L1031 999z"/>
<path style="fill:#01ff01; stroke:none;" d="M1536 999L1536 1002L1537 1002L1536 999z"/>
<path style="fill:#010101; stroke:none;" d="M1720 1000C1716.01 1007.11 1716 1012.98 1716 1021L1717 1021C1720.51 1014.75 1722.94 1007 1720 1000M1290 1002L1286 1004C1282.24 1018.65 1271.26 1029.44 1280 1045L1281 1045L1285 1043C1288.67 1028.76 1307.26 1016.33 1290 1002M1774 1043C1786.32 1042.14 1796.23 1020.2 1792.49 1009.32C1787.91 996.015 1778.94 1008.1 1776.41 1015.27C1775.11 1018.95 1773.82 1022.69 1772.71 1026.43C1770.98 1032.27 1772.75 1037.37 1774 1043z"/>
<path style="fill:#fbffeb; stroke:none;" d="M1259 1003L1260 1004L1259 1003z"/>
<path style="fill:#7fff7f; stroke:none;" d="M1260 1003L1259 1005L1261 1005L1260 1003z"/>
<path style="fill:#ffff68; stroke:none;" d="M1612 1005L1614 1007L1612 1005z"/>
<path style="fill:#fbffeb; stroke:none;" d="M1613 1005L1614 1006L1613 1005z"/>
<path style="fill:#010101; stroke:none;" d="M912 1006L912 1007L914 1013L915 1013L915 1006L912 1006z"/>
<path style="fill:#7fff7f; stroke:none;" d="M1034 1007L1035 1008L1034 1007z"/>
<path style="fill:#ffff68; stroke:none;" d="M1347 1007L1348 1008L1347 1007z"/>
<path style="fill:#7fff7f; stroke:none;" d="M1033 1008L1034 1009L1033 1008z"/>
<path style="fill:#ffff68; stroke:none;" d="M931 1011L932 1012L931 1011M1023 1011L1024 1012L1023 1011M932 1012L933 1013L932 1012M1691 1012L1692 1013L1691 1012M1750 1013L1751 1014L1750 1013M1749 1014L1750 1015L1749 1014M1252 1017L1253 1018L1252 1017M1638 1017L1637 1019L1639 1019L1638 1017z"/>
<path style="fill:#010101; stroke:none;" d="M900 1018C897.788 1027.93 899.804 1035.15 902 1045C912.144 1042.2 910.131 1031.43 915 1025L915 1024C907.948 1023.99 905.291 1022.37 900 1018z"/>
<path style="fill:#ffff68; stroke:none;" d="M1251 1018L1252 1019L1251 1018z"/>
<path style="fill:#7fff7f; stroke:none;" d="M1581 1019L1582 1020L1581 1019z"/>
<path style="fill:#ffff68; stroke:none;" d="M1687 1021L1688 1022L1687 1021M1688 1022L1689 1023L1688 1022M1716 1022L1717 1023L1716 1022M1832 1025L1831 1027L1833 1027L1832 1025M1293 1027L1294 1028L1293 1027M1628 1027L1629 1028L1628 1027M1685 1027L1686 1028L1685 1027M1787 1029L1788 1030L1787 1029M1788 1030L1789 1031L1788 1030z"/>
<path style="fill:#7fff7f; stroke:none;" d="M1099 1031L1100 1032L1099 1031z"/>
<path style="fill:#ffff68; stroke:none;" d="M1323 1033L1324 1034L1323 1033z"/>
<path style="fill:#010101; stroke:none;" d="M992 1034L992 1037L993 1037L992 1034z"/>
<path style="fill:#ffff68; stroke:none;" d="M1826 1037L1827 1038L1826 1037z"/>
<path style="fill:#010101; stroke:none;" d="M990 1038L990 1041L991 1041L990 1038z"/>
<path style="fill:#ffff68; stroke:none;" d="M1344 1038L1345 1039L1344 1038M1825 1038L1826 1039L1825 1038M1345 1039L1346 1040L1345 1039z"/>
<path style="fill:#010101; stroke:none;" d="M350 1040L351 1041L350 1040z"/>
<path style="fill:#ffff68; stroke:none;" d="M1327 1041L1328 1042L1327 1041M1689 1047L1690 1048L1689 1047z"/>
<path style="fill:#7fff7f; stroke:none;" d="M1751 1047L1752 1048L1751 1047z"/>
<path style="fill:#ffff68; stroke:none;" d="M1725 1049L1726 1050L1725 1049M917 1053L918 1054L917 1053z"/>
<path style="fill:#010101; stroke:none;" d="M1616 1056C1613.77 1061.82 1610.8 1064.85 1614 1071L1615 1071L1619 1069L1616 1056z"/>
<path style="fill:#ffff68; stroke:none;" d="M1087 1057L1088 1058L1087 1057z"/>
<path style="fill:#010101; stroke:none;" d="M968 1058L966 1071L971 1071L971 1058L968 1058z"/>
<path style="fill:#ffff68; stroke:none;" d="M1309 1060L1310 1061L1309 1060M1310 1061L1311 1062L1310 1061z"/>
<path style="fill:#7fff7f; stroke:none;" d="M1613 1061L1614 1062L1613 1061z"/>
<path style="fill:#ffff68; stroke:none;" d="M1547 1062L1548 1063L1547 1062M1548 1063L1549 1064L1548 1063M1636 1066L1637 1067L1636 1066M971 1067L972 1068L971 1067M1637 1067L1638 1068L1637 1067M1610 1080L1611 1081L1610 1080M1609 1081L1610 1082L1609 1081M1612.67 1081.33L1613.33 1081.67L1612.67 1081.33z"/>
<path style="fill:#fbffeb; stroke:none;" d="M1129 1107L1129 1194L1140 1194L1140 1166L1143 1166L1150.27 1185.29L1152.89 1192.68L1164 1194L1151.17 1155.88L1162 1131L1151 1131L1141 1149L1140 1149L1140 1107L1129 1107M1513 1107L1513 1194L1522 1194C1522 1180.44 1519.35 1163.66 1523.6 1150.73C1524.84 1146.96 1527.47 1138.11 1532.91 1138.79C1538.34 1139.47 1538.97 1147.97 1539 1152C1539.09 1166 1539 1180 1539 1194L1550 1194C1550 1176.94 1554.31 1152.94 1547.62 1137.04C1543.98 1128.4 1529.13 1125.15 1523 1133L1522 1133L1522 1107L1513 1107M447 1123C434.857 1097.14 406.189 1112.48 392 1126.67C386.076 1132.59 375.398 1139.73 379.839 1149.49C383 1156.43 389.388 1161.72 394.667 1167C421.346 1193.68 457.671 1197.48 487.745 1173.78C495.913 1167.34 515.365 1154.23 513.862 1142.09C513.151 1136.34 505.542 1131.21 501.667 1127.33C488.064 1113.73 457.875 1095.88 447 1123M1011 1111L1011 1194L1020 1194L1020 1134L1021 1134C1021.02 1154.13 1032.6 1174.62 1037 1194L1048 1194L1062 1142L1063 1142L1063 1179L1064.03 1192.4L1074 1194L1074 1111L1061 1111C1061 1115.07 1058.47 1116.36 1057 1119C1055.72 1121.31 1058.18 1125.63 1057 1128C1054.98 1132.04 1053.14 1137.15 1051 1141C1048.7 1145.15 1052.18 1156.29 1047 1155L1043 1177L1042 1177L1033.27 1142.01L1028 1121L1024 1111L1011 1111M1372 1194L1364.77 1178.91L1370 1155L1359 1155L1357 1165L1356 1165C1354.28 1160.7 1352.6 1154.52 1348 1153C1353.2 1141.2 1358.36 1133.05 1355.74 1119.17C1354.19 1110.95 1341.52 1107.22 1334.88 1112.31C1323.63 1120.93 1335.74 1139 1334.23 1148.91C1333.32 1154.85 1326.52 1160.19 1325.26 1167.17C1322.4 1182.97 1328.31 1197.33 1345.96 1195.95C1350.22 1195.61 1352.75 1191.48 1356.83 1191.27C1361.27 1191.05 1366.86 1194 1372 1194M1397 1111L1397 1194L1430 1194L1430 1185L1408 1185L1408 1111L1397 1111z"/>
<path style="fill:#010101; stroke:none;" d="M1342 1118L1342 1141L1345 1141L1345 1118L1342 1118z"/>
<path style="fill:#ffff68; stroke:none;" d="M1026 1121L1027 1122L1026 1121M1027 1122L1028 1123L1027 1122z"/>
<path style="fill:#fbffeb; stroke:none;" d="M1087 1131C1087.01 1146.29 1094.6 1138.04 1105 1138L1109 1155L1087 1159C1086.35 1165.23 1080.57 1169.79 1081.15 1176.91C1082.06 1188.1 1098.26 1207.44 1108 1192L1109 1192L1118 1194L1118 1149C1118 1141.42 1117.35 1133.62 1109.48 1129.84C1102.53 1126.5 1094 1130.55 1087 1131M1165 1147L1165 1178C1167.31 1178 1172.24 1192.22 1177 1195C1183.7 1198.92 1193.43 1194.71 1200 1194L1200 1183C1195.57 1183.29 1191.33 1187.02 1187.05 1186.59C1177.67 1185.65 1176 1173.06 1176 1166L1204 1166C1204 1151.13 1202.8 1129 1186 1129C1183.93 1129 1178.76 1128.02 1177 1129C1172.84 1131.31 1165.16 1147.04 1165 1147M1269 1131L1269 1135L1268 1135L1268 1131L1259 1131L1259 1220L1270 1220L1270 1194C1276.2 1195.03 1285.73 1198.18 1292 1194C1294.53 1192.31 1294.93 1187.14 1296 1185C1299.79 1177.42 1300 1169.77 1300 1159C1300 1156.24 1301.3 1149.34 1300 1147C1298.06 1143.5 1291.69 1132.26 1292 1131L1269 1131M1441 1129L1435.5 1133.33L1438 1142L1442 1142C1451.29 1130.12 1456.77 1147.09 1457 1155C1453.44 1155 1449.52 1154.56 1446.01 1155.28C1429.58 1158.65 1431.87 1173.4 1431 1186C1433.42 1186 1433.88 1190.21 1436 1192.33C1440.21 1196.54 1453.6 1199.44 1456 1192L1457 1192C1459.16 1194.48 1465.61 1195.32 1467.4 1191.68C1469.38 1187.66 1468 1180.4 1468 1176C1468 1162.99 1471.88 1140.46 1460.45 1130.88C1455.78 1126.96 1446.67 1129.39 1441 1129z"/>
<path style="fill:#ffff68; stroke:none;" d="M1442 1129L1443 1130L1442 1129z"/>
<path style="fill:#fbffeb; stroke:none;" d="M1483 1129L1479 1131L1479 1135C1470.75 1137.57 1473.46 1147.26 1473 1154L1477.33 1159.67L1495 1172C1497.28 1190.88 1484.53 1183.13 1473 1183C1473 1204.5 1505.99 1198.85 1505.99 1178C1505.99 1172 1504.77 1163.99 1498 1163C1496.9 1159.68 1495.41 1159.26 1492 1159L1492 1155C1484.88 1153.14 1480.89 1142.38 1489.32 1138.86C1494.12 1136.86 1497.12 1143.39 1501.7 1141.38C1506.49 1139.27 1505.89 1132.5 1501.81 1130.28C1496.49 1127.38 1488.83 1129.4 1483 1129z"/>
<path style="fill:#ffff68; stroke:none;" d="M1484 1129L1485 1130L1484 1129M1527 1129L1528 1130L1527 1129M1541 1129L1542 1130L1541 1129z"/>
<path style="fill:#fbffeb; stroke:none;" d="M1563 1190L1567 1190L1567 1194C1579.38 1196.76 1593.99 1199.73 1594 1183C1588.78 1183.06 1584.85 1187.1 1580.03 1186.81C1570.72 1186.26 1568 1173.06 1568 1166L1596 1166C1596 1155.26 1596.91 1144.2 1590.73 1134.76C1584.35 1125.04 1566.76 1127.48 1561.84 1137.52C1553.07 1155.44 1559.03 1172.2 1563 1190M1603 1160C1615.54 1163.23 1621.33 1173.47 1621 1185L1601 1183L1601 1194C1610.79 1196.01 1618.27 1196.17 1628 1194C1629.56 1187.94 1633.74 1182.82 1633.74 1176.09C1633.74 1165.93 1621.08 1155.18 1612 1153L1610 1142C1613.13 1141.54 1615.89 1138.63 1618.92 1138.74C1622.34 1138.86 1625.11 1142.52 1628.7 1141.43C1631.9 1140.46 1634.76 1134.91 1632.1 1132.25C1625.28 1125.43 1608.71 1127.93 1603.71 1135.48C1598.43 1143.46 1602.45 1151.57 1603 1160z"/>
<path style="fill:#ffff68; stroke:none;" d="M1441 1130L1442 1131L1441 1130M1483 1130L1484 1131L1483 1130M1540 1130L1541 1131L1540 1130z"/>
<path style="fill:#fbffeb; stroke:none;" d="M1211 1131L1213 1190L1217 1190C1218.28 1198.74 1233.53 1198 1238 1192L1239 1192L1248 1194L1248 1131L1239 1131C1239 1143.11 1242.15 1163.72 1237 1173C1235.04 1176.53 1236.76 1183.94 1233 1183C1233 1185.79 1228.91 1187.82 1226.33 1186C1224.06 1184.4 1222.81 1179.58 1222.17 1177C1218.78 1163.45 1222 1145.01 1222 1131L1211 1131z"/>
<path style="fill:#ffff68; stroke:none;" d="M1290 1131L1291 1132L1290 1131M1291 1132L1292 1133L1291 1132M1198 1135L1198 1137L1200 1137L1198 1135M1475 1135L1476 1136L1475 1135M1476 1136L1477 1137L1476 1136z"/>
<path style="fill:#010101; stroke:none;" d="M1176 1157L1193 1157L1191 1142L1187 1138C1176.73 1138.72 1176 1148.75 1176 1157M1276 1138L1272 1142C1269.01 1155.4 1269.01 1169.6 1272 1183L1276 1183L1276 1187C1295.14 1185.77 1295.14 1139.23 1276 1138M1574 1138L1568 1157L1585 1157C1585 1148.39 1584.92 1138.77 1574 1138z"/>
<path style="fill:#7fff7f; stroke:none;" d="M1439 1141L1440 1142L1439 1141z"/>
<path style="fill:#01ff01; stroke:none;" d="M1549 1141L1550 1142L1549 1141z"/>
<path style="fill:#7fff7f; stroke:none;" d="M1548 1142L1549 1143L1548 1142z"/>
<path style="fill:#ffff68; stroke:none;" d="M1166 1147L1167 1148L1166 1147M1165 1148L1166 1149L1165 1148z"/>
<path style="fill:#010101; stroke:none;" d="M432 1150L432 1151L444 1153L445 1153L457 1151L432 1150z"/>
<path style="fill:#ffff68; stroke:none;" d="M1473 1152L1474 1153L1473 1152M1474 1153L1475 1154L1474 1153M1615 1153L1616 1154L1615 1153M1614 1154L1615 1155L1614 1154M1048 1155L1049 1156L1048 1155M1047 1156L1048 1157L1047 1156z"/>
<path style="fill:#010101; stroke:none;" d="M1340 1158C1334.41 1167.96 1335.3 1172.26 1336 1183L1340 1187L1351 1183C1350.99 1174.81 1346.16 1163.73 1340 1158z"/>
<path style="fill:#ffff68; stroke:none;" d="M1088 1159L1089 1160L1088 1159M1087 1160L1088 1161L1087 1160z"/>
<path style="fill:#7fff7f; stroke:none;" d="M1479 1161L1480 1162L1479 1161z"/>
<path style="fill:#010101; stroke:none;" d="M1109 1164C1104.47 1164 1098.43 1163.81 1095.31 1167.88C1089.39 1175.61 1097.31 1195.83 1105.18 1180.99C1106.52 1178.45 1106.75 1175.89 1107.45 1173.17C1108.28 1169.96 1108.96 1167.35 1109 1164M1444 1166L1444 1187L1455 1183L1457 1164L1444 1166z"/>
<path style="fill:#ffff68; stroke:none;" d="M1347 1171L1348 1172L1347 1171M1505 1171L1506 1172L1505 1171M1504 1172L1505 1173L1504 1172M1165 1176L1166 1177L1165 1176M1166 1177L1167 1178L1166 1177M1177 1177L1178 1178L1177 1177M1633 1179L1634 1180L1633 1179z"/>
<path style="fill:#7fff7f; stroke:none;" d="M1632 1180L1632 1182L1634 1180L1632 1180z"/>
<path style="fill:#ffff68; stroke:none;" d="M1179 1181L1180 1182L1179 1181z"/>
<path style="fill:#fbffeb; stroke:none;" d="M1633 1181L1634 1182L1633 1181z"/>
<path style="fill:#ffff68; stroke:none;" d="M1234 1183L1235 1184L1234 1183M1233 1184L1234 1185L1233 1184M1431 1184L1432 1185L1431 1184M1432 1185L1433 1186L1432 1185M1358 1188L1359 1189L1358 1188M1293 1191L1294 1192L1293 1191M1355 1191L1356 1192L1355 1191M1063 1193L1064 1194L1063 1193M1467 1193L1468 1194L1467 1193z"/>
<path style="fill:#7fff7f; stroke:none;" d="M1605 1195L1606 1196L1605 1195z"/>
</svg>
