<svg xmlns="http://www.w3.org/2000/svg" xmlns:xlink="http://www.w3.org/1999/xlink" width="500" zoomAndPan="magnify" viewBox="0 0 375 374.999991" height="500" preserveAspectRatio="xMidYMid meet" version="1.0"><defs><g/><clipPath id="3d8b2872aa"><path d="M 75 76 L 290 76 L 290 291 L 75 291 Z M 75 76 " clip-rule="nonzero"/></clipPath><clipPath id="ffeb7f2540"><path d="M 195.652344 32.914062 L 333.011719 196.691406 L 169.238281 334.046875 L 31.878906 170.273438 Z M 195.652344 32.914062 " clip-rule="nonzero"/></clipPath><clipPath id="7502af6d6e"><path d="M 195.652344 32.914062 L 333.011719 196.691406 L 169.238281 334.046875 L 31.878906 170.273438 Z M 195.652344 32.914062 " clip-rule="nonzero"/></clipPath><clipPath id="ced7123d59"><path d="M 264.332031 114.800781 C 226.402344 69.578125 158.988281 63.664062 113.765625 101.59375 C 68.539062 139.523438 62.628906 206.9375 100.558594 252.160156 C 138.488281 297.386719 205.898438 303.300781 251.125 265.367188 C 296.347656 227.4375 302.261719 160.027344 264.332031 114.800781 " clip-rule="nonzero"/></clipPath><clipPath id="b69bd07cd0"><path d="M 58 180 L 172 180 L 172 309 L 58 309 Z M 58 180 " clip-rule="nonzero"/></clipPath><clipPath id="b54c66cfa4"><path d="M 51.90625 195.929688 L 78.453125 173.664062 L 178.835938 293.351562 L 152.289062 315.613281 Z M 51.90625 195.929688 " clip-rule="nonzero"/></clipPath><clipPath id="f21cc8d7ac"><path d="M 64.964844 184.980469 C 68.425781 182.074219 72.898438 180.664062 77.402344 181.0625 C 81.902344 181.457031 86.0625 183.621094 88.96875 187.085938 L 167.367188 280.5625 C 170.273438 284.027344 171.679688 288.5 171.285156 293 C 170.890625 297.503906 168.726562 301.664062 165.261719 304.566406 C 161.800781 307.472656 157.324219 308.882812 152.824219 308.484375 C 148.324219 308.089844 144.164062 305.925781 141.257812 302.460938 L 62.855469 208.984375 C 59.953125 205.519531 58.542969 201.046875 58.9375 196.546875 C 59.332031 192.042969 61.5 187.882812 64.964844 184.980469 " clip-rule="nonzero"/></clipPath><clipPath id="c29a69e0c8"><path d="M 107.226562 132.09375 L 238.726562 132.09375 L 238.726562 258.1875 L 107.226562 258.1875 Z M 107.226562 132.09375 " clip-rule="nonzero"/></clipPath><clipPath id="711cf21878"><path d="M 227.628906 127.554688 L 261.972656 127.554688 L 261.972656 188.996094 L 227.628906 188.996094 Z M 227.628906 127.554688 " clip-rule="nonzero"/></clipPath></defs><g clip-path="url(#3d8b2872aa)"><g clip-path="url(#ffeb7f2540)"><g clip-path="url(#7502af6d6e)"><g clip-path="url(#ced7123d59)"><path stroke-linecap="butt" transform="matrix(0.481378, 0.573952, -0.573952, 0.481378, 195.652009, 32.915813)" fill="none" stroke-linejoin="miter" d="M 142.670802 -0.0025984 C 63.878148 -0.00143543 -0.00191239 63.877808 -0.00074942 142.670462 C -0.00293742 221.467111 63.879657 285.343176 142.672311 285.342013 C 221.46896 285.344201 285.34567 221.468954 285.343862 142.668953 C 285.342699 63.876299 221.467452 -0.0004104 142.670802 -0.0025984 " stroke="#000000" stroke-width="2" stroke-opacity="1" stroke-miterlimit="4"/></g></g></g></g><g clip-path="url(#b69bd07cd0)"><g clip-path="url(#b54c66cfa4)"><g clip-path="url(#f21cc8d7ac)"><path fill="#fffbf9" d="M 51.90625 195.929688 L 77.988281 174.054688 L 178.371094 293.742188 L 152.289062 315.613281 Z M 51.90625 195.929688 " fill-opacity="1" fill-rule="nonzero"/></g></g></g><g fill="#000000" fill-opacity="1"><g transform="translate(76.519413, 181.713873)"><g><path d="M 0.015625 0.953125 L 7.515625 0.796875 L 7.546875 2.359375 L 1.625 4.59375 L 7.640625 6.609375 L 7.671875 8.171875 L 0.171875 8.328125 L 0.15625 7.1875 L 6.125 7.0625 L 0.109375 5.109375 L 0.09375 4.140625 L 5.96875 1.953125 L 0.046875 2.078125 Z M 0.015625 0.953125 "/></g></g></g><g fill="#000000" fill-opacity="1"><g transform="translate(77.093454, 195.031867)"><g><path d="M 0.046875 0.390625 L 7.859375 2.03125 L 8.03125 3.25 L 0.953125 6.96875 L 0.8125 5.84375 L 2.65625 4.890625 L 2.265625 1.953125 L 0.203125 1.5 Z M 3.28125 2.078125 L 3.609375 4.453125 L 6.84375 2.8125 Z M 3.28125 2.078125 "/></g></g></g><g fill="#000000" fill-opacity="1"><g transform="translate(78.870496, 206.335084)"><g><path d="M 1.640625 6.625 L 1.34375 5.4375 L 4.4375 2.34375 L 2.75 1.484375 L 0.5 2.046875 L 0.234375 0.921875 L 7.515625 -0.875 L 7.78125 0.25 L 4.125 1.15625 L 8.546875 3.34375 L 8.875 4.625 L 5.421875 2.9375 Z M 1.640625 6.625 "/></g></g></g><g fill="#000000" fill-opacity="1"><g transform="translate(81.770475, 217.142406)"><g><path d="M 0.328125 0.890625 L 7.390625 -1.640625 L 9.015625 2.921875 L 8.109375 3.25 L 6.84375 -0.265625 L 4.703125 0.5 L 5.828125 3.640625 L 4.9375 3.96875 L 3.8125 0.828125 L 1.609375 1.609375 L 2.890625 5.203125 L 1.984375 5.53125 Z M 0.328125 0.890625 "/></g></g></g><g fill="#000000" fill-opacity="1"><g transform="translate(85.476341, 226.965156)"><g><path d="M 5.234375 4.78125 C 4.710938 5.03125 4.222656 5.160156 3.765625 5.171875 C 3.304688 5.179688 2.890625 5.039062 2.515625 4.75 C 2.140625 4.46875 1.8125 4.035156 1.53125 3.453125 C 1.238281 2.835938 1.101562 2.296875 1.125 1.828125 C 1.144531 1.367188 1.304688 0.957031 1.609375 0.59375 C 1.921875 0.238281 2.347656 -0.0664062 2.890625 -0.328125 L 7.171875 -2.375 L 7.671875 -1.34375 L 3.265625 0.765625 C 2.722656 1.023438 2.382812 1.34375 2.25 1.71875 C 2.125 2.101562 2.175781 2.539062 2.40625 3.03125 C 2.550781 3.332031 2.734375 3.570312 2.953125 3.75 C 3.171875 3.9375 3.425781 4.03125 3.71875 4.03125 C 4.007812 4.039062 4.335938 3.960938 4.703125 3.796875 L 9.109375 1.6875 L 9.59375 2.703125 Z M 5.234375 4.78125 "/></g></g></g><g fill="#000000" fill-opacity="1"><g transform="translate(90.566392, 237.115432)"><g><path d="M 0.5 0.8125 L 6.90625 -3.09375 L 8.25 -0.875 C 8.53125 -0.414062 8.703125 0.0351562 8.765625 0.484375 C 8.828125 0.941406 8.769531 1.367188 8.59375 1.765625 C 8.414062 2.160156 8.109375 2.492188 7.671875 2.765625 C 7.242188 3.023438 6.820312 3.148438 6.40625 3.140625 C 5.988281 3.140625 5.59375 3.015625 5.21875 2.765625 C 4.851562 2.515625 4.535156 2.164062 4.265625 1.71875 L 3.421875 0.34375 L 1.078125 1.78125 Z M 4.203125 -0.125 L 5.03125 1.234375 C 5.28125 1.640625 5.597656 1.898438 5.984375 2.015625 C 6.378906 2.128906 6.773438 2.066406 7.171875 1.828125 C 7.554688 1.585938 7.773438 1.269531 7.828125 0.875 C 7.878906 0.476562 7.78125 0.0703125 7.53125 -0.34375 L 6.71875 -1.65625 Z M 4.203125 -0.125 "/></g></g></g><g fill="#000000" fill-opacity="1"><g transform="translate(96.289744, 246.039516)"><g/></g></g><g fill="#000000" fill-opacity="1"><g transform="translate(100.033826, 251.118648)"><g><path d="M 7.96875 -2.40625 C 8.21875 -2.113281 8.394531 -1.804688 8.5 -1.484375 C 8.613281 -1.160156 8.644531 -0.84375 8.59375 -0.53125 C 8.539062 -0.226562 8.382812 0.03125 8.125 0.25 C 8.03125 0.332031 7.898438 0.40625 7.734375 0.46875 C 7.578125 0.53125 7.390625 0.566406 7.171875 0.578125 C 6.953125 0.585938 6.703125 0.566406 6.421875 0.515625 C 6.140625 0.460938 5.816406 0.367188 5.453125 0.234375 L 5.09375 2.546875 C 5.21875 2.535156 5.375 2.5 5.5625 2.4375 C 5.757812 2.382812 5.976562 2.304688 6.21875 2.203125 C 6.46875 2.109375 6.703125 1.96875 6.921875 1.78125 L 7.65625 2.625 C 7.351562 2.8125 7.050781 2.945312 6.75 3.03125 C 6.445312 3.125 6.140625 3.195312 5.828125 3.25 C 5.523438 3.300781 5.234375 3.351562 4.953125 3.40625 L 4.640625 5.40625 L 3.796875 4.421875 L 3.953125 3.359375 C 3.472656 3.273438 3.050781 3.117188 2.6875 2.890625 C 2.320312 2.671875 2.015625 2.414062 1.765625 2.125 C 1.429688 1.738281 1.210938 1.363281 1.109375 1 C 1.015625 0.644531 1.023438 0.304688 1.140625 -0.015625 C 1.253906 -0.335938 1.457031 -0.625 1.75 -0.875 C 1.988281 -1.082031 2.25 -1.222656 2.53125 -1.296875 C 2.820312 -1.367188 3.140625 -1.375 3.484375 -1.3125 C 3.835938 -1.257812 4.222656 -1.15625 4.640625 -1 C 4.679688 -1.28125 4.722656 -1.53125 4.765625 -1.75 C 4.816406 -1.96875 4.890625 -2.171875 4.984375 -2.359375 C 5.078125 -2.546875 5.207031 -2.710938 5.375 -2.859375 C 5.613281 -3.054688 5.882812 -3.171875 6.1875 -3.203125 C 6.5 -3.242188 6.804688 -3.195312 7.109375 -3.0625 C 7.421875 -2.925781 7.707031 -2.707031 7.96875 -2.40625 Z M 7.453125 -1.90625 C 7.242188 -2.132812 7.019531 -2.253906 6.78125 -2.265625 C 6.539062 -2.273438 6.328125 -2.203125 6.140625 -2.046875 C 6.035156 -1.953125 5.945312 -1.828125 5.875 -1.671875 C 5.800781 -1.515625 5.742188 -1.359375 5.703125 -1.203125 C 5.660156 -1.046875 5.632812 -0.90625 5.625 -0.78125 L 5.578125 -0.515625 C 5.953125 -0.390625 6.253906 -0.3125 6.484375 -0.28125 C 6.722656 -0.25 6.914062 -0.25 7.0625 -0.28125 C 7.21875 -0.320312 7.347656 -0.390625 7.453125 -0.484375 C 7.617188 -0.617188 7.71875 -0.769531 7.75 -0.9375 C 7.78125 -1.113281 7.765625 -1.285156 7.703125 -1.453125 C 7.648438 -1.617188 7.566406 -1.769531 7.453125 -1.90625 Z M 4.515625 -0.15625 C 4.148438 -0.28125 3.789062 -0.34375 3.4375 -0.34375 C 3.09375 -0.34375 2.800781 -0.210938 2.5625 0.046875 C 2.40625 0.191406 2.300781 0.363281 2.25 0.5625 C 2.207031 0.769531 2.21875 0.976562 2.28125 1.1875 C 2.34375 1.394531 2.445312 1.578125 2.59375 1.734375 C 2.769531 1.941406 2.992188 2.113281 3.265625 2.25 C 3.535156 2.394531 3.816406 2.476562 4.109375 2.5 Z M 4.515625 -0.15625 "/></g></g></g><g fill="#000000" fill-opacity="1"><g transform="translate(107.74604, 259.684109)"><g/></g></g><g fill="#000000" fill-opacity="1"><g transform="translate(112.2784, 264.041808)"><g><path d="M 5.578125 -5.109375 L 6.421875 -4.375 L 2.203125 0.609375 L 4.859375 2.84375 L 4.234375 3.578125 L 0.734375 0.609375 Z M 5.578125 -5.109375 "/></g></g></g><g fill="#000000" fill-opacity="1"><g transform="translate(120.018381, 270.383156)"><g><path d="M 0.328125 0.21875 L 6.796875 -4.421875 L 7.8125 -3.71875 L 5.796875 3.984375 L 4.859375 3.34375 L 5.390625 1.328125 L 2.953125 -0.359375 L 1.25 0.859375 Z M 3.75 -1.015625 L 5.734375 0.34375 L 6.703125 -3.171875 Z M 3.75 -1.015625 "/></g></g></g><g fill="#000000" fill-opacity="1"><g transform="translate(129.563888, 276.687968)"><g><path d="M 3.078125 1.796875 C 2.765625 1.628906 2.476562 1.421875 2.21875 1.171875 C 1.96875 0.929688 1.765625 0.664062 1.609375 0.375 C 1.460938 0.0820312 1.367188 -0.21875 1.328125 -0.53125 C 1.296875 -0.84375 1.347656 -1.164062 1.484375 -1.5 L 2.5 -0.953125 C 2.425781 -0.679688 2.421875 -0.425781 2.484375 -0.1875 C 2.546875 0.0507812 2.664062 0.269531 2.84375 0.46875 C 3.019531 0.675781 3.238281 0.851562 3.5 1 C 3.789062 1.15625 4.078125 1.253906 4.359375 1.296875 C 4.640625 1.347656 4.890625 1.332031 5.109375 1.25 C 5.335938 1.175781 5.507812 1.035156 5.625 0.828125 C 5.726562 0.640625 5.765625 0.453125 5.734375 0.265625 C 5.710938 0.078125 5.640625 -0.101562 5.515625 -0.28125 C 5.398438 -0.457031 5.242188 -0.640625 5.046875 -0.828125 L 3.953125 -1.78125 C 3.503906 -2.15625 3.21875 -2.554688 3.09375 -2.984375 C 2.96875 -3.410156 3.023438 -3.863281 3.265625 -4.34375 C 3.484375 -4.738281 3.773438 -5.023438 4.140625 -5.203125 C 4.515625 -5.378906 4.925781 -5.445312 5.375 -5.40625 C 5.820312 -5.375 6.273438 -5.234375 6.734375 -4.984375 C 7.265625 -4.691406 7.664062 -4.359375 7.9375 -3.984375 C 8.21875 -3.609375 8.367188 -3.21875 8.390625 -2.8125 C 8.421875 -2.414062 8.34375 -2.046875 8.15625 -1.703125 L 7.15625 -2.234375 C 7.289062 -2.535156 7.332031 -2.804688 7.28125 -3.046875 C 7.226562 -3.296875 7.113281 -3.507812 6.9375 -3.6875 C 6.757812 -3.875 6.546875 -4.035156 6.296875 -4.171875 C 6.117188 -4.265625 5.929688 -4.332031 5.734375 -4.375 C 5.535156 -4.425781 5.347656 -4.441406 5.171875 -4.421875 C 5.003906 -4.410156 4.847656 -4.359375 4.703125 -4.265625 C 4.566406 -4.179688 4.453125 -4.054688 4.359375 -3.890625 C 4.234375 -3.660156 4.207031 -3.429688 4.28125 -3.203125 C 4.351562 -2.984375 4.570312 -2.71875 4.9375 -2.40625 L 6 -1.453125 C 6.3125 -1.191406 6.535156 -0.929688 6.671875 -0.671875 C 6.804688 -0.410156 6.878906 -0.160156 6.890625 0.078125 C 6.910156 0.328125 6.890625 0.554688 6.828125 0.765625 C 6.773438 0.984375 6.703125 1.175781 6.609375 1.34375 C 6.429688 1.6875 6.160156 1.941406 5.796875 2.109375 C 5.441406 2.273438 5.03125 2.335938 4.5625 2.296875 C 4.101562 2.253906 3.609375 2.085938 3.078125 1.796875 Z M 3.078125 1.796875 "/></g></g></g><g fill="#000000" fill-opacity="1"><g transform="translate(139.386959, 281.814125)"><g><path d="M 6.75 -0.890625 L 3.203125 -2.359375 L 1.90625 0.78125 L 0.875 0.359375 L 3.734375 -6.578125 L 4.765625 -6.15625 L 3.5625 -3.25 L 7.109375 -1.78125 L 8.3125 -4.6875 L 9.34375 -4.265625 L 6.484375 2.671875 L 5.453125 2.25 Z M 6.75 -0.890625 "/></g></g></g><g fill="#000000" fill-opacity="1"><g transform="translate(150.55826, 286.148496)"><g><path d="M 0.921875 0.265625 L 3.046875 -6.921875 L 7.6875 -5.546875 L 7.40625 -4.625 L 3.828125 -5.6875 L 3.1875 -3.515625 L 6.375 -2.578125 L 6.109375 -1.65625 L 2.921875 -2.59375 L 2.265625 -0.359375 L 5.921875 0.734375 L 5.640625 1.65625 Z M 0.921875 0.265625 "/></g></g></g><g fill="#000000" fill-opacity="1"><g transform="translate(160.677405, 288.930269)"><g><path d="M 3.484375 0.765625 C 3.140625 0.703125 2.804688 0.59375 2.484375 0.4375 C 2.171875 0.28125 1.894531 0.09375 1.65625 -0.125 C 1.414062 -0.351562 1.226562 -0.613281 1.09375 -0.90625 C 0.96875 -1.195312 0.914062 -1.523438 0.9375 -1.890625 L 2.078125 -1.671875 C 2.085938 -1.390625 2.160156 -1.144531 2.296875 -0.9375 C 2.429688 -0.726562 2.613281 -0.550781 2.84375 -0.40625 C 3.082031 -0.269531 3.347656 -0.175781 3.640625 -0.125 C 3.972656 -0.0625 4.28125 -0.0507812 4.5625 -0.09375 C 4.84375 -0.144531 5.070312 -0.238281 5.25 -0.375 C 5.4375 -0.507812 5.550781 -0.695312 5.59375 -0.9375 C 5.632812 -1.144531 5.613281 -1.332031 5.53125 -1.5 C 5.445312 -1.675781 5.320312 -1.832031 5.15625 -1.96875 C 5 -2.113281 4.796875 -2.234375 4.546875 -2.328125 L 3.203125 -2.90625 C 2.671875 -3.125 2.273438 -3.414062 2.015625 -3.78125 C 1.765625 -4.15625 1.6875 -4.609375 1.78125 -5.140625 C 1.863281 -5.578125 2.050781 -5.9375 2.34375 -6.21875 C 2.632812 -6.5 3 -6.691406 3.4375 -6.796875 C 3.882812 -6.898438 4.363281 -6.90625 4.875 -6.8125 C 5.476562 -6.695312 5.96875 -6.5 6.34375 -6.21875 C 6.71875 -5.945312 6.976562 -5.625 7.125 -5.25 C 7.269531 -4.882812 7.304688 -4.507812 7.234375 -4.125 L 6.125 -4.328125 C 6.144531 -4.660156 6.09375 -4.929688 5.96875 -5.140625 C 5.851562 -5.359375 5.6875 -5.523438 5.46875 -5.640625 C 5.25 -5.765625 5 -5.851562 4.71875 -5.90625 C 4.507812 -5.945312 4.304688 -5.957031 4.109375 -5.9375 C 3.910156 -5.925781 3.734375 -5.882812 3.578125 -5.8125 C 3.421875 -5.738281 3.285156 -5.640625 3.171875 -5.515625 C 3.054688 -5.390625 2.984375 -5.234375 2.953125 -5.046875 C 2.898438 -4.785156 2.941406 -4.5625 3.078125 -4.375 C 3.222656 -4.1875 3.515625 -3.992188 3.953125 -3.796875 L 5.265625 -3.21875 C 5.628906 -3.070312 5.914062 -2.894531 6.125 -2.6875 C 6.34375 -2.476562 6.5 -2.265625 6.59375 -2.046875 C 6.6875 -1.828125 6.738281 -1.601562 6.75 -1.375 C 6.757812 -1.15625 6.742188 -0.945312 6.703125 -0.75 C 6.628906 -0.363281 6.445312 -0.0390625 6.15625 0.21875 C 5.875 0.476562 5.503906 0.660156 5.046875 0.765625 C 4.597656 0.878906 4.078125 0.878906 3.484375 0.765625 Z M 3.484375 0.765625 "/></g></g></g><g clip-path="url(#c29a69e0c8)"><path fill="#03072b" d="M 181.765625 258.21875 C 176.109375 258.21875 170.195312 256.015625 163.710938 251.488281 C 158.167969 247.625 153.238281 242.792969 148.742188 238.152344 C 137.074219 226.113281 126.390625 202.058594 123.15625 192.5625 C 122.015625 193.179688 120.671875 193.226562 119.328125 192.679688 C 117.351562 191.875 115.460938 189.886719 113.707031 186.765625 C 111.589844 182.996094 109.726562 177.640625 108.175781 170.855469 C 105.710938 160.074219 108.667969 157.785156 110.050781 157.304688 C 111.300781 156.871094 112.828125 157.253906 114.351562 158.386719 C 115.855469 159.507812 117.226562 161.269531 118.210938 163.351562 C 118.800781 164.730469 119.582031 165.332031 120.015625 165.199219 C 120.613281 165.019531 121.066406 163.496094 120.382812 159.804688 C 120.078125 158.136719 120.113281 157.128906 120.496094 156.636719 C 120.664062 156.425781 120.886719 156.308594 121.167969 156.289062 C 121.855469 156.25 122.570312 156.964844 123.644531 158.046875 C 125.816406 160.226562 129.09375 163.523438 134.972656 163.460938 L 136.042969 163.445312 L 135.089844 163.941406 C 135.066406 163.953125 133.339844 164.855469 132.027344 166.066406 C 133.386719 165.082031 134.734375 164.519531 136.296875 164.632812 L 137.101562 164.6875 L 136.40625 165.105469 C 136.332031 165.152344 136.25 165.199219 136.167969 165.246094 C 135.167969 165.839844 133.972656 166.542969 133.480469 167.792969 C 134.652344 166.429688 136.292969 165.5625 137.765625 165.601562 L 138.78125 165.625 L 137.871094 166.082031 C 136.945312 166.546875 136.261719 167.566406 135.992188 168.519531 C 137.1875 166.859375 139.058594 165.933594 140.511719 165.859375 L 142.140625 165.777344 L 140.613281 166.355469 C 139.675781 166.707031 139.023438 167.90625 138.808594 169.105469 C 139.78125 167.554688 140.730469 166.589844 142.722656 166.320312 L 143.921875 166.15625 L 142.890625 166.789062 C 142.367188 167.109375 141.734375 168.25 141.441406 169.335938 C 142.242188 167.960938 143.425781 166.890625 144.640625 166.5 L 145.542969 166.214844 L 144.90625 166.914062 C 144.554688 167.304688 144.207031 168.21875 144.050781 169.097656 C 144.625 167.835938 145.566406 166.679688 146.875 166.429688 L 147.746094 166.261719 L 147.097656 166.863281 C 146.433594 167.484375 146.136719 168.664062 146.308594 169.777344 C 147.050781 168.019531 147.703125 166.664062 148.996094 166.300781 L 149.613281 166.128906 L 149.28125 166.679688 C 148.757812 167.550781 148.269531 168.746094 148.636719 169.851562 C 149.152344 167.992188 149.890625 166.203125 151.261719 165.785156 L 152.003906 165.558594 L 151.539062 166.179688 C 150.832031 167.125 150.757812 167.742188 151.027344 168.3125 C 151.335938 166.667969 152.089844 165.765625 153.519531 165.265625 L 154.234375 165.015625 L 153.816406 165.648438 C 153.480469 166.15625 153.394531 166.890625 153.5625 167.671875 C 153.566406 167.652344 153.570312 167.636719 153.578125 167.621094 C 154 166.414062 154.476562 165.046875 156.152344 164.734375 L 156.683594 164.636719 L 156.421875 165.109375 C 156.003906 165.867188 155.695312 166.511719 155.769531 167.277344 C 155.777344 167.257812 155.78125 167.238281 155.789062 167.222656 C 156.28125 165.605469 156.554688 164.710938 158.8125 164.28125 L 159.789062 164.09375 L 159.019531 164.726562 C 158.472656 165.179688 158.230469 165.621094 158.140625 166.15625 C 159.03125 165.046875 160.464844 164.167969 162.011719 163.828125 C 163.316406 163.535156 164.554688 163.65625 165.570312 164.164062 C 164.433594 161.796875 162.695312 160.421875 160.15625 159.871094 C 157.5625 159.3125 154.417969 159.613281 150.773438 159.964844 C 143.070312 160.703125 133.484375 161.625 124.039062 154.484375 L 123.328125 153.945312 L 124.214844 154.027344 C 127.875 154.359375 134.535156 152.066406 139.125 150.003906 C 142.882812 148.3125 146.679688 147.503906 150.402344 147.605469 C 153.785156 147.699219 156.996094 148.5625 159.691406 150.109375 C 163.574219 152.335938 166.117188 155.792969 166.75 159.667969 C 167.449219 158.628906 168.089844 156.785156 168.160156 154.539062 C 168.226562 152.453125 167.816406 149.355469 165.496094 146.4375 C 161.851562 141.859375 155.796875 138.839844 148.890625 138.15625 C 144.820312 137.753906 140.5 138.148438 136.042969 139.324219 C 131.0625 140.640625 125.914062 142.945312 120.746094 146.167969 L 120.253906 146.476562 L 120.363281 145.90625 C 121.136719 141.769531 124.0625 138.460938 129.054688 136.074219 C 133.007812 134.179688 138.242188 132.941406 143.792969 132.582031 C 150.992188 132.117188 157.660156 133.125 163.070312 135.496094 C 168.03125 137.671875 171.765625 140.957031 173.589844 144.746094 C 176.269531 150.316406 176.351562 163.691406 176.390625 170.878906 C 176.394531 171.648438 176.402344 172.347656 176.40625 172.96875 C 176.53125 184.21875 173.015625 190.082031 170.917969 193.585938 C 170.738281 193.886719 170.566406 194.175781 170.40625 194.445312 C 168.636719 197.480469 168.613281 200.152344 170.347656 201.582031 C 171.65625 202.660156 172.382812 202.144531 173.222656 201.546875 C 173.84375 201.105469 174.550781 200.605469 175.472656 200.960938 C 176.082031 201.199219 176.640625 201.601562 177.226562 202.035156 C 178.871094 203.238281 180.425781 204.375 183.179688 201.933594 C 184.234375 201 185.066406 200.609375 185.875 200.660156 C 186.976562 200.730469 187.972656 201.625 189.121094 202.949219 L 189.421875 203.289062 L 188.976562 203.367188 C 185.648438 203.9375 183.339844 205.382812 182.109375 207.660156 C 180.628906 210.398438 181.097656 213.683594 181.945312 215.664062 L 181.480469 215.867188 C 180.585938 213.78125 180.09375 210.316406 181.664062 207.414062 C 182.914062 205.101562 185.195312 203.597656 188.441406 202.949219 C 187.339844 201.738281 186.574219 201.214844 185.84375 201.167969 C 185.179688 201.125 184.460938 201.480469 183.515625 202.316406 C 180.457031 205.027344 178.582031 203.65625 176.925781 202.445312 C 176.367188 202.035156 175.835938 201.648438 175.289062 201.4375 C 174.621094 201.179688 174.109375 201.542969 173.515625 201.964844 C 172.675781 202.5625 171.632812 203.304688 170.023438 201.976562 C 168.082031 200.371094 168.0625 197.460938 169.96875 194.1875 C 170.128906 193.914062 170.300781 193.628906 170.484375 193.324219 C 172.554688 189.867188 176.023438 184.078125 175.898438 172.972656 C 175.894531 172.355469 175.890625 171.652344 175.882812 170.882812 C 175.84375 163.734375 175.761719 150.433594 173.132812 144.964844 C 171.359375 141.285156 167.714844 138.089844 162.867188 135.964844 C 157.53125 133.625 150.945312 132.628906 143.828125 133.089844 C 138.339844 133.445312 133.171875 134.667969 129.273438 136.535156 C 124.671875 138.734375 121.886719 141.722656 120.984375 145.421875 C 126.027344 142.335938 131.046875 140.117188 135.917969 138.832031 C 140.429688 137.640625 144.8125 137.242188 148.9375 137.648438 C 155.984375 138.34375 162.160156 141.433594 165.890625 146.121094 C 168.308594 149.15625 168.734375 152.382812 168.667969 154.554688 C 168.59375 156.980469 167.847656 159.300781 166.765625 160.472656 L 166.390625 160.882812 L 166.328125 160.328125 C 165.886719 156.375 163.378906 152.808594 159.441406 150.554688 C 156.816406 149.046875 153.6875 148.207031 150.390625 148.117188 C 146.742188 148.015625 143.019531 148.808594 139.332031 150.46875 C 137.746094 151.179688 129.957031 154.566406 125.015625 154.570312 C 134.089844 161.054688 143.292969 160.171875 150.726562 159.457031 C 158.023438 158.753906 163.789062 158.199219 166.363281 164.714844 L 166.703125 165.574219 L 165.972656 165.011719 C 164.96875 164.242188 163.601562 163.996094 162.121094 164.324219 C 160.363281 164.714844 158.773438 165.832031 158.074219 167.175781 L 157.636719 168.019531 L 157.597656 167.070312 C 157.5625 166.269531 157.644531 165.605469 158.078125 164.988281 C 156.882812 165.378906 156.6875 166.023438 156.273438 167.367188 C 156.191406 167.636719 156.101562 167.945312 155.988281 168.273438 L 155.773438 168.921875 L 155.515625 168.289062 C 155.046875 167.148438 155.269531 166.273438 155.691406 165.40625 C 154.742188 165.824219 154.410156 166.785156 154.058594 167.789062 C 153.96875 168.042969 153.875 168.304688 153.777344 168.558594 L 153.539062 169.140625 L 153.304688 168.558594 C 152.941406 167.648438 152.871094 166.742188 153.09375 166.003906 C 152.089844 166.542969 151.605469 167.449219 151.429688 169.035156 L 151.363281 169.644531 L 150.980469 169.167969 C 150.359375 168.398438 150.214844 167.679688 150.554688 166.847656 C 149.78125 167.703125 149.300781 169.261719 148.953125 170.636719 L 148.8125 171.195312 L 148.496094 170.714844 C 147.714844 169.53125 147.96875 168.210938 148.460938 167.140625 C 147.71875 167.726562 147.230469 168.894531 146.605469 170.382812 L 146.234375 171.265625 L 146.011719 170.65625 C 145.59375 169.519531 145.691406 168.191406 146.195312 167.230469 C 145.113281 167.882812 144.347656 169.355469 144.03125 170.730469 L 143.800781 171.734375 L 143.539062 170.742188 C 143.296875 169.835938 143.613281 168.304688 144.078125 167.304688 C 142.890625 167.980469 141.824219 169.328125 141.285156 170.882812 L 140.945312 171.863281 L 140.792969 170.839844 C 140.636719 169.78125 141.230469 168.011719 141.976562 166.996094 C 140.398438 167.460938 139.671875 168.59375 138.707031 170.273438 L 138.277344 171.023438 L 138.234375 170.160156 C 138.171875 168.953125 138.605469 167.484375 139.429688 166.582031 C 138.085938 167.019531 136.636719 168.097656 135.863281 169.734375 L 135.488281 170.53125 L 135.378906 169.65625 C 135.253906 168.625 135.800781 167.15625 136.808594 166.214844 C 135.453125 166.542969 134.070312 167.597656 133.21875 169.023438 L 132.710938 169.875 L 132.746094 168.882812 C 132.820312 166.953125 134.128906 165.90625 135.316406 165.164062 C 133.691406 165.371094 132.253906 166.402344 130.664062 167.863281 L 129.839844 168.625 L 130.257812 167.582031 C 130.875 166.046875 132.894531 164.648438 134.042969 163.949219 C 128.519531 163.671875 125.269531 160.402344 123.289062 158.40625 C 122.378906 157.492188 121.660156 156.769531 121.195312 156.796875 C 121.066406 156.808594 120.972656 156.855469 120.898438 156.949219 C 120.703125 157.199219 120.542969 157.878906 120.882812 159.710938 C 121.523438 163.175781 121.261719 165.355469 120.164062 165.6875 C 119.363281 165.929688 118.394531 165.074219 117.75 163.5625 C 115.839844 159.523438 112.53125 156.980469 110.21875 157.785156 C 107.601562 158.699219 107.023438 163.542969 108.671875 170.742188 C 110.277344 177.765625 113.820312 189.890625 119.515625 192.207031 C 120.816406 192.734375 122.105469 192.648438 123.15625 191.964844 L 123.429688 191.789062 L 123.535156 192.101562 C 126.632812 201.347656 137.375 225.691406 149.105469 237.796875 C 153.585938 242.421875 158.492188 247.230469 164 251.070312 C 170.558594 255.644531 176.503906 257.816406 182.179688 257.703125 C 188.113281 257.585938 194.0625 255.144531 200.367188 250.238281 C 205.777344 246.027344 210.539062 240.683594 214.367188 236.386719 L 214.570312 236.160156 C 219.230469 230.960938 223.9375 224.273438 228.1875 216.808594 C 232.050781 210.03125 235.464844 202.769531 238.070312 195.800781 C 237.574219 195.230469 235.378906 192.617188 233.332031 189.042969 C 231.191406 185.308594 228.777344 179.726562 229.4375 174.359375 L 229.9375 174.421875 C 229.300781 179.648438 231.667969 185.113281 233.769531 188.78125 C 236.054688 192.769531 238.523438 195.550781 238.550781 195.578125 L 238.652344 195.691406 L 238.597656 195.835938 C 235.976562 202.875 232.53125 210.214844 228.628906 217.0625 C 224.363281 224.554688 219.628906 231.277344 214.949219 236.5 L 214.746094 236.726562 C 210.90625 241.039062 206.125 246.402344 200.679688 250.640625 C 194.285156 255.617188 188.234375 258.09375 182.191406 258.210938 C 182.050781 258.214844 181.90625 258.21875 181.765625 258.21875 " fill-opacity="1" fill-rule="nonzero"/></g><path fill="#03072b" d="M 172.875 224.082031 L 172.992188 223.964844 L 173.128906 224.054688 C 177.097656 226.695312 181.464844 227.515625 184.8125 226.253906 C 187.234375 225.339844 189.160156 224.738281 191.828125 225.335938 C 193.46875 225.699219 197.644531 226.144531 200.410156 224.75 C 199.289062 225.089844 198.082031 225.203125 196.988281 225.203125 C 196.621094 225.203125 196.265625 225.191406 195.929688 225.171875 C 193.625 225.027344 191.035156 224.414062 189.167969 223.570312 C 186.953125 222.566406 184.808594 222.117188 182.851562 222 C 182.707031 222.628906 182.425781 223.160156 181.941406 223.492188 C 179.1875 225.410156 175.917969 224.8125 173.78125 223.617188 L 173.433594 223.425781 L 173.796875 223.257812 C 175.011719 222.695312 178.316406 221.402344 182.523438 221.574219 C 182.816406 219.464844 181.683594 216.285156 181.480469 215.746094 C 180.546875 215.816406 179.589844 215.359375 178.578125 214.875 C 177.285156 214.253906 175.945312 213.613281 174.453125 213.960938 C 172.566406 214.40625 170.292969 216.378906 169.402344 217.203125 C 167.515625 218.957031 161.773438 223.960938 159.96875 224.574219 L 159.546875 224.714844 C 160.722656 224.984375 163.339844 225.335938 165.957031 225.402344 C 169.484375 225.484375 171.941406 225.015625 172.875 224.082031 " fill-opacity="1" fill-rule="nonzero"/><path fill="#03072b" d="M 174.351562 223.457031 C 176.375 224.457031 179.261719 224.859375 181.710938 223.160156 C 182.085938 222.894531 182.320312 222.480469 182.445312 221.976562 C 178.738281 221.835938 175.753906 222.855469 174.351562 223.457031 " fill-opacity="1" fill-rule="nonzero"/><path fill="#03072b" d="M 182.921875 221.59375 C 184.910156 221.71875 187.085938 222.179688 189.335938 223.199219 C 192.851562 224.789062 199.226562 225.707031 202.25 223.382812 C 202.085938 223.378906 202.121094 223.40625 201.828125 223.363281 C 200.5625 223.1875 198.941406 221.578125 197.066406 219.726562 C 194.304688 216.996094 190.878906 213.609375 187.109375 213.609375 C 187.058594 213.609375 187.011719 213.609375 186.960938 213.613281 C 185.542969 213.644531 184.578125 214.257812 183.722656 214.796875 C 183.128906 215.175781 182.5625 215.53125 181.890625 215.683594 C 182.167969 216.433594 183.207031 219.4375 182.921875 221.59375 " fill-opacity="1" fill-rule="nonzero"/><path fill="#03072b" d="M 202.207031 223.914062 C 201.039062 225.199219 199.128906 225.929688 196.527344 226.082031 C 194.503906 226.199219 192.566406 225.917969 191.742188 225.730469 C 189.179688 225.160156 187.3125 225.746094 184.957031 226.636719 C 183.878906 227.042969 182.699219 227.242188 181.464844 227.242188 C 178.769531 227.242188 175.808594 226.292969 173.039062 224.484375 C 170.550781 226.65625 161.84375 225.675781 159.410156 225.101562 C 159.550781 225.265625 159.726562 225.46875 159.867188 225.601562 C 161.203125 226.886719 164.328125 229.894531 168.433594 232.574219 C 173.414062 235.820312 178.113281 237.464844 182.40625 237.464844 C 182.550781 237.464844 182.6875 237.464844 182.828125 237.460938 C 188.582031 237.316406 193.460938 233.773438 196.539062 230.828125 C 199.300781 228.191406 201.445312 225.082031 202.214844 223.910156 C 202.210938 223.910156 202.210938 223.914062 202.207031 223.914062 " fill-opacity="1" fill-rule="nonzero"/><path fill="#03072b" d="M 219.316406 160.640625 L 219.496094 161.117188 C 213.925781 163.222656 208.472656 167.417969 205.265625 172.074219 L 204.847656 171.78125 C 208.109375 167.046875 213.652344 162.777344 219.316406 160.640625 Z M 211.480469 178.832031 L 210.996094 178.679688 C 212.351562 174.25 215.824219 167.273438 219.285156 163.261719 L 219.667969 163.597656 C 216.25 167.554688 212.820312 174.453125 211.480469 178.832031 Z M 200.613281 169.472656 C 200.726562 170.699219 201.921875 174 203.878906 177.007812 C 205.585938 179.628906 208.375 182.835938 211.976562 183.21875 C 214.566406 183.496094 216.773438 180.691406 218.164062 178.289062 C 219.796875 175.46875 221.035156 171.949219 221.539062 169.714844 C 222.175781 166.886719 222.6875 162.800781 222.222656 159.832031 C 221.941406 158.046875 221.34375 158.0625 219.738281 158.109375 C 219.476562 158.117188 219.175781 158.125 218.859375 158.125 C 218.390625 158.125 216.542969 158.246094 214.066406 158.554688 C 210.757812 159.675781 207.511719 160.871094 205.066406 162.371094 C 201.773438 164.382812 200.359375 166.644531 200.613281 169.472656 " fill-opacity="1" fill-rule="nonzero"/><path fill="#03072b" d="M 248.335938 171.78125 L 247.917969 172.074219 C 244.714844 167.417969 239.261719 163.222656 233.6875 161.117188 L 233.867188 160.640625 C 239.53125 162.777344 245.074219 167.046875 248.335938 171.78125 Z M 241.703125 178.832031 C 240.363281 174.453125 236.933594 167.554688 233.515625 163.597656 L 233.898438 163.261719 C 237.359375 167.273438 240.832031 174.25 242.191406 178.679688 Z M 233.472656 158.109375 C 233.238281 158.101562 233.027344 158.097656 232.832031 158.097656 C 231.699219 158.097656 231.226562 158.304688 230.988281 159.832031 C 230.523438 162.800781 231.035156 166.882812 231.667969 169.714844 C 232.171875 171.949219 233.410156 175.46875 235.046875 178.289062 C 236.4375 180.691406 238.640625 183.492188 241.234375 183.21875 C 244.832031 182.835938 247.621094 179.628906 249.328125 177.007812 C 251.289062 174 252.484375 170.699219 252.59375 169.472656 C 252.851562 166.644531 251.4375 164.382812 248.140625 162.371094 C 245.699219 160.871094 242.449219 159.675781 239.140625 158.554688 C 236.667969 158.246094 234.820312 158.125 234.351562 158.125 C 234.03125 158.125 233.734375 158.117188 233.472656 158.109375 " fill-opacity="1" fill-rule="nonzero"/><path fill="#03072b" d="M 226.660156 154.914062 C 226.347656 154.914062 226.058594 154.800781 225.816406 154.605469 C 224.984375 157.65625 224.5625 163.394531 224.738281 169.300781 C 224.914062 175.191406 225.625 179.78125 226.605469 181.4375 C 227.371094 180.144531 227.972656 177.0625 228.28125 172.964844 C 228.335938 172.429688 228.433594 170.546875 228.46875 169.300781 C 228.644531 163.4375 228.230469 157.742188 227.410156 154.675781 C 227.191406 154.828125 226.933594 154.914062 226.660156 154.914062 " fill-opacity="1" fill-rule="nonzero"/><path fill="#03072b" d="M 219.585938 150.683594 L 219.226562 151.042969 C 213.707031 145.40625 206.90625 140.851562 203.042969 139.265625 L 203.234375 138.792969 C 206.289062 140.046875 209.609375 142.3125 211.859375 143.992188 C 214.644531 146.074219 217.460938 148.515625 219.585938 150.683594 Z M 219.378906 153.238281 C 212.105469 150.214844 205.25 150.347656 202.644531 150.542969 C 202.515625 150.554688 202.460938 150.558594 202.429688 150.558594 L 202.429688 150.046875 C 202.453125 150.046875 202.511719 150.042969 202.605469 150.035156 C 205.25 149.835938 212.199219 149.703125 219.574219 152.765625 Z M 209.699219 137.507812 C 204.332031 133.367188 201.222656 132.859375 200.027344 132.859375 C 199.980469 132.859375 199.9375 132.859375 199.898438 132.859375 C 199.074219 132.886719 198.480469 133.152344 198.179688 133.628906 C 197.339844 134.960938 198.21875 136.480469 199.242188 138.242188 C 199.742188 139.109375 200.261719 140.007812 200.597656 140.941406 C 202.035156 144.914062 201.007812 146.816406 200.011719 148.652344 C 199.730469 149.167969 199.441406 149.707031 199.214844 150.28125 C 198.582031 151.894531 198.671875 153.175781 199.480469 154.097656 C 200.949219 155.761719 204.839844 156.378906 210.734375 155.882812 C 215.25 155.496094 220.171875 154.527344 223.390625 153.714844 C 223.074219 153.027344 222.171875 151.101562 220.796875 148.597656 C 217.011719 144.015625 213.242188 140.246094 209.699219 137.507812 " fill-opacity="1" fill-rule="nonzero"/><path fill="#03072b" d="M 241.324219 143.992188 C 243.574219 142.3125 246.894531 140.046875 249.949219 138.792969 L 250.140625 139.265625 C 246.277344 140.851562 239.476562 145.40625 233.957031 151.042969 L 233.597656 150.683594 C 235.722656 148.515625 238.539062 146.074219 241.324219 143.992188 Z M 250.753906 150.046875 L 250.753906 150.558594 C 250.722656 150.558594 250.667969 150.554688 250.539062 150.542969 C 247.933594 150.347656 241.078125 150.214844 233.804688 153.238281 L 233.609375 152.765625 C 240.984375 149.703125 247.933594 149.835938 250.578125 150.035156 C 250.671875 150.042969 250.730469 150.046875 250.753906 150.046875 Z M 242.476562 155.882812 C 248.371094 156.378906 252.261719 155.761719 253.726562 154.097656 C 254.535156 153.175781 254.625 151.894531 253.992188 150.28125 C 253.769531 149.707031 253.476562 149.167969 253.195312 148.648438 C 252.203125 146.816406 251.171875 144.914062 252.609375 140.941406 C 252.945312 140.007812 253.464844 139.109375 253.96875 138.242188 C 254.988281 136.480469 255.871094 134.960938 255.03125 133.628906 C 254.730469 133.152344 254.136719 132.886719 253.3125 132.859375 C 252.21875 132.824219 249.078125 133.207031 243.511719 137.507812 C 239.96875 140.246094 236.199219 144.019531 232.410156 148.597656 C 231.039062 151.101562 230.132812 153.027344 229.816406 153.714844 C 233.035156 154.523438 237.957031 155.496094 242.476562 155.882812 " fill-opacity="1" fill-rule="nonzero"/><g clip-path="url(#711cf21878)"><path fill="#03072b" d="M 228.976562 169.316406 C 228.941406 170.574219 228.878906 171.769531 228.796875 172.886719 C 229.5 174.640625 234.671875 187.1875 239.105469 188.726562 C 240.703125 189.28125 243.085938 188.570312 245.8125 186.726562 C 248.4375 184.957031 251.148438 182.269531 253.253906 179.351562 C 255.238281 176.597656 256.585938 173.8125 257.144531 171.300781 C 257.777344 168.445312 257.390625 166.0625 255.996094 164.21875 C 254.523438 162.273438 250.554688 160.613281 244.519531 159.417969 C 243.574219 159.230469 242.640625 159.066406 241.746094 158.925781 C 244.207031 159.816406 246.53125 160.785156 248.40625 161.933594 C 251.835938 164.035156 253.371094 166.515625 253.101562 169.519531 C 252.875 172.015625 248.378906 182.96875 241.289062 183.726562 C 241.152344 183.742188 241.015625 183.746094 240.882812 183.746094 C 238.746094 183.746094 236.585938 181.960938 234.605469 178.546875 C 232.945312 175.679688 231.6875 172.101562 231.175781 169.824219 C 230.527344 166.949219 230.007812 162.792969 230.488281 159.75 C 230.835938 157.523438 231.832031 157.554688 233.484375 157.601562 C 233.757812 157.609375 234.039062 157.617188 234.351562 157.617188 C 234.691406 157.617188 235.589844 157.667969 236.839844 157.785156 C 235.0625 157.195312 233.234375 156.582031 231.53125 155.9375 L 229.386719 155.125 L 231.65625 155.445312 C 233.898438 155.765625 235.949219 156.097656 237.929688 156.417969 C 242.710938 157.195312 246.839844 157.867188 251.046875 157.867188 C 255.296875 157.867188 257.898438 156.757812 258.773438 154.570312 C 259.648438 152.375 258.976562 150.167969 258.328125 148.03125 C 258.078125 147.21875 257.824219 146.378906 257.65625 145.546875 C 256.9375 142.007812 257.507812 139.519531 259.613281 136.960938 C 261.515625 134.652344 262.273438 132.664062 261.871094 131.046875 C 261.441406 129.320312 259.773438 128.554688 259.441406 128.417969 C 255.898438 126.949219 252.136719 127.363281 248.269531 129.644531 C 245.140625 131.488281 241.941406 134.542969 238.746094 138.722656 C 236.820312 141.246094 235.132812 143.878906 233.75 146.234375 C 236.976562 142.535156 240.171875 139.445312 243.199219 137.105469 C 247.214844 134.007812 250.90625 132.269531 253.328125 132.351562 C 254.328125 132.382812 255.066406 132.730469 255.457031 133.355469 C 256.464844 134.949219 255.464844 136.671875 254.40625 138.5 C 253.917969 139.347656 253.410156 140.222656 253.085938 141.113281 C 251.726562 144.875 252.65625 146.589844 253.640625 148.40625 C 253.929688 148.941406 254.230469 149.492188 254.46875 150.097656 C 255.171875 151.898438 255.054688 153.359375 254.105469 154.433594 C 252.507812 156.25 248.582031 156.90625 242.433594 156.390625 C 237.742188 155.992188 232.625 154.964844 229.398438 154.132812 L 229.109375 154.058594 L 229.226562 153.785156 C 229.242188 153.753906 229.777344 152.546875 230.738281 150.667969 C 229.78125 151.882812 228.828125 153.144531 227.878906 154.453125 C 228.738281 157.585938 229.15625 163.261719 228.976562 169.316406 " fill-opacity="1" fill-rule="nonzero"/></g><path fill="#03072b" d="M 226.660156 154.503906 C 227.277344 154.503906 227.777344 153.871094 227.777344 153.097656 C 227.777344 152.320312 227.277344 151.683594 226.660156 151.683594 C 226.042969 151.683594 225.542969 152.320312 225.542969 153.097656 C 225.542969 153.871094 226.042969 154.503906 226.660156 154.503906 " fill-opacity="1" fill-rule="nonzero"/><path fill="#03072b" d="M 223.980469 153.785156 L 224.101562 154.058594 L 223.8125 154.132812 C 220.585938 154.964844 215.464844 155.992188 210.773438 156.390625 C 204.628906 156.910156 200.699219 156.25 199.101562 154.433594 C 198.15625 153.359375 198.035156 151.898438 198.742188 150.097656 C 198.980469 149.492188 199.277344 148.941406 199.566406 148.40625 C 200.550781 146.589844 201.480469 144.875 200.121094 141.113281 C 199.800781 140.222656 199.292969 139.347656 198.800781 138.5 C 197.742188 136.671875 196.746094 134.949219 197.75 133.355469 C 198.144531 132.730469 198.878906 132.382812 199.882812 132.351562 C 202.304688 132.273438 205.996094 134.007812 210.007812 137.105469 C 213.039062 139.445312 216.234375 142.535156 219.460938 146.234375 C 218.074219 143.875 216.386719 141.238281 214.457031 138.71875 C 211.265625 134.539062 208.0625 131.484375 204.9375 129.640625 C 201.070312 127.363281 197.3125 126.949219 193.769531 128.417969 C 193.4375 128.554688 191.769531 129.320312 191.339844 131.046875 C 190.9375 132.664062 191.695312 134.652344 193.59375 136.960938 C 195.703125 139.519531 196.269531 142.007812 195.554688 145.546875 C 195.386719 146.378906 195.128906 147.21875 194.882812 148.03125 C 193.558594 152.375 194.003906 153.488281 194.4375 154.570312 C 195.3125 156.757812 197.910156 157.867188 202.160156 157.867188 C 206.371094 157.867188 210.5 157.195312 215.277344 156.417969 C 217.261719 156.097656 219.308594 155.765625 221.554688 155.445312 L 223.820312 155.125 L 221.679688 155.9375 C 219.976562 156.582031 218.148438 157.195312 216.367188 157.785156 C 217.621094 157.667969 218.515625 157.617188 218.859375 157.617188 C 219.167969 157.617188 219.449219 157.609375 219.722656 157.601562 C 221.375 157.554688 222.375 157.523438 222.722656 159.75 C 223.199219 162.792969 222.679688 166.949219 222.035156 169.824219 C 221.523438 172.101562 220.261719 175.679688 218.601562 178.546875 C 216.496094 182.175781 214.1875 183.96875 211.921875 183.726562 C 204.832031 182.96875 200.332031 172.015625 200.109375 169.519531 C 199.835938 166.515625 201.375 164.035156 204.800781 161.933594 C 206.679688 160.785156 209.003906 159.816406 211.460938 158.925781 C 210.570312 159.066406 209.636719 159.230469 208.691406 159.417969 C 202.65625 160.613281 198.6875 162.273438 197.214844 164.21875 C 195.773438 166.117188 195.410156 168.601562 196.136719 171.589844 C 196.777344 174.21875 198.234375 177.105469 200.355469 179.9375 C 202.472656 182.761719 205.132812 185.328125 207.65625 186.976562 C 210.285156 188.695312 212.570312 189.320312 214.09375 188.730469 C 217.648438 187.351562 223.488281 175.6875 224.402344 172.753906 C 224.324219 171.675781 224.265625 170.523438 224.230469 169.316406 C 224.050781 163.261719 224.472656 157.585938 225.332031 154.453125 C 224.378906 153.144531 223.425781 151.882812 222.472656 150.671875 C 223.433594 152.546875 223.96875 153.753906 223.980469 153.785156 " fill-opacity="1" fill-rule="nonzero"/><path fill="#03072b" d="M 225.417969 150.640625 C 224.925781 147.007812 223.882812 141.535156 222.425781 137.066406 C 221.15625 133.179688 219.097656 128.613281 216.484375 128.9375 L 216.421875 128.429688 C 218.792969 128.136719 220.976562 130.992188 222.90625 136.910156 C 224.375 141.410156 225.425781 146.917969 225.921875 150.574219 L 225.417969 150.640625 " fill-opacity="1" fill-rule="nonzero"/><path fill="#03072b" d="M 227.621094 150.640625 L 227.117188 150.574219 C 227.613281 146.917969 228.664062 141.410156 230.132812 136.910156 C 232.0625 130.992188 234.242188 128.136719 236.617188 128.429688 L 236.554688 128.9375 C 233.941406 128.613281 231.882812 133.179688 230.613281 137.066406 C 229.15625 141.535156 228.113281 147.007812 227.621094 150.640625 " fill-opacity="1" fill-rule="nonzero"/></svg>