<svg xmlns="http://www.w3.org/2000/svg" xmlns:xlink="http://www.w3.org/1999/xlink" width="500" zoomAndPan="magnify" viewBox="0 0 375 374.999991" height="500" preserveAspectRatio="xMidYMid meet" version="1.0"><defs><g/></defs><path fill="#ffffff" d="M 208.792969 187.402344 C 208.792969 187.945312 208.347656 188.390625 207.800781 188.390625 C 207.25 188.390625 206.808594 187.949219 206.808594 187.402344 C 206.808594 161.074219 190.214844 137.175781 165.511719 127.929688 C 165 127.738281 164.742188 127.171875 164.933594 126.65625 C 165.125 126.144531 165.695312 125.890625 166.207031 126.078125 C 178.585938 130.710938 189.171875 138.878906 196.824219 149.703125 C 204.65625 160.777344 208.792969 173.8125 208.792969 187.402344 Z M 208.792969 187.402344 " fill-opacity="1" fill-rule="nonzero"/><path fill="#ffffff" d="M 144.152344 251.886719 C 144.152344 252.429688 143.707031 252.878906 143.160156 252.878906 C 106.96875 252.878906 77.53125 223.503906 77.53125 187.40625 C 77.53125 185.847656 77.589844 184.273438 77.695312 182.726562 C 77.734375 182.179688 78.210938 181.769531 78.753906 181.808594 C 79.300781 181.851562 79.710938 182.3125 79.671875 182.867188 C 79.566406 184.367188 79.511719 185.894531 79.511719 187.40625 C 79.511719 222.417969 108.0625 250.902344 143.160156 250.902344 C 143.707031 250.898438 144.152344 251.339844 144.152344 251.886719 Z M 144.152344 251.886719 " fill-opacity="1" fill-rule="nonzero"/><path fill="#ffffff" d="M 77.152344 151.890625 C 77.21875 151.96875 77.308594 151.894531 77.382812 151.867188 C 77.386719 151.863281 77.394531 151.863281 77.398438 151.859375 C 77.394531 151.859375 77.394531 151.863281 77.390625 151.863281 C 77.429688 151.851562 77.464844 151.832031 77.5 151.816406 C 77.492188 151.820312 77.488281 151.820312 77.480469 151.824219 C 83.140625 148.339844 90.222656 147.628906 95.332031 143.03125 C 95.324219 143.035156 95.324219 143.035156 95.320312 143.039062 C 95.347656 143.015625 95.371094 142.996094 95.398438 142.972656 C 95.390625 142.976562 95.382812 142.980469 95.378906 142.988281 C 98.488281 140.230469 100.296875 136.042969 103.964844 133.949219 C 103.964844 133.949219 103.960938 133.949219 103.960938 133.953125 C 106.25 133.527344 108.195312 132.558594 110.253906 131.535156 C 112.3125 130.917969 114.46875 130.957031 116.570312 130.625 C 105.511719 135.625 95.074219 142.789062 87.9375 152.699219 C 87.945312 152.691406 87.949219 152.675781 87.957031 152.667969 C 82.492188 157.832031 75.179688 164.878906 77.394531 173.203125 C 77.394531 173.199219 77.394531 173.191406 77.390625 173.1875 C 77.480469 173.644531 77.542969 174.109375 77.621094 174.566406 C 77.617188 174.550781 77.617188 174.535156 77.613281 174.519531 C 77.691406 175.109375 77.878906 175.683594 77.992188 176.265625 C 77.992188 176.257812 77.988281 176.253906 77.988281 176.246094 C 78.007812 176.332031 78.023438 176.421875 78.042969 176.511719 C 78.039062 176.492188 78.039062 176.480469 78.03125 176.460938 C 78.089844 176.664062 78.0625 176.871094 78.078125 177.082031 C 78.078125 177.070312 78.078125 177.058594 78.078125 177.050781 C 78.078125 177.121094 78.085938 177.191406 78.085938 177.265625 C 78.085938 177.257812 78.085938 177.246094 78.085938 177.234375 C 78.132812 177.746094 77.484375 179.5 78.371094 178.011719 C 78.363281 178.015625 78.363281 178.019531 78.359375 178.023438 C 78.378906 177.996094 78.394531 177.96875 78.410156 177.9375 C 78.410156 177.9375 78.410156 177.941406 78.40625 177.941406 C 78.445312 177.871094 78.480469 177.804688 78.515625 177.734375 C 78.515625 177.734375 78.515625 177.738281 78.511719 177.738281 C 79.335938 174.148438 78.78125 170.222656 80.839844 166.886719 C 82.570312 163.839844 85.496094 161.546875 86.253906 157.976562 C 86.253906 157.976562 86.253906 157.980469 86.253906 157.980469 C 88.363281 152.570312 92.230469 148.277344 96.523438 144.460938 C 95.117188 148.449219 94.117188 152.601562 91.65625 156.136719 C 88.773438 159.945312 87.777344 164.289062 87.15625 168.925781 C 87.175781 169.226562 86.902344 171.460938 87.441406 170.71875 C 90.519531 163.929688 97.640625 162.6875 98.011719 153.644531 C 98.011719 153.621094 98.019531 153.597656 98.019531 153.574219 C 98.019531 153.574219 98.019531 153.578125 98.019531 153.578125 C 98.019531 153.566406 98.019531 153.554688 98.019531 153.542969 C 98.019531 153.554688 98.019531 153.570312 98.011719 153.582031 C 98.25 150.632812 97.507812 147.753906 97.644531 144.816406 C 97.640625 144.851562 97.640625 144.886719 97.636719 144.921875 C 97.644531 144.761719 97.65625 144.597656 97.664062 144.441406 C 97.664062 144.453125 97.664062 144.464844 97.660156 144.480469 C 97.664062 144.445312 97.664062 144.410156 97.667969 144.378906 C 97.667969 144.394531 97.667969 144.414062 97.664062 144.429688 C 100.773438 137.730469 120.144531 129.390625 127.578125 127.445312 C 120.488281 130.230469 118.070312 136.203125 112.726562 140.734375 C 112.730469 140.730469 112.734375 140.726562 112.738281 140.722656 C 112.722656 140.738281 112.699219 140.757812 112.679688 140.773438 C 112.6875 140.769531 112.691406 140.769531 112.691406 140.765625 C 112.664062 140.792969 112.632812 140.8125 112.605469 140.839844 C 112.621094 140.832031 112.628906 140.816406 112.640625 140.808594 C 110.347656 143.222656 108.03125 145.734375 106.148438 148.476562 C 104.867188 150.910156 104.613281 153.765625 103.132812 156.105469 C 103.136719 156.101562 103.140625 156.089844 103.144531 156.085938 C 101.292969 159.152344 102.433594 157.675781 104.089844 156.371094 C 106.269531 154.890625 108.597656 153.589844 110.671875 151.953125 C 110.671875 151.953125 110.671875 151.953125 110.667969 151.953125 C 110.679688 151.945312 110.695312 151.933594 110.703125 151.921875 C 110.699219 151.921875 110.699219 151.925781 110.695312 151.925781 C 122.78125 142.925781 115.558594 142.289062 120.53125 133.519531 C 120.53125 133.519531 120.527344 133.527344 120.527344 133.527344 C 120.5625 133.476562 120.597656 133.429688 120.636719 133.378906 C 120.628906 133.394531 120.621094 133.40625 120.609375 133.414062 C 120.632812 133.382812 120.65625 133.359375 120.675781 133.328125 C 120.671875 133.332031 120.667969 133.335938 120.667969 133.339844 C 121.109375 132.890625 121.574219 132.460938 122.054688 132.042969 C 122.03125 132.058594 122.011719 132.082031 121.988281 132.097656 C 122.023438 132.066406 122.058594 132.039062 122.09375 132.007812 C 122.085938 132.015625 122.078125 132.019531 122.066406 132.027344 C 122.089844 132.011719 122.113281 131.992188 122.128906 131.976562 C 122.125 131.976562 122.125 131.980469 122.121094 131.980469 C 124.570312 129.765625 127.601562 128.429688 130.558594 127.042969 C 130.546875 127.046875 130.53125 127.054688 130.523438 127.058594 C 133.167969 125.777344 136.253906 125.5625 139.148438 125.207031 C 139.144531 125.207031 139.136719 125.207031 139.128906 125.207031 C 139.160156 125.207031 139.1875 125.203125 139.21875 125.199219 C 139.195312 125.199219 139.175781 125.203125 139.152344 125.203125 C 141.726562 124.917969 144.3125 124.800781 146.890625 124.792969 C 148.640625 124.789062 150.390625 124.832031 152.132812 124.910156 C 154.480469 125.011719 156.824219 125.164062 159.152344 125.324219 C 160.289062 125.402344 161.421875 125.484375 162.550781 125.5625 C 162.757812 125.414062 162.84375 124.8125 162.519531 124.75 C 162.34375 124.71875 161.808594 124.664062 161.8125 124.664062 C 161.148438 124.585938 158.464844 124.320312 155.652344 124.070312 C 153.371094 123.867188 150.964844 123.738281 149.78125 123.199219 C 149.808594 123.210938 149.835938 123.222656 149.859375 123.234375 C 145.410156 121.472656 142.402344 117.609375 138.304688 115.320312 C 124.378906 109.695312 111.335938 122.632812 97.300781 120.171875 C 97.222656 120.109375 97.113281 120.238281 97.199219 120.300781 C 97.207031 120.3125 97.214844 120.320312 97.226562 120.328125 C 97.226562 120.328125 97.226562 120.328125 97.226562 120.324219 C 101.257812 122.355469 105.71875 124.03125 110.3125 124.011719 C 110.296875 124.011719 110.277344 124.011719 110.253906 124.007812 C 113.527344 124.089844 116.746094 123.574219 119.992188 123.292969 C 119.964844 123.292969 119.9375 123.296875 119.914062 123.296875 C 131.910156 122.5 138.078125 117.261719 149.621094 123.820312 C 143.714844 123.976562 137.695312 123.894531 131.960938 125.496094 C 131.972656 125.496094 131.984375 125.492188 131.992188 125.492188 C 128.300781 126.265625 124.539062 127.132812 121.035156 128.546875 C 121.050781 128.539062 121.0625 128.535156 121.082031 128.527344 C 117.199219 130.367188 112.746094 130.410156 108.550781 129.796875 C 98.953125 128.390625 90.671875 134.050781 85.621094 141.78125 C 82.761719 145.121094 79.714844 148.414062 77.152344 151.890625 Z M 78.457031 175.402344 C 78.277344 174.664062 78.238281 173.898438 78.097656 173.152344 C 78.097656 173.164062 78.105469 173.175781 78.105469 173.183594 C 78.058594 172.941406 78.015625 172.699219 77.960938 172.460938 C 77.960938 172.460938 77.960938 172.460938 77.960938 172.464844 C 76.722656 166.023438 81.140625 159.808594 85.789062 155.777344 C 83.6875 158.523438 81.007812 161.042969 79.914062 164.410156 C 79.914062 164.402344 79.914062 164.402344 79.914062 164.398438 C 79.835938 164.640625 79.757812 164.886719 79.679688 165.128906 C 79.683594 165.121094 79.683594 165.113281 79.6875 165.105469 C 79.222656 166.816406 78.476562 168.476562 78.40625 170.265625 C 78.40625 170.257812 78.40625 170.246094 78.40625 170.238281 C 78.40625 170.257812 78.40625 170.273438 78.398438 170.292969 C 78.398438 170.285156 78.398438 170.277344 78.398438 170.273438 C 78.394531 170.367188 78.386719 170.453125 78.382812 170.546875 C 78.382812 170.527344 78.386719 170.507812 78.386719 170.484375 C 78.363281 170.816406 78.351562 171.148438 78.332031 171.480469 C 78.332031 171.476562 78.332031 171.472656 78.332031 171.464844 C 78.332031 171.484375 78.328125 171.507812 78.328125 171.523438 C 78.328125 171.519531 78.328125 171.515625 78.328125 171.515625 C 78.296875 171.949219 78.308594 172.378906 78.285156 172.816406 C 78.285156 172.808594 78.285156 172.796875 78.289062 172.785156 C 78.289062 172.804688 78.285156 172.824219 78.285156 172.84375 C 78.285156 172.839844 78.285156 172.835938 78.285156 172.832031 C 78.183594 173.695312 78.351562 174.542969 78.457031 175.402344 Z M 84.4375 161.09375 C 82.128906 164.132812 79.378906 167.046875 78.828125 171 C 79.070312 167.949219 80.265625 164.9375 81.664062 162.238281 C 81.644531 162.265625 81.628906 162.292969 81.609375 162.316406 C 83.144531 159.890625 85.164062 157.835938 86.847656 155.523438 C 85.855469 157.300781 85.449219 159.335938 84.4375 161.09375 Z M 96.914062 148.011719 C 96.921875 148.039062 96.925781 148.070312 96.933594 148.097656 C 96.925781 148.0625 96.921875 148.027344 96.910156 147.992188 C 96.910156 147.992188 96.910156 147.992188 96.910156 147.996094 C 96.910156 147.992188 96.910156 147.988281 96.90625 147.976562 C 96.910156 147.992188 96.914062 148.003906 96.914062 148.011719 Z M 96.832031 147.597656 C 98.894531 156.410156 94.835938 161.34375 88.925781 167.101562 C 89.078125 166.691406 89.191406 166.269531 89.347656 165.855469 C 89.339844 165.875 89.335938 165.890625 89.328125 165.910156 C 89.40625 165.710938 89.488281 165.515625 89.5625 165.316406 C 89.558594 165.328125 89.558594 165.335938 89.554688 165.34375 C 90.265625 163.5 90.6875 161.523438 92.070312 160.027344 C 92.066406 160.03125 92.066406 160.035156 92.0625 160.039062 C 95.1875 156.527344 96.148438 152.015625 96.828125 147.519531 C 96.828125 147.542969 96.828125 147.570312 96.832031 147.597656 Z M 91.621094 159.640625 C 89.445312 162.082031 89.441406 165.601562 87.917969 168.34375 C 88.316406 160.234375 94.59375 154.527344 96.292969 146.8125 C 95.535156 151.347656 94.625 155.984375 91.621094 159.640625 Z M 105.410156 152.167969 C 105.40625 152.179688 105.40625 152.183594 105.402344 152.191406 C 106.550781 147.664062 110.175781 144.359375 113.269531 141.066406 C 113.261719 141.074219 113.253906 141.082031 113.242188 141.09375 C 113.582031 140.800781 113.929688 140.519531 114.265625 140.222656 C 114.257812 140.230469 114.246094 140.238281 114.234375 140.25 C 114.246094 140.238281 114.253906 140.230469 114.261719 140.226562 C 112.324219 143.28125 110.597656 146.472656 108.542969 149.449219 C 108.558594 149.425781 108.574219 149.398438 108.589844 149.378906 C 107.390625 151.203125 106.097656 152.949219 104.621094 154.5625 C 104.988281 153.804688 105.152344 152.964844 105.410156 152.167969 Z M 105.9375 154.550781 C 105.933594 154.554688 105.929688 154.558594 105.921875 154.5625 C 105.929688 154.554688 105.933594 154.550781 105.9375 154.550781 C 105.9375 154.546875 105.9375 154.550781 105.9375 154.550781 Z M 116.980469 144.410156 C 114.46875 148.6875 109.949219 151.574219 106.019531 154.484375 C 106.023438 154.480469 106.027344 154.480469 106.027344 154.476562 C 105.476562 154.902344 104.914062 155.3125 104.324219 155.679688 C 109.941406 149.921875 113.15625 142.421875 118.175781 136.207031 C 117.351562 138.878906 118.207031 141.777344 116.980469 144.410156 Z M 134.859375 119.777344 C 134.875 119.773438 134.898438 119.765625 134.914062 119.761719 C 134.195312 119.917969 133.464844 120.035156 132.75 120.222656 C 132.753906 120.222656 132.753906 120.222656 132.757812 120.222656 C 131.605469 120.46875 130.515625 120.964844 129.351562 121.171875 C 129.371094 121.167969 129.390625 121.164062 129.414062 121.152344 C 129.128906 121.21875 128.839844 121.269531 128.558594 121.335938 C 128.5625 121.335938 128.566406 121.335938 128.566406 121.332031 C 128.34375 121.378906 128.125 121.429688 127.902344 121.480469 C 127.925781 121.476562 127.945312 121.472656 127.96875 121.46875 C 127.757812 121.515625 127.542969 121.566406 127.332031 121.613281 C 127.355469 121.609375 127.371094 121.605469 127.394531 121.601562 C 127.277344 121.625 127.167969 121.652344 127.054688 121.679688 C 127.070312 121.675781 127.082031 121.671875 127.101562 121.671875 C 120.109375 122.816406 112.988281 123.851562 105.910156 122.871094 C 105.917969 122.871094 105.921875 122.871094 105.925781 122.875 C 105.90625 122.871094 105.890625 122.867188 105.871094 122.867188 C 105.882812 122.867188 105.890625 122.871094 105.898438 122.871094 C 104.410156 122.515625 102.941406 122.097656 101.472656 121.683594 C 103.824219 122.050781 106.242188 122.117188 108.613281 121.871094 C 108.609375 121.871094 108.605469 121.871094 108.597656 121.871094 C 108.710938 121.855469 108.820312 121.84375 108.929688 121.828125 C 108.925781 121.828125 108.921875 121.828125 108.914062 121.828125 C 109.183594 121.800781 109.453125 121.765625 109.726562 121.726562 C 109.707031 121.734375 109.683594 121.734375 109.660156 121.738281 C 112.027344 121.53125 114.304688 120.84375 116.644531 120.484375 C 116.625 120.488281 116.605469 120.488281 116.585938 120.492188 C 116.613281 120.488281 116.640625 120.488281 116.667969 120.484375 C 116.660156 120.484375 116.652344 120.484375 116.648438 120.488281 C 116.679688 120.484375 116.710938 120.476562 116.742188 120.472656 C 116.734375 120.472656 116.71875 120.476562 116.710938 120.476562 C 116.734375 120.472656 116.753906 120.472656 116.777344 120.46875 C 116.761719 120.46875 116.753906 120.472656 116.742188 120.472656 C 116.753906 120.472656 116.773438 120.46875 116.789062 120.46875 C 116.785156 120.46875 116.785156 120.46875 116.78125 120.46875 C 116.804688 120.464844 116.824219 120.464844 116.847656 120.460938 C 116.820312 120.464844 116.792969 120.46875 116.769531 120.46875 C 122.824219 119.894531 128.90625 120.0625 134.972656 119.761719 C 134.929688 119.757812 134.894531 119.765625 134.859375 119.777344 Z M 129.402344 119.339844 C 122.28125 119.019531 115.3125 120.121094 108.351562 121.410156 C 108.359375 121.410156 108.375 121.40625 108.386719 121.40625 C 108.363281 121.410156 108.34375 121.410156 108.320312 121.414062 C 108.324219 121.414062 108.328125 121.414062 108.339844 121.410156 C 105.585938 121.703125 102.800781 121.515625 100.066406 121.117188 C 105.261719 121.128906 110.40625 120.125 115.1875 118.082031 C 115.164062 118.089844 115.140625 118.101562 115.117188 118.109375 C 116.714844 117.449219 118.402344 117.042969 120.003906 116.394531 C 119.976562 116.402344 119.957031 116.414062 119.929688 116.421875 C 124.625 114.621094 129.890625 114.636719 134.847656 114.894531 C 138.792969 115.484375 141.664062 118.507812 144.464844 121.070312 C 139.746094 118.570312 134.527344 119.109375 129.402344 119.339844 Z M 95.917969 141.382812 C 92.023438 145.613281 86.375 147.46875 81.042969 149.128906 C 87.734375 144.226562 94.386719 139.207031 101.394531 134.761719 C 99.550781 136.949219 97.808594 139.230469 95.917969 141.382812 Z M 107.445312 132.351562 C 106.460938 133.023438 105.289062 133.25 104.136719 133.445312 C 105.363281 132.984375 106.59375 132.539062 107.8125 132.058594 C 107.6875 132.160156 107.5625 132.257812 107.445312 132.351562 Z M 83.054688 145.867188 C 89.175781 138.019531 95.847656 129.246094 107.035156 130.511719 C 107.027344 130.511719 107.019531 130.507812 107.011719 130.507812 C 107.707031 130.65625 108.40625 130.769531 109.09375 130.929688 C 98.117188 133.976562 89.714844 142.46875 80.554688 148.847656 C 81.378906 147.847656 82.308594 146.921875 83.054688 145.867188 Z M 83.054688 145.867188 " fill-opacity="1" fill-rule="nonzero"/><path fill="#ffffff" d="M 210.46875 248.160156 C 210.46875 248.273438 210.445312 248.394531 210.40625 248.503906 C 210.21875 249.015625 209.644531 249.273438 209.132812 249.082031 C 196.753906 244.449219 186.167969 236.28125 178.515625 225.457031 C 170.6875 214.390625 166.554688 201.355469 166.554688 187.765625 C 166.554688 187.222656 166.996094 186.773438 167.546875 186.773438 C 168.09375 186.773438 168.539062 187.214844 168.539062 187.765625 C 168.539062 214.09375 185.132812 237.992188 209.832031 247.234375 C 210.226562 247.382812 210.46875 247.757812 210.46875 248.160156 Z M 210.46875 248.160156 " fill-opacity="1" fill-rule="nonzero"/><path fill="#ffffff" d="M 297.808594 187.765625 C 297.808594 189.324219 297.75 190.894531 297.644531 192.445312 C 297.605469 192.988281 297.132812 193.398438 296.585938 193.359375 C 296.042969 193.320312 295.628906 192.851562 295.671875 192.304688 C 295.777344 190.804688 295.828125 189.273438 295.828125 187.765625 C 295.828125 152.753906 267.277344 124.269531 232.179688 124.269531 C 231.636719 124.269531 231.1875 123.828125 231.1875 123.277344 C 231.1875 122.734375 231.632812 122.289062 232.179688 122.289062 C 268.371094 122.292969 297.808594 151.660156 297.808594 187.765625 Z M 297.808594 187.765625 " fill-opacity="1" fill-rule="nonzero"/><path fill="#ffffff" d="M 298.195312 223.277344 C 298.128906 223.195312 298.039062 223.269531 297.964844 223.296875 C 297.957031 223.300781 297.949219 223.300781 297.945312 223.304688 C 297.949219 223.304688 297.949219 223.300781 297.953125 223.300781 C 297.914062 223.316406 297.878906 223.332031 297.84375 223.351562 C 297.851562 223.347656 297.855469 223.347656 297.867188 223.34375 C 292.203125 226.828125 285.125 227.539062 280.015625 232.136719 C 280.019531 232.132812 280.019531 232.132812 280.023438 232.125 C 279.996094 232.148438 279.976562 232.171875 279.949219 232.191406 C 279.953125 232.1875 279.960938 232.183594 279.964844 232.179688 C 276.859375 234.9375 275.046875 239.125 271.382812 241.214844 C 271.382812 241.214844 271.386719 241.214844 271.386719 241.210938 C 269.097656 241.640625 267.148438 242.609375 265.089844 243.632812 C 263.03125 244.246094 260.875 244.210938 258.777344 244.542969 C 269.832031 239.542969 280.269531 232.378906 287.410156 222.46875 C 287.402344 222.476562 287.394531 222.488281 287.386719 222.5 C 292.855469 217.335938 300.164062 210.285156 297.949219 201.964844 C 297.949219 201.96875 297.949219 201.972656 297.953125 201.976562 C 297.867188 201.523438 297.804688 201.058594 297.722656 200.601562 C 297.730469 200.617188 297.730469 200.628906 297.734375 200.648438 C 297.652344 200.054688 297.46875 199.480469 297.351562 198.898438 C 297.351562 198.90625 297.355469 198.914062 297.355469 198.921875 C 297.339844 198.832031 297.320312 198.746094 297.304688 198.65625 C 297.308594 198.675781 297.308594 198.6875 297.3125 198.703125 C 297.253906 198.5 297.28125 198.292969 297.269531 198.085938 C 297.269531 198.09375 297.269531 198.109375 297.269531 198.117188 C 297.269531 198.046875 297.257812 197.976562 297.257812 197.902344 C 297.257812 197.910156 297.257812 197.917969 297.257812 197.933594 C 297.210938 197.417969 297.863281 195.667969 296.976562 197.15625 C 296.980469 197.148438 296.980469 197.144531 296.984375 197.140625 C 296.96875 197.171875 296.949219 197.199219 296.9375 197.230469 C 296.9375 197.230469 296.9375 197.226562 296.941406 197.226562 C 296.902344 197.296875 296.867188 197.363281 296.828125 197.433594 C 296.828125 197.433594 296.828125 197.429688 296.835938 197.429688 C 296.011719 201.019531 296.5625 204.945312 294.503906 208.28125 C 292.773438 211.328125 289.847656 213.621094 289.089844 217.1875 C 289.089844 217.1875 289.089844 217.183594 289.089844 217.183594 C 286.984375 222.59375 283.113281 226.886719 278.824219 230.703125 C 280.226562 226.714844 281.226562 222.566406 283.6875 219.03125 C 286.570312 215.21875 287.566406 210.878906 288.1875 206.238281 C 288.171875 205.941406 288.445312 203.703125 287.90625 204.445312 C 284.828125 211.234375 277.703125 212.480469 277.332031 221.523438 C 277.332031 221.542969 277.328125 221.570312 277.328125 221.59375 C 277.328125 221.59375 277.328125 221.589844 277.328125 221.589844 C 277.328125 221.601562 277.328125 221.609375 277.324219 221.625 C 277.324219 221.609375 277.324219 221.597656 277.328125 221.585938 C 277.09375 224.535156 277.832031 227.414062 277.695312 230.351562 C 277.699219 230.316406 277.699219 230.28125 277.703125 230.246094 C 277.695312 230.40625 277.6875 230.566406 277.675781 230.726562 C 277.675781 230.714844 277.675781 230.699219 277.679688 230.6875 C 277.675781 230.722656 277.675781 230.757812 277.671875 230.789062 C 277.671875 230.769531 277.671875 230.753906 277.675781 230.734375 C 274.570312 237.4375 255.195312 245.773438 247.761719 247.722656 C 254.855469 244.9375 257.269531 238.964844 262.613281 234.433594 C 262.609375 234.4375 262.605469 234.441406 262.601562 234.445312 C 262.621094 234.429688 262.640625 234.410156 262.660156 234.394531 C 262.65625 234.398438 262.652344 234.398438 262.652344 234.402344 C 262.675781 234.375 262.707031 234.351562 262.734375 234.328125 C 262.722656 234.335938 262.710938 234.347656 262.699219 234.359375 C 264.992188 231.945312 267.308594 229.433594 269.195312 226.691406 C 270.472656 224.257812 270.726562 221.402344 272.210938 219.0625 C 272.203125 219.066406 272.199219 219.074219 272.195312 219.078125 C 274.046875 216.015625 272.910156 217.488281 271.253906 218.796875 C 269.070312 220.277344 266.742188 221.574219 264.667969 223.214844 C 264.667969 223.214844 264.667969 223.214844 264.671875 223.214844 C 264.660156 223.222656 264.648438 223.230469 264.636719 223.246094 C 264.644531 223.246094 264.644531 223.242188 264.648438 223.242188 C 252.558594 232.242188 259.78125 232.878906 254.808594 241.644531 C 254.808594 241.644531 254.8125 241.640625 254.8125 241.640625 C 254.777344 241.6875 254.742188 241.738281 254.703125 241.785156 C 254.710938 241.773438 254.722656 241.761719 254.730469 241.75 C 254.707031 241.78125 254.6875 241.808594 254.664062 241.839844 C 254.667969 241.835938 254.671875 241.832031 254.671875 241.828125 C 254.230469 242.277344 253.765625 242.707031 253.285156 243.125 C 253.308594 243.105469 253.332031 243.085938 253.351562 243.066406 C 253.316406 243.097656 253.28125 243.128906 253.246094 243.160156 C 253.253906 243.152344 253.265625 243.148438 253.273438 243.136719 C 253.25 243.15625 253.230469 243.171875 253.210938 243.191406 C 253.214844 243.191406 253.214844 243.1875 253.21875 243.1875 C 250.773438 245.398438 247.738281 246.738281 244.78125 248.125 C 244.792969 248.121094 244.808594 248.113281 244.816406 248.105469 C 242.171875 249.386719 239.089844 249.605469 236.191406 249.957031 C 236.195312 249.957031 236.207031 249.957031 236.210938 249.957031 C 236.179688 249.957031 236.152344 249.960938 236.121094 249.964844 C 236.144531 249.964844 236.164062 249.960938 236.1875 249.960938 C 233.617188 250.25 231.03125 250.363281 228.449219 250.371094 C 226.699219 250.378906 224.953125 250.332031 223.207031 250.257812 C 220.859375 250.15625 218.519531 250 216.1875 249.84375 C 215.050781 249.761719 213.917969 249.683594 212.789062 249.605469 C 212.582031 249.753906 212.496094 250.355469 212.820312 250.417969 C 212.996094 250.449219 213.53125 250.5 213.527344 250.5 C 214.191406 250.582031 216.875 250.84375 219.6875 251.097656 C 221.972656 251.300781 224.375 251.429688 225.558594 251.96875 C 225.53125 251.953125 225.503906 251.945312 225.484375 251.933594 C 229.933594 253.695312 232.9375 257.558594 237.039062 259.847656 C 250.960938 265.46875 264.003906 252.53125 278.039062 254.992188 C 278.121094 255.058594 278.226562 254.925781 278.140625 254.863281 C 278.132812 254.855469 278.125 254.847656 278.117188 254.839844 C 278.117188 254.839844 278.117188 254.839844 278.117188 254.84375 C 274.082031 252.8125 269.625 251.136719 265.027344 251.15625 C 265.046875 251.15625 265.0625 251.15625 265.085938 251.160156 C 261.8125 251.074219 258.59375 251.59375 255.351562 251.875 C 255.375 251.875 255.402344 251.871094 255.425781 251.871094 C 243.429688 252.664062 237.265625 257.902344 225.722656 251.34375 C 231.628906 251.191406 237.644531 251.273438 243.378906 249.671875 C 243.371094 249.671875 243.355469 249.675781 243.347656 249.675781 C 247.039062 248.902344 250.804688 248.03125 254.304688 246.617188 C 254.292969 246.628906 254.277344 246.632812 254.261719 246.640625 C 258.144531 244.800781 262.59375 244.753906 266.789062 245.367188 C 276.386719 246.777344 284.667969 241.113281 289.71875 233.386719 C 292.585938 230.046875 295.628906 226.75 298.195312 223.277344 Z M 296.886719 199.765625 C 297.070312 200.503906 297.109375 201.265625 297.246094 202.011719 C 297.246094 202.003906 297.242188 201.992188 297.242188 201.980469 C 297.285156 202.226562 297.332031 202.46875 297.382812 202.707031 C 297.382812 202.707031 297.382812 202.707031 297.382812 202.703125 C 298.621094 209.140625 294.203125 215.355469 289.554688 219.390625 C 291.660156 216.640625 294.335938 214.125 295.429688 210.757812 C 295.429688 210.761719 295.429688 210.761719 295.429688 210.765625 C 295.511719 210.523438 295.585938 210.28125 295.664062 210.039062 C 295.660156 210.046875 295.660156 210.050781 295.65625 210.058594 C 296.121094 208.351562 296.871094 206.691406 296.941406 204.902344 C 296.941406 204.910156 296.941406 204.917969 296.941406 204.929688 C 296.941406 204.910156 296.941406 204.894531 296.945312 204.875 C 296.945312 204.878906 296.945312 204.886719 296.945312 204.894531 C 296.949219 204.800781 296.957031 204.710938 296.960938 204.617188 C 296.960938 204.640625 296.957031 204.660156 296.957031 204.679688 C 296.980469 204.347656 296.992188 204.019531 297.011719 203.6875 C 297.011719 203.691406 297.011719 203.695312 297.011719 203.699219 C 297.011719 203.683594 297.015625 203.660156 297.015625 203.644531 C 297.015625 203.648438 297.015625 203.652344 297.015625 203.652344 C 297.046875 203.21875 297.039062 202.785156 297.058594 202.351562 C 297.058594 202.363281 297.058594 202.375 297.054688 202.382812 C 297.054688 202.367188 297.058594 202.347656 297.058594 202.328125 C 297.058594 202.332031 297.058594 202.335938 297.058594 202.339844 C 297.160156 201.46875 296.992188 200.621094 296.886719 199.765625 Z M 290.90625 214.070312 C 293.21875 211.03125 295.964844 208.121094 296.515625 204.167969 C 296.277344 207.214844 295.082031 210.226562 293.683594 212.925781 C 293.699219 212.902344 293.71875 212.875 293.734375 212.851562 C 292.199219 215.277344 290.179688 217.332031 288.496094 219.644531 C 289.488281 217.863281 289.898438 215.828125 290.90625 214.070312 Z M 278.429688 227.152344 C 278.425781 227.128906 278.421875 227.097656 278.410156 227.070312 C 278.421875 227.105469 278.425781 227.140625 278.433594 227.175781 C 278.433594 227.175781 278.433594 227.175781 278.433594 227.171875 C 278.433594 227.175781 278.433594 227.179688 278.4375 227.1875 C 278.433594 227.175781 278.429688 227.164062 278.429688 227.152344 Z M 278.515625 227.570312 C 276.449219 218.757812 280.511719 213.824219 286.421875 208.0625 C 286.265625 208.476562 286.15625 208.898438 285.996094 209.308594 C 286.003906 209.292969 286.007812 209.273438 286.019531 209.257812 C 285.9375 209.457031 285.859375 209.648438 285.785156 209.847656 C 285.789062 209.839844 285.789062 209.832031 285.792969 209.820312 C 285.078125 211.667969 284.660156 213.640625 283.273438 215.140625 C 283.277344 215.136719 283.277344 215.132812 283.28125 215.125 C 280.15625 218.636719 279.195312 223.152344 278.519531 227.648438 C 278.519531 227.621094 278.519531 227.59375 278.515625 227.570312 Z M 283.726562 215.523438 C 285.898438 213.085938 285.902344 209.566406 287.425781 206.824219 C 287.027344 214.933594 280.75 220.640625 279.054688 228.355469 C 279.8125 223.820312 280.71875 219.179688 283.726562 215.523438 Z M 269.933594 222.996094 C 269.9375 222.988281 269.9375 222.984375 269.941406 222.976562 C 268.796875 227.503906 265.167969 230.804688 262.074219 234.101562 C 262.082031 234.09375 262.09375 234.082031 262.101562 234.074219 C 261.765625 234.367188 261.414062 234.648438 261.078125 234.945312 C 261.085938 234.9375 261.101562 234.925781 261.109375 234.917969 C 261.101562 234.925781 261.09375 234.9375 261.082031 234.941406 C 263.023438 231.882812 264.75 228.695312 266.804688 225.71875 C 266.785156 225.738281 266.773438 225.765625 266.753906 225.789062 C 267.953125 223.964844 269.246094 222.214844 270.726562 220.601562 C 270.359375 221.363281 270.195312 222.203125 269.933594 222.996094 Z M 269.40625 220.617188 C 269.410156 220.613281 269.414062 220.609375 269.425781 220.601562 C 269.414062 220.613281 269.410156 220.617188 269.40625 220.617188 C 269.40625 220.621094 269.40625 220.617188 269.40625 220.617188 Z M 258.363281 230.757812 C 260.875 226.476562 265.394531 223.59375 269.328125 220.683594 C 269.324219 220.6875 269.316406 220.6875 269.316406 220.691406 C 269.867188 220.261719 270.429688 219.851562 271.023438 219.484375 C 265.40625 225.246094 262.191406 232.746094 257.167969 238.960938 C 257.992188 236.289062 257.136719 233.390625 258.363281 230.757812 Z M 240.488281 255.390625 C 240.46875 255.394531 240.445312 255.398438 240.429688 255.402344 C 241.152344 255.25 241.882812 255.128906 242.59375 254.945312 C 242.589844 254.945312 242.589844 254.945312 242.585938 254.945312 C 243.742188 254.695312 244.832031 254.203125 245.996094 253.996094 C 245.972656 254 245.953125 254.003906 245.933594 254.011719 C 246.214844 253.945312 246.503906 253.898438 246.789062 253.832031 C 246.78125 253.832031 246.777344 253.832031 246.777344 253.835938 C 247 253.785156 247.222656 253.738281 247.441406 253.683594 C 247.421875 253.691406 247.398438 253.695312 247.375 253.699219 C 247.589844 253.648438 247.800781 253.601562 248.011719 253.554688 C 247.992188 253.558594 247.972656 253.5625 247.953125 253.566406 C 248.066406 253.539062 248.175781 253.511719 248.292969 253.488281 C 248.273438 253.492188 248.261719 253.496094 248.242188 253.496094 C 255.234375 252.351562 262.359375 251.3125 269.433594 252.292969 C 269.429688 252.292969 269.425781 252.292969 269.421875 252.289062 C 269.4375 252.292969 269.457031 252.296875 269.472656 252.296875 C 269.464844 252.296875 269.457031 252.292969 269.445312 252.292969 C 270.933594 252.652344 272.402344 253.066406 273.875 253.480469 C 271.523438 253.117188 269.101562 253.050781 266.734375 253.296875 C 266.738281 253.296875 266.742188 253.296875 266.746094 253.296875 C 266.636719 253.308594 266.523438 253.324219 266.414062 253.335938 C 266.417969 253.335938 266.421875 253.335938 266.429688 253.335938 C 266.160156 253.367188 265.890625 253.402344 265.617188 253.4375 C 265.640625 253.433594 265.660156 253.433594 265.683594 253.429688 C 263.320312 253.636719 261.039062 254.320312 258.703125 254.683594 C 258.71875 254.679688 258.742188 254.679688 258.757812 254.675781 C 258.730469 254.679688 258.707031 254.679688 258.679688 254.683594 C 258.683594 254.683594 258.691406 254.683594 258.695312 254.679688 C 258.664062 254.683594 258.636719 254.6875 258.605469 254.691406 C 258.613281 254.691406 258.625 254.6875 258.636719 254.6875 C 258.613281 254.691406 258.589844 254.691406 258.570312 254.695312 C 258.582031 254.695312 258.589844 254.691406 258.605469 254.691406 C 258.589844 254.691406 258.574219 254.695312 258.554688 254.695312 C 258.558594 254.695312 258.558594 254.695312 258.5625 254.695312 C 258.542969 254.703125 258.519531 254.703125 258.496094 254.707031 C 258.523438 254.703125 258.550781 254.695312 258.578125 254.695312 C 252.519531 255.269531 246.4375 255.101562 240.371094 255.402344 C 240.417969 255.40625 240.453125 255.398438 240.488281 255.390625 Z M 245.941406 255.828125 C 253.066406 256.144531 260.035156 255.046875 266.992188 253.757812 C 266.984375 253.757812 266.972656 253.761719 266.957031 253.761719 C 266.980469 253.757812 267.003906 253.757812 267.023438 253.75 C 267.019531 253.75 267.015625 253.75 267.007812 253.75 C 269.761719 253.460938 272.546875 253.644531 275.277344 254.042969 C 270.085938 254.035156 264.9375 255.035156 260.15625 257.082031 C 260.179688 257.074219 260.207031 257.058594 260.230469 257.050781 C 258.628906 257.714844 256.945312 258.121094 255.339844 258.769531 C 255.367188 258.761719 255.390625 258.746094 255.417969 258.738281 C 250.71875 260.539062 245.453125 260.527344 240.496094 260.265625 C 236.550781 259.679688 233.683594 256.652344 230.878906 254.09375 C 235.597656 256.597656 240.820312 256.058594 245.941406 255.828125 Z M 279.425781 233.785156 C 283.320312 229.550781 288.972656 227.695312 294.300781 226.035156 C 287.613281 230.9375 280.957031 235.960938 273.949219 240.402344 C 275.796875 238.21875 277.535156 235.933594 279.425781 233.785156 Z M 267.902344 242.816406 C 268.882812 242.144531 270.058594 241.914062 271.207031 241.71875 C 269.980469 242.183594 268.75 242.625 267.535156 243.105469 C 267.65625 243.003906 267.78125 242.910156 267.902344 242.816406 Z M 292.292969 229.300781 C 286.167969 237.148438 279.496094 245.921875 268.308594 244.652344 C 268.316406 244.652344 268.328125 244.65625 268.335938 244.65625 C 267.640625 244.511719 266.941406 244.398438 266.25 244.238281 C 277.230469 241.191406 285.628906 232.695312 294.789062 226.320312 C 293.964844 227.316406 293.035156 228.246094 292.292969 229.300781 Z M 292.292969 229.300781 " fill-opacity="1" fill-rule="nonzero"/><path fill="#ffffff" d="M 155.703125 247.597656 C 156.03125 247.597656 156.34375 247.660156 156.644531 247.785156 C 156.949219 247.910156 157.214844 248.089844 157.445312 248.320312 C 157.675781 248.550781 157.855469 248.816406 157.980469 249.117188 C 158.105469 249.417969 158.167969 249.734375 158.167969 250.058594 C 158.167969 250.386719 158.105469 250.699219 157.980469 251 C 157.855469 251.300781 157.675781 251.566406 157.445312 251.800781 C 157.214844 252.03125 156.949219 252.207031 156.644531 252.332031 C 156.34375 252.457031 156.03125 252.519531 155.703125 252.519531 C 155.375 252.519531 155.0625 252.457031 154.757812 252.332031 C 154.457031 252.207031 154.191406 252.03125 153.957031 251.800781 C 153.726562 251.566406 153.550781 251.300781 153.425781 251 C 153.300781 250.699219 153.238281 250.386719 153.238281 250.058594 C 153.238281 249.734375 153.300781 249.417969 153.425781 249.117188 C 153.550781 248.816406 153.726562 248.550781 153.957031 248.320312 C 154.191406 248.089844 154.457031 247.910156 154.757812 247.785156 C 155.0625 247.660156 155.375 247.597656 155.703125 247.597656 Z M 155.703125 247.597656 " fill-opacity="1" fill-rule="nonzero"/><path fill="#ffffff" d="M 218.652344 122.089844 C 218.976562 122.089844 219.292969 122.152344 219.59375 122.277344 C 219.898438 122.402344 220.164062 122.582031 220.394531 122.8125 C 220.625 123.042969 220.804688 123.308594 220.929688 123.609375 C 221.054688 123.910156 221.117188 124.222656 221.117188 124.550781 C 221.117188 124.878906 221.054688 125.191406 220.929688 125.492188 C 220.804688 125.792969 220.625 126.058594 220.394531 126.289062 C 220.164062 126.519531 219.898438 126.699219 219.59375 126.824219 C 219.292969 126.949219 218.976562 127.011719 218.652344 127.011719 C 218.324219 127.011719 218.007812 126.949219 217.707031 126.824219 C 217.40625 126.699219 217.136719 126.519531 216.90625 126.289062 C 216.675781 126.058594 216.496094 125.792969 216.371094 125.492188 C 216.246094 125.191406 216.183594 124.878906 216.183594 124.550781 C 216.183594 124.222656 216.246094 123.910156 216.371094 123.609375 C 216.496094 123.308594 216.675781 123.042969 216.90625 122.8125 C 217.136719 122.582031 217.40625 122.402344 217.707031 122.277344 C 218.007812 122.152344 218.324219 122.089844 218.652344 122.089844 Z M 218.652344 122.089844 " fill-opacity="1" fill-rule="nonzero"/><g fill="#ffffff" fill-opacity="1"><g transform="translate(115.789852, 209.249986)"><g><path d="M 42.957031 -4.242188 C 42.957031 -4.242188 37.882812 0.152344 29.09375 0.152344 C 20.609375 0.152344 8.5625 -3.636719 8.5625 -23.5625 C 8.5625 -43.1875 21.746094 -47.203125 29.09375 -47.203125 C 38.035156 -47.203125 42.957031 -43.640625 42.957031 -43.640625 L 42.957031 -45.308594 C 42.957031 -45.308594 37.730469 -48.414062 29.09375 -48.414062 C 15.457031 -48.414062 3.03125 -41.140625 3.03125 -23.5625 C 3.03125 -3.332031 18.867188 1.441406 28.410156 1.441406 C 37.882812 1.441406 42.957031 -2.574219 42.957031 -2.574219 Z M 42.957031 -4.242188 "/></g></g></g><g fill="#ffffff" fill-opacity="1"><g transform="translate(215.316875, 209.249986)"><g><path d="M 42.957031 -4.242188 C 42.957031 -4.242188 37.882812 0.152344 29.09375 0.152344 C 20.609375 0.152344 8.5625 -3.636719 8.5625 -23.5625 C 8.5625 -43.1875 21.746094 -47.203125 29.09375 -47.203125 C 38.035156 -47.203125 42.957031 -43.640625 42.957031 -43.640625 L 42.957031 -45.308594 C 42.957031 -45.308594 37.730469 -48.414062 29.09375 -48.414062 C 15.457031 -48.414062 3.03125 -41.140625 3.03125 -23.5625 C 3.03125 -3.332031 18.867188 1.441406 28.410156 1.441406 C 37.882812 1.441406 42.957031 -2.574219 42.957031 -2.574219 Z M 42.957031 -4.242188 "/></g></g></g></svg>