<svg xmlns="http://www.w3.org/2000/svg" xmlns:xlink="http://www.w3.org/1999/xlink" width="500" zoomAndPan="magnify" viewBox="0 0 375 374.999991" height="500" preserveAspectRatio="xMidYMid meet" version="1.0"><defs><g/><clipPath id="1cb11adc36"><path d="M 264.71875 152.738281 L 292.9375 152.738281 L 292.9375 188.183594 L 264.71875 188.183594 Z M 264.71875 152.738281 " clip-rule="nonzero"/></clipPath></defs><rect x="-37.5" width="450" fill="#ffffff" y="-37.499999" height="449.999989" fill-opacity="1"/><rect x="-37.5" width="450" fill="#ffffff" y="-37.499999" height="449.999989" fill-opacity="1"/><rect x="-37.5" width="450" fill="#fff7fc" y="-37.499999" height="449.999989" fill-opacity="1"/><g clip-path="url(#1cb11adc36)"><path fill="#443333" d="M 264.453125 157.070312 C 264.566406 156.804688 265.011719 156.6875 265.425781 156.882812 L 265.429688 156.878906 C 269.214844 158.695312 270.472656 162.546875 271.800781 166.628906 C 272.949219 170.15625 274.132812 173.773438 277.054688 176.1875 C 277.066406 176.175781 277.082031 176.167969 277.097656 176.15625 C 273.359375 172.894531 272.921875 168.328125 272.5 163.898438 C 272.175781 160.476562 271.863281 157.210938 270.023438 154.785156 C 269.734375 154.398438 269.300781 154.132812 268.820312 154.078125 C 268.667969 154.058594 268.511719 154.023438 268.367188 153.960938 C 267.90625 153.757812 267.761719 153.238281 267.9375 152.988281 C 268.09375 152.761719 268.519531 152.726562 268.875 152.957031 L 268.875 152.953125 C 268.882812 152.960938 268.886719 152.964844 268.894531 152.96875 C 268.929688 152.992188 268.964844 153.015625 269 153.046875 C 269.035156 153.078125 269.066406 153.105469 269.097656 153.136719 C 272.191406 155.734375 272.570312 159.679688 272.96875 163.855469 C 273.386719 168.242188 273.816406 172.761719 277.539062 175.921875 C 277.71875 175.851562 277.898438 175.796875 278.074219 175.765625 C 279.714844 175.460938 282.542969 183.859375 292.777344 187.734375 C 293.027344 187.828125 292.949219 188.199219 292.683594 188.183594 C 289.0625 187.980469 284.886719 187.175781 282.542969 183.859375 C 282.273438 183.480469 281.878906 183.199219 281.421875 183.105469 C 278.617188 182.519531 277.664062 180.820312 278.367188 179.351562 C 278.164062 179.433594 277.945312 179.480469 277.710938 179.46875 C 276.851562 179.4375 276.1875 178.484375 276.21875 177.625 C 276.234375 177.167969 276.417969 176.792969 276.6875 176.5 C 273.71875 174.015625 272.519531 170.351562 271.355469 166.773438 C 270.289062 163.496094 269.265625 160.375 266.929688 158.40625 C 266.546875 158.085938 266.050781 157.917969 265.554688 157.964844 C 265.398438 157.980469 265.226562 157.972656 265.066406 157.9375 C 264.574219 157.832031 264.332031 157.351562 264.453125 157.070312 " fill-opacity="1" fill-rule="nonzero"/></g><path fill="#ff66c4" d="M 287.457031 184.347656 C 283.28125 182.296875 281.746094 179.855469 280.835938 178.761719 C 282.296875 177.277344 288.253906 173.832031 292.132812 170.117188 C 296.875 165.648438 312.566406 167.890625 311.890625 177.597656 C 311.019531 190.113281 289.652344 185.425781 287.457031 184.347656 " fill-opacity="1" fill-rule="nonzero"/><path fill="#000000" d="M 307.0625 183.65625 C 305.488281 182.941406 303.917969 182.753906 302.386719 182.574219 C 301.582031 182.480469 300.808594 182.386719 300.054688 182.222656 C 299.84375 183.597656 299.238281 184.585938 298.351562 185.246094 C 301.449219 185.238281 304.640625 184.835938 307.0625 183.65625 Z M 310.964844 179.296875 C 308.828125 178.824219 306.632812 179.089844 304.3125 179.375 C 302.914062 179.546875 301.476562 179.722656 300.03125 179.726562 C 300.039062 179.78125 300.046875 179.835938 300.054688 179.890625 C 300.085938 180.128906 300.105469 180.359375 300.117188 180.582031 C 300.144531 181.007812 300.464844 181.359375 300.886719 181.429688 C 301.40625 181.519531 301.945312 181.582031 302.5 181.648438 C 304.210938 181.851562 306.132812 182.078125 308.050781 183.109375 C 309.542969 182.152344 310.503906 180.890625 310.964844 179.296875 Z M 311.164062 178.386719 C 311.203125 178.136719 311.238281 177.886719 311.257812 177.625 C 311.261719 177.523438 311.269531 177.425781 311.273438 177.328125 C 311.3125 176.269531 311.128906 175.351562 310.800781 174.558594 C 310.414062 173.621094 309.390625 173.101562 308.402344 173.332031 C 306.269531 173.828125 304.382812 174.820312 302.675781 175.722656 C 301.398438 176.394531 300.179688 177.035156 298.96875 177.425781 C 299.089844 177.558594 299.207031 177.699219 299.3125 177.851562 C 299.730469 178.449219 300.421875 178.796875 301.152344 178.753906 C 302.175781 178.695312 303.195312 178.570312 304.199219 178.449219 C 306.496094 178.167969 308.867188 177.878906 311.164062 178.386719 Z M 306.609375 170.609375 C 306.105469 170.382812 305.566406 170.171875 305.003906 169.984375 C 303.582031 169.503906 302.011719 169.71875 300.789062 170.585938 C 299.445312 171.539062 298.300781 172.742188 297.242188 173.847656 C 296.546875 174.582031 295.871094 175.285156 295.191406 175.859375 C 295.925781 175.933594 296.613281 176.078125 297.222656 176.308594 C 297.910156 176.566406 298.675781 176.5625 299.359375 176.289062 C 300.285156 175.921875 301.246094 175.417969 302.238281 174.894531 C 304.246094 173.835938 306.464844 172.476562 309.140625 172.234375 C 308.355469 171.519531 307.453125 170.992188 306.609375 170.609375 Z M 292.445312 170.386719 C 289.160156 173.53125 284.074219 177.214844 281.707031 178.796875 C 284.046875 177.761719 288.753906 176.113281 292.820312 175.839844 C 293.472656 175.796875 294.09375 175.566406 294.589844 175.148438 C 295.230469 174.605469 295.886719 173.917969 296.566406 173.207031 C 297.9375 171.761719 299.460938 170.171875 301.390625 169.101562 C 297.804688 168.53125 294.125 168.804688 292.445312 170.386719 Z M 287.859375 183.804688 C 290.191406 184.703125 291.613281 184.851562 295.234375 185.125 C 297.835938 185.222656 298.886719 183.125 298.953125 181.261719 C 298.96875 180.882812 298.949219 180.46875 298.894531 180.035156 C 298.738281 178.785156 298.152344 177.96875 297.046875 177.46875 C 293.429688 175.824219 285.628906 178.328125 282.570312 179.753906 C 283.746094 180.996094 285.480469 182.894531 287.859375 183.804688 Z M 295.070312 186.300781 C 293.269531 186.277344 289.398438 185.839844 287.34375 184.855469 C 283.148438 182.839844 280.882812 179.636719 279.972656 178.542969 C 281.351562 177.648438 287.761719 173.25 291.640625 169.535156 C 296.382812 165.070312 313.160156 167.535156 312.421875 177.707031 C 311.832031 185.878906 302.257812 186.882812 295.070312 186.300781 " fill-opacity="1" fill-rule="nonzero"/><path fill="#ff66c4" d="M 280.664062 179.347656 C 277.738281 176.699219 268.535156 157.832031 278.269531 144.8125 C 280.984375 141.179688 286.234375 140.613281 289.714844 143.523438 C 298.679688 151.007812 298.609375 162.449219 294.574219 168 C 291.210938 172.625 280.664062 179.347656 280.664062 179.347656 " fill-opacity="1" fill-rule="nonzero"/><path fill="#000000" d="M 293.628906 167.3125 C 294.867188 165.609375 295.667969 163.335938 295.925781 160.828125 C 294.332031 162.8125 291.894531 164.171875 289.679688 165.402344 C 288.902344 165.835938 288.140625 166.257812 287.449219 166.6875 C 286.160156 167.492188 285.179688 168.703125 284.632812 170.117188 C 283.238281 173.726562 281.519531 176.800781 280.871094 177.816406 C 283.40625 176.136719 290.972656 170.964844 293.628906 167.3125 Z M 295.964844 157.597656 C 295.890625 156.671875 295.746094 155.753906 295.535156 154.855469 C 294.585938 156.4375 292.714844 157.8125 290.890625 159.15625 C 289.605469 160.105469 288.292969 161.070312 287.371094 162.070312 C 286.847656 162.636719 286.511719 163.34375 286.378906 164.105469 C 286.300781 164.5625 286.207031 165.027344 286.097656 165.492188 C 286 165.898438 286.449219 166.214844 286.804688 165.988281 C 287.554688 165.511719 288.378906 165.054688 289.222656 164.585938 C 291.382812 163.386719 293.59375 162.15625 295.058594 160.421875 C 295.71875 159.636719 296.042969 158.621094 295.964844 157.597656 Z M 293.78125 150.261719 C 293 151.378906 291.425781 152.640625 289.777344 153.957031 C 288.171875 155.238281 286.171875 156.835938 286.0625 157.605469 C 286.0625 157.605469 286.011719 157.820312 286.066406 157.945312 C 286.28125 158.46875 286.429688 159.027344 286.523438 159.621094 C 286.636719 160.328125 287.492188 160.625 288.046875 160.164062 C 288.765625 159.5625 289.554688 158.980469 290.335938 158.40625 C 291.972656 157.199219 293.652344 155.964844 294.554688 154.648438 C 294.984375 154.019531 295.085938 153.222656 294.816406 152.515625 C 294.519531 151.746094 294.175781 150.992188 293.78125 150.261719 Z M 290.539062 145.875 C 289.847656 147.433594 288.238281 149.148438 286.671875 150.820312 C 285.648438 151.914062 284.601562 153.03125 283.980469 153.960938 C 283.714844 154.355469 283.796875 154.878906 284.15625 155.1875 C 284.371094 155.371094 284.578125 155.578125 284.777344 155.804688 C 285.132812 156.21875 285.769531 156.242188 286.148438 155.847656 C 286.902344 155.058594 288 154.179688 289.191406 153.226562 C 290.523438 152.160156 292.097656 150.90625 292.871094 149.925781 C 293.121094 149.605469 293.140625 149.160156 292.914062 148.820312 C 292.226562 147.78125 291.433594 146.792969 290.539062 145.875 Z M 289.402344 146.039062 C 289.683594 145.554688 289.578125 144.9375 289.148438 144.574219 C 289.089844 144.519531 289.027344 144.46875 288.964844 144.417969 C 288.1875 143.769531 287.300781 143.3125 286.359375 143.0625 C 285.652344 144.152344 284.953125 145.121094 284.273438 146.058594 C 282.664062 148.289062 281.320312 150.144531 280.65625 152.554688 C 280.46875 153.234375 280.933594 153.90625 281.625 154.011719 C 281.726562 154.027344 281.824219 154.046875 281.921875 154.066406 C 282.390625 154.167969 282.871094 153.953125 283.128906 153.546875 C 283.789062 152.53125 284.867188 151.378906 285.988281 150.183594 C 287.257812 148.828125 288.652344 147.339844 289.402344 146.039062 Z M 283.800781 142.878906 C 281.945312 143.097656 280.316406 144.03125 279.210938 145.511719 C 276.65625 148.921875 275.277344 153.046875 275.101562 157.765625 C 275.769531 156.332031 276.945312 155.195312 278.300781 154.546875 C 278.96875 154.230469 279.445312 153.632812 279.605469 152.914062 C 280.253906 150.027344 281.78125 147.90625 283.515625 145.511719 C 284.046875 144.777344 284.589844 144.019531 285.136719 143.207031 C 285.238281 143.058594 285.136719 142.851562 284.953125 142.84375 C 284.574219 142.824219 284.1875 142.835938 283.800781 142.878906 Z M 276.164062 158.257812 C 276.164062 158.257812 276.132812 158.3125 276.078125 158.402344 C 275.421875 159.519531 275.128906 160.816406 275.269531 162.105469 C 275.972656 168.53125 278.53125 174.183594 280.261719 176.925781 C 281.933594 173.824219 285.292969 166.460938 285.464844 161.726562 C 285.515625 160.410156 285.351562 159.285156 284.984375 158.390625 C 284.128906 156.320312 282.691406 155.160156 280.929688 155.121094 C 279.003906 155.078125 277.042969 156.367188 276.164062 158.257812 Z M 278.269531 144.8125 C 280.984375 141.179688 286.234375 140.613281 289.714844 143.523438 C 298.679688 151.007812 298.609375 162.449219 294.574219 168 C 291.210938 172.625 280.664062 179.347656 280.664062 179.347656 C 277.738281 176.699219 268.535156 157.832031 278.269531 144.8125 " fill-opacity="1" fill-rule="nonzero"/><g fill="#443333" fill-opacity="1"><g transform="translate(96.992552, 197.174063)"><g><path d="M 21.726562 -5.070312 C 21.9375 -5.386719 21.859375 -5.808594 21.542969 -6.046875 C 21.226562 -6.257812 20.777344 -6.175781 20.566406 -5.859375 C 20.378906 -5.570312 15.789062 1.003906 8.710938 -1.609375 C 1.925781 -4.117188 1.585938 -9.371094 2.480469 -13.359375 C 4.433594 -21.964844 13.332031 -30.519531 18.109375 -30.097656 C 18.980469 -30.042969 19.851562 -29.777344 20.59375 -29.304688 C 20.882812 -29.039062 21.066406 -28.671875 21.015625 -28.300781 C 20.988281 -27.90625 20.75 -27.5625 20.40625 -27.402344 C 17.582031 -25.898438 15.179688 -23.65625 13.515625 -20.933594 C 12.621094 -19.351562 12.433594 -18.085938 12.960938 -17.210938 C 13.386719 -16.605469 14.097656 -16.261719 14.863281 -16.339844 C 18.347656 -16.421875 22.863281 -22.148438 23.179688 -26.53125 C 23.152344 -26.875 23.363281 -27.191406 23.679688 -27.296875 C 24.867188 -27.667969 26.136719 -27.878906 27.402344 -27.878906 C 27.800781 -27.878906 28.089844 -28.195312 28.089844 -28.589844 C 28.089844 -28.960938 27.773438 -29.277344 27.402344 -29.277344 L 27.375 -29.277344 C 26.292969 -29.25 25.210938 -29.121094 24.15625 -28.855469 C 23.46875 -28.695312 22.730469 -28.960938 22.308594 -29.542969 C 21.277344 -30.730469 19.800781 -31.414062 18.214844 -31.46875 C 12.40625 -32.023438 3.113281 -22.359375 1.136719 -13.648438 C -0.316406 -7.285156 2.191406 -2.535156 8.238281 -0.316406 C 9.425781 0.132812 10.691406 0.371094 11.960938 0.394531 C 17.925781 0.394531 21.675781 -4.988281 21.726562 -5.070312 Z M 14.808594 -17.714844 C 14.574219 -17.714844 14.257812 -17.742188 14.152344 -17.925781 C 13.964844 -18.242188 14.070312 -19.085938 14.703125 -20.25 C 16.128906 -22.546875 18.085938 -24.472656 20.40625 -25.820312 C 20.671875 -25.976562 20.988281 -25.953125 21.253906 -25.765625 C 21.488281 -25.582031 21.59375 -25.265625 21.515625 -24.972656 C 20.511719 -21.488281 17 -17.765625 14.808594 -17.714844 Z M 14.808594 -17.714844 "/></g></g></g><g fill="#443333" fill-opacity="1"><g transform="translate(120.084229, 197.174063)"><g><path d="M 19.246094 -7.496094 C 19.113281 -7.628906 18.957031 -7.683594 18.769531 -7.683594 C 18.585938 -7.683594 18.402344 -7.628906 18.269531 -7.496094 C 15.101562 -4.328125 10.613281 -2.878906 6.203125 -3.617188 C 5.859375 -3.695312 5.625 -4.011719 5.675781 -4.355469 C 5.886719 -5.625 5.78125 -6.917969 5.042969 -7.339844 C 4.566406 -7.601562 3.855469 -7.628906 3.007812 -6.203125 C 2.691406 -5.730469 2.585938 -5.148438 2.691406 -4.59375 C 2.824219 -4.039062 3.167969 -3.539062 3.644531 -3.246094 C 3.933594 -3.007812 3.589844 -2.613281 3.40625 -2.429688 C 2.902344 -1.820312 2.03125 -1.714844 1.425781 -2.191406 C 0.660156 -2.535156 0.316406 -3.378906 0.605469 -4.144531 C 0.949219 -5.542969 2.324219 -6.757812 2.824219 -6.757812 C 3.195312 -6.757812 3.511719 -7.074219 3.511719 -7.445312 C 3.539062 -7.8125 3.222656 -8.132812 2.851562 -8.15625 L 2.824219 -8.15625 C 1.503906 -8.15625 -0.265625 -6.363281 -0.738281 -4.488281 C -1.1875 -3.113281 -0.554688 -1.609375 0.765625 -0.976562 C 1.265625 -0.6875 1.820312 -0.554688 2.402344 -0.527344 C 3.539062 -0.582031 4.539062 -1.265625 5.015625 -2.324219 C 5.070312 -2.402344 5.199219 -2.457031 5.304688 -2.429688 C 8.660156 -1.425781 14.785156 -2.058594 19.246094 -6.496094 C 19.378906 -6.625 19.457031 -6.8125 19.457031 -6.996094 C 19.457031 -7.179688 19.378906 -7.367188 19.246094 -7.496094 Z M 4.304688 -4.488281 C 4.011719 -4.753906 3.960938 -5.175781 4.199219 -5.492188 C 4.277344 -5.625 4.328125 -5.703125 4.382812 -5.78125 C 4.410156 -5.359375 4.382812 -4.910156 4.304688 -4.488281 Z M 4.304688 -4.488281 "/></g></g></g><g fill="#443333" fill-opacity="1"><g transform="translate(138.029727, 197.174063)"><g><path d="M 18.109375 -7.3125 C 17.976562 -7.445312 17.820312 -7.496094 17.636719 -7.496094 C 17.449219 -7.496094 17.265625 -7.445312 17.132812 -7.3125 C 14.597656 -4.910156 11.484375 -3.222656 8.078125 -2.402344 C 7.945312 -2.347656 7.789062 -2.402344 7.707031 -2.507812 C 7.628906 -2.640625 7.601562 -2.773438 7.683594 -2.902344 C 8.15625 -3.828125 8.050781 -4.9375 7.445312 -5.78125 C 7.074219 -6.28125 6.601562 -6.707031 6.046875 -7.023438 C 5.304688 -7.523438 4.488281 -8.105469 4.460938 -8.710938 C 4.488281 -9.054688 4.621094 -9.371094 4.859375 -9.636719 L 6.28125 -10.980469 C 6.546875 -11.246094 6.574219 -11.667969 6.335938 -11.933594 C 6.097656 -12.222656 5.703125 -12.277344 5.386719 -12.039062 C 4.832031 -11.617188 4.304688 -11.140625 3.855469 -10.585938 L -0.210938 -6.785156 C -0.394531 -6.625 -0.476562 -6.363281 -0.421875 -6.125 C -0.371094 -5.859375 -0.183594 -5.675781 0.0546875 -5.597656 C 0.289062 -5.542969 0.554688 -5.597656 0.738281 -5.78125 L 2.746094 -7.65625 C 2.851562 -7.761719 2.984375 -7.789062 3.113281 -7.789062 C 3.246094 -7.761719 3.351562 -7.683594 3.40625 -7.578125 C 3.90625 -6.890625 4.539062 -6.308594 5.253906 -5.886719 C 5.648438 -5.648438 5.992188 -5.386719 6.28125 -5.042969 C 6.546875 -4.753906 6.679688 -4.355469 6.601562 -3.960938 C 6.519531 -3.5625 6.28125 -3.222656 5.941406 -3.035156 C 4.25 -2.085938 2.113281 -2.535156 0.949219 -4.09375 C 0.765625 -4.382812 0.34375 -4.488281 0.0273438 -4.277344 C -0.289062 -4.09375 -0.394531 -3.695312 -0.210938 -3.351562 C 0.660156 -1.847656 2.21875 -0.871094 3.960938 -0.738281 C 4.410156 -0.660156 4.832031 -0.632812 5.28125 -0.632812 C 9.742188 -0.632812 15.234375 -3.433594 18.109375 -6.335938 C 18.375 -6.601562 18.375 -7.046875 18.109375 -7.3125 Z M 18.109375 -7.3125 "/></g></g></g><g fill="#443333" fill-opacity="1"><g transform="translate(154.78765, 197.174063)"><g><path d="M 28.960938 -6.707031 C 28.671875 -6.941406 28.222656 -6.890625 27.984375 -6.601562 C 27.929688 -6.519531 22.042969 0.660156 16.632812 -2.480469 C 15.917969 -2.984375 15.363281 -3.667969 15.074219 -4.460938 C 14.574219 -5.464844 13.964844 -6.679688 12.277344 -6.414062 C 11.40625 -6.28125 10.058594 -5.175781 8.921875 -3.90625 C 8.871094 -3.828125 8.765625 -3.800781 8.6875 -3.828125 C 8.605469 -3.855469 8.527344 -3.90625 8.527344 -4.011719 C 8.316406 -5.199219 7.523438 -6.203125 6.414062 -6.679688 C 5.519531 -6.917969 4.066406 -7.179688 1.03125 -4.171875 C 0.871094 -4.039062 0.660156 -4.09375 0.6875 -4.304688 C 0.6875 -4.410156 1.214844 -6.546875 1.214844 -6.546875 C 1.292969 -6.917969 1.054688 -7.285156 0.6875 -7.390625 C 0.316406 -7.472656 -0.0546875 -7.234375 -0.160156 -6.863281 L -1.425781 -1.292969 C -1.503906 -0.976562 -1.347656 -0.660156 -1.054688 -0.5 C -0.738281 -0.371094 -0.394531 -0.449219 -0.210938 -0.710938 C 3.328125 -5.148438 5.070312 -5.570312 5.78125 -5.464844 C 6.496094 -5.332031 7.445312 -3.90625 7.339844 -1.609375 C 7.339844 -1.292969 7.523438 -1.003906 7.839844 -0.925781 C 8.15625 -0.820312 8.472656 -0.949219 8.632812 -1.214844 C 9.714844 -3.0625 11.828125 -4.9375 12.488281 -5.042969 C 13.121094 -5.148438 13.304688 -4.910156 13.832031 -3.855469 C 14.230469 -2.796875 14.96875 -1.902344 15.917969 -1.292969 C 17.027344 -0.632812 18.296875 -0.265625 19.589844 -0.265625 C 24.632812 -0.265625 28.855469 -5.4375 29.066406 -5.730469 C 29.304688 -6.019531 29.25 -6.46875 28.960938 -6.707031 Z M 28.960938 -6.707031 "/></g></g></g><g fill="#443333" fill-opacity="1"><g transform="translate(182.286553, 197.174063)"><g><path d="M 17.105469 -7.128906 C 16.816406 -7.390625 16.394531 -7.390625 16.128906 -7.101562 C 16.023438 -7.023438 7.472656 1.691406 1.796875 -2.457031 C 0.0546875 -3.722656 1.742188 -7.023438 1.769531 -7.046875 C 1.925781 -7.390625 1.796875 -7.789062 1.453125 -7.972656 C 1.109375 -8.132812 0.710938 -8.027344 0.527344 -7.683594 C 0.421875 -7.523438 -1.714844 -3.328125 0.976562 -1.347656 C 2.21875 -0.421875 3.75 0.078125 5.304688 0.0546875 C 11.007812 0.0546875 16.789062 -5.835938 17.105469 -6.152344 C 17.238281 -6.28125 17.320312 -6.441406 17.320312 -6.625 C 17.292969 -6.8125 17.238281 -6.996094 17.105469 -7.128906 Z M 0.238281 -9.214844 C 0.34375 -9.214844 0.449219 -9.238281 0.554688 -9.292969 C 1.1875 -9.609375 1.742188 -10.03125 2.242188 -10.535156 C 2.507812 -10.824219 2.480469 -11.246094 2.21875 -11.511719 C 1.925781 -11.773438 1.503906 -11.773438 1.242188 -11.484375 C 0.84375 -11.089844 0.394531 -10.769531 -0.105469 -10.507812 C -0.371094 -10.375 -0.527344 -10.03125 -0.449219 -9.742188 C -0.371094 -9.425781 -0.078125 -9.214844 0.238281 -9.214844 Z M 0.238281 -9.214844 "/></g></g></g><g fill="#443333" fill-opacity="1"><g transform="translate(198.199985, 197.174063)"><g><path d="M 23.074219 -6.574219 C 22.914062 -6.679688 22.757812 -6.757812 22.570312 -6.757812 C 22.386719 -6.730469 22.203125 -6.652344 22.097656 -6.519531 C 22.019531 -6.46875 16.210938 -0.265625 11.167969 -2.296875 C 10.085938 -2.878906 9.214844 -3.75 8.605469 -4.832031 C 8.394531 -5.175781 8.132812 -5.519531 7.8125 -5.835938 C 7.472656 -6.257812 6.941406 -6.496094 6.390625 -6.519531 C 5.042969 -6.625 3.40625 -5.730469 1.453125 -3.878906 C 1.398438 -3.828125 1.320312 -3.800781 1.242188 -3.855469 C 1.160156 -3.878906 1.109375 -3.988281 1.136719 -4.066406 L 1.714844 -6.652344 C 1.820312 -7.023438 1.585938 -7.417969 1.214844 -7.496094 C 0.84375 -7.578125 0.476562 -7.339844 0.371094 -6.96875 L -0.949219 -1.1875 C -1.03125 -0.871094 -0.871094 -0.554688 -0.582031 -0.421875 C -0.289062 -0.265625 0.0546875 -0.34375 0.265625 -0.582031 C 3.800781 -4.726562 5.597656 -5.121094 6.230469 -5.148438 C 6.863281 -5.175781 7.261719 -4.355469 7.472656 -4.039062 C 8.210938 -2.746094 9.320312 -1.691406 10.640625 -1.03125 C 16.554688 1.371094 22.835938 -5.304688 23.101562 -5.597656 C 23.363281 -5.859375 23.335938 -6.308594 23.074219 -6.574219 Z M 23.074219 -6.574219 "/></g></g></g><g fill="#443333" fill-opacity="1"><g transform="translate(219.892958, 197.174063)"><g><path d="M 22.070312 -6.390625 C 21.804688 -6.679688 21.359375 -6.707031 21.066406 -6.441406 C 20.988281 -6.363281 13.148438 0.6875 8.289062 -2.507812 C 6.363281 -3.773438 5.886719 -6.835938 5.886719 -6.863281 C 5.859375 -7.179688 5.625 -7.417969 5.304688 -7.472656 C 5.015625 -7.496094 4.699219 -7.339844 4.566406 -7.074219 C 3.328125 -4.328125 1.136719 -0.84375 0.527344 -1.242188 C 0.476562 -1.242188 0.371094 -1.347656 0.289062 -1.53125 C -0.0273438 -2.402344 0.078125 -3.351562 0.527344 -4.171875 C 1.53125 -6.230469 3.378906 -7.707031 5.597656 -8.261719 C 5.835938 -8.316406 6.019531 -8.5 6.097656 -8.738281 C 6.175781 -8.976562 6.097656 -9.238281 5.941406 -9.425781 C 5.753906 -9.582031 5.519531 -9.664062 5.28125 -9.609375 C 2.640625 -8.976562 0.449219 -7.179688 -0.738281 -4.753906 C -1.371094 -3.5625 -1.453125 -2.136719 -0.949219 -0.898438 C -0.710938 -0.289062 -0.132812 0.132812 0.527344 0.132812 L 0.554688 0.132812 C 1.847656 0.105469 3.457031 -1.503906 4.566406 -3.246094 C 4.699219 -3.457031 4.9375 -3.5625 5.175781 -3.539062 C 5.410156 -3.539062 5.625 -3.40625 5.730469 -3.195312 C 6.175781 -2.457031 6.785156 -1.820312 7.523438 -1.371094 C 13.277344 2.457031 21.648438 -5.09375 22.019531 -5.410156 C 22.148438 -5.542969 22.230469 -5.730469 22.230469 -5.886719 C 22.253906 -6.070312 22.175781 -6.257812 22.070312 -6.390625 Z M 22.070312 -6.390625 "/></g></g></g><g fill="#443333" fill-opacity="1"><g transform="translate(240.926167, 197.174063)"><g/></g></g><g fill="#443333" fill-opacity="1"><g transform="translate(250.453064, 197.174063)"><g><path d="M 21.726562 -5.070312 C 21.9375 -5.386719 21.859375 -5.808594 21.542969 -6.046875 C 21.226562 -6.257812 20.777344 -6.175781 20.566406 -5.859375 C 20.378906 -5.570312 15.789062 1.003906 8.710938 -1.609375 C 1.925781 -4.117188 1.585938 -9.371094 2.480469 -13.359375 C 4.433594 -21.964844 13.332031 -30.519531 18.109375 -30.097656 C 18.980469 -30.042969 19.851562 -29.777344 20.59375 -29.304688 C 20.882812 -29.039062 21.066406 -28.671875 21.015625 -28.300781 C 20.988281 -27.90625 20.75 -27.5625 20.40625 -27.402344 C 17.582031 -25.898438 15.179688 -23.65625 13.515625 -20.933594 C 12.621094 -19.351562 12.433594 -18.085938 12.960938 -17.210938 C 13.386719 -16.605469 14.097656 -16.261719 14.863281 -16.339844 C 18.347656 -16.421875 22.863281 -22.148438 23.179688 -26.53125 C 23.152344 -26.875 23.363281 -27.191406 23.679688 -27.296875 C 24.867188 -27.667969 26.136719 -27.878906 27.402344 -27.878906 C 27.800781 -27.878906 28.089844 -28.195312 28.089844 -28.589844 C 28.089844 -28.960938 27.773438 -29.277344 27.402344 -29.277344 L 27.375 -29.277344 C 26.292969 -29.25 25.210938 -29.121094 24.15625 -28.855469 C 23.46875 -28.695312 22.730469 -28.960938 22.308594 -29.542969 C 21.277344 -30.730469 19.800781 -31.414062 18.214844 -31.46875 C 12.40625 -32.023438 3.113281 -22.359375 1.136719 -13.648438 C -0.316406 -7.285156 2.191406 -2.535156 8.238281 -0.316406 C 9.425781 0.132812 10.691406 0.371094 11.960938 0.394531 C 17.925781 0.394531 21.675781 -4.988281 21.726562 -5.070312 Z M 14.808594 -17.714844 C 14.574219 -17.714844 14.257812 -17.742188 14.152344 -17.925781 C 13.964844 -18.242188 14.070312 -19.085938 14.703125 -20.25 C 16.128906 -22.546875 18.085938 -24.472656 20.40625 -25.820312 C 20.671875 -25.976562 20.988281 -25.953125 21.253906 -25.765625 C 21.488281 -25.582031 21.59375 -25.265625 21.515625 -24.972656 C 20.511719 -21.488281 17 -17.765625 14.808594 -17.714844 Z M 14.808594 -17.714844 "/></g></g></g><g fill="#000000" fill-opacity="1"><g transform="translate(113.43086, 213.641338)"><g><path d="M 0.265625 -1.859375 L 0.265625 -2.96875 L 2.625 -2.96875 L 2.625 -1.859375 Z M 0.265625 -1.859375 "/></g></g></g><g fill="#000000" fill-opacity="1"><g transform="translate(120.053291, 213.641338)"><g><path d="M 3.53125 0 L 1.984375 -5.046875 L 1.9375 -5.046875 C 2 -4.015625 2.03125 -3.328125 2.03125 -2.984375 L 2.03125 0 L 0.8125 0 L 0.8125 -6.421875 L 2.65625 -6.421875 L 4.1875 -1.515625 L 4.203125 -1.515625 L 5.828125 -6.421875 L 7.671875 -6.421875 L 7.671875 0 L 6.40625 0 L 6.40625 -3.046875 C 6.40625 -3.179688 6.40625 -3.34375 6.40625 -3.53125 C 6.414062 -3.71875 6.4375 -4.21875 6.46875 -5.03125 L 6.4375 -5.03125 L 4.78125 0 Z M 3.53125 0 "/></g></g></g><g fill="#000000" fill-opacity="1"><g transform="translate(132.265565, 213.641338)"><g><path d="M 4.734375 0 L 4.28125 -1.53125 L 1.9375 -1.53125 L 1.46875 0 L 0 0 L 2.265625 -6.453125 L 3.9375 -6.453125 L 6.203125 0 Z M 3.953125 -2.671875 C 3.523438 -4.054688 3.28125 -4.835938 3.21875 -5.015625 C 3.164062 -5.203125 3.128906 -5.347656 3.109375 -5.453125 C 3.015625 -5.078125 2.738281 -4.148438 2.28125 -2.671875 Z M 3.953125 -2.671875 "/></g></g></g><g fill="#000000" fill-opacity="1"><g transform="translate(142.201471, 213.641338)"><g><path d="M 5.984375 0 L 4.4375 0 L 2.75 -2.703125 L 2.171875 -2.296875 L 2.171875 0 L 0.8125 0 L 0.8125 -6.421875 L 2.171875 -6.421875 L 2.171875 -3.484375 L 2.703125 -4.234375 L 4.453125 -6.421875 L 5.953125 -6.421875 L 3.71875 -3.578125 Z M 5.984375 0 "/></g></g></g><g fill="#000000" fill-opacity="1"><g transform="translate(151.90447, 213.641338)"><g><path d="M 4.515625 0 L 0.8125 0 L 0.8125 -6.421875 L 4.515625 -6.421875 L 4.515625 -5.3125 L 2.171875 -5.3125 L 2.171875 -3.890625 L 4.34375 -3.890625 L 4.34375 -2.78125 L 2.171875 -2.78125 L 2.171875 -1.125 L 4.515625 -1.125 Z M 4.515625 0 "/></g></g></g><g fill="#000000" fill-opacity="1"><g transform="translate(160.671433, 213.641338)"><g><path d="M 6.03125 -6.421875 L 6.03125 -2.265625 C 6.03125 -1.796875 5.925781 -1.378906 5.71875 -1.015625 C 5.507812 -0.660156 5.203125 -0.382812 4.796875 -0.1875 C 4.398438 0 3.925781 0.09375 3.375 0.09375 C 2.550781 0.09375 1.910156 -0.117188 1.453125 -0.546875 C 0.992188 -0.972656 0.765625 -1.550781 0.765625 -2.28125 L 0.765625 -6.421875 L 2.125 -6.421875 L 2.125 -2.484375 C 2.125 -1.992188 2.222656 -1.632812 2.421875 -1.40625 C 2.617188 -1.175781 2.945312 -1.0625 3.40625 -1.0625 C 3.851562 -1.0625 4.175781 -1.175781 4.375 -1.40625 C 4.582031 -1.632812 4.6875 -2 4.6875 -2.5 L 4.6875 -6.421875 Z M 6.03125 -6.421875 "/></g></g></g><g fill="#000000" fill-opacity="1"><g transform="translate(171.200603, 213.641338)"><g><path d="M 2.171875 -3.40625 L 2.625 -3.40625 C 3.039062 -3.40625 3.351562 -3.484375 3.5625 -3.640625 C 3.769531 -3.804688 3.875 -4.050781 3.875 -4.375 C 3.875 -4.695312 3.785156 -4.929688 3.609375 -5.078125 C 3.429688 -5.234375 3.160156 -5.3125 2.796875 -5.3125 L 2.171875 -5.3125 Z M 5.25 -4.421875 C 5.25 -3.734375 5.03125 -3.203125 4.59375 -2.828125 C 4.164062 -2.460938 3.550781 -2.28125 2.75 -2.28125 L 2.171875 -2.28125 L 2.171875 0 L 0.8125 0 L 0.8125 -6.421875 L 2.859375 -6.421875 C 3.640625 -6.421875 4.234375 -6.253906 4.640625 -5.921875 C 5.046875 -5.585938 5.25 -5.085938 5.25 -4.421875 Z M 5.25 -4.421875 "/></g></g></g><g fill="#000000" fill-opacity="1"><g transform="translate(180.578407, 213.641338)"><g/></g></g><g fill="#000000" fill-opacity="1"><g transform="translate(186.642733, 213.641338)"><g><path d="M 6.75 0 L 5.09375 0 L 4.59375 -0.5 C 4.03125 -0.101562 3.394531 0.09375 2.6875 0.09375 C 1.976562 0.09375 1.410156 -0.0664062 0.984375 -0.390625 C 0.566406 -0.722656 0.359375 -1.171875 0.359375 -1.734375 C 0.359375 -2.140625 0.445312 -2.484375 0.625 -2.765625 C 0.800781 -3.046875 1.101562 -3.3125 1.53125 -3.5625 C 1.3125 -3.8125 1.148438 -4.050781 1.046875 -4.28125 C 0.953125 -4.507812 0.90625 -4.757812 0.90625 -5.03125 C 0.90625 -5.476562 1.078125 -5.835938 1.421875 -6.109375 C 1.765625 -6.378906 2.222656 -6.515625 2.796875 -6.515625 C 3.335938 -6.515625 3.769531 -6.382812 4.09375 -6.125 C 4.425781 -5.875 4.59375 -5.539062 4.59375 -5.125 C 4.59375 -4.769531 4.488281 -4.445312 4.28125 -4.15625 C 4.082031 -3.875 3.757812 -3.601562 3.3125 -3.34375 L 4.546875 -2.125 C 4.753906 -2.46875 4.9375 -2.910156 5.09375 -3.453125 L 6.484375 -3.453125 C 6.378906 -3.054688 6.234375 -2.664062 6.046875 -2.28125 C 5.867188 -1.90625 5.660156 -1.570312 5.421875 -1.28125 Z M 1.765625 -1.859375 C 1.765625 -1.609375 1.859375 -1.40625 2.046875 -1.25 C 2.242188 -1.101562 2.488281 -1.03125 2.78125 -1.03125 C 3.144531 -1.03125 3.476562 -1.125 3.78125 -1.3125 L 2.328125 -2.75 C 2.148438 -2.625 2.007812 -2.488281 1.90625 -2.34375 C 1.8125 -2.207031 1.765625 -2.046875 1.765625 -1.859375 Z M 3.34375 -4.984375 C 3.34375 -5.140625 3.289062 -5.257812 3.1875 -5.34375 C 3.082031 -5.4375 2.945312 -5.484375 2.78125 -5.484375 C 2.582031 -5.484375 2.425781 -5.4375 2.3125 -5.34375 C 2.207031 -5.25 2.15625 -5.113281 2.15625 -4.9375 C 2.15625 -4.675781 2.289062 -4.394531 2.5625 -4.09375 C 2.8125 -4.226562 3.003906 -4.363281 3.140625 -4.5 C 3.273438 -4.632812 3.34375 -4.796875 3.34375 -4.984375 Z M 3.34375 -4.984375 "/></g></g></g><g fill="#000000" fill-opacity="1"><g transform="translate(197.119169, 213.641338)"><g/></g></g><g fill="#000000" fill-opacity="1"><g transform="translate(203.183496, 213.641338)"><g><path d="M 0.8125 0 L 0.8125 -6.421875 L 2.171875 -6.421875 L 2.171875 -1.125 L 4.78125 -1.125 L 4.78125 0 Z M 0.8125 0 "/></g></g></g><g fill="#000000" fill-opacity="1"><g transform="translate(211.994399, 213.641338)"><g><path d="M 4.734375 0 L 4.28125 -1.53125 L 1.9375 -1.53125 L 1.46875 0 L 0 0 L 2.265625 -6.453125 L 3.9375 -6.453125 L 6.203125 0 Z M 3.953125 -2.671875 C 3.523438 -4.054688 3.28125 -4.835938 3.21875 -5.015625 C 3.164062 -5.203125 3.128906 -5.347656 3.109375 -5.453125 C 3.015625 -5.078125 2.738281 -4.148438 2.28125 -2.671875 Z M 3.953125 -2.671875 "/></g></g></g><g fill="#000000" fill-opacity="1"><g transform="translate(221.930308, 213.641338)"><g><path d="M 4.59375 -1.78125 C 4.59375 -1.207031 4.382812 -0.75 3.96875 -0.40625 C 3.550781 -0.0703125 2.972656 0.09375 2.234375 0.09375 C 1.546875 0.09375 0.9375 -0.0351562 0.40625 -0.296875 L 0.40625 -1.5625 C 0.84375 -1.375 1.210938 -1.238281 1.515625 -1.15625 C 1.816406 -1.070312 2.09375 -1.03125 2.34375 -1.03125 C 2.632812 -1.03125 2.859375 -1.085938 3.015625 -1.203125 C 3.179688 -1.316406 3.265625 -1.488281 3.265625 -1.71875 C 3.265625 -1.84375 3.226562 -1.953125 3.15625 -2.046875 C 3.082031 -2.148438 2.976562 -2.242188 2.84375 -2.328125 C 2.707031 -2.421875 2.429688 -2.566406 2.015625 -2.765625 C 1.617188 -2.953125 1.320312 -3.128906 1.125 -3.296875 C 0.9375 -3.472656 0.78125 -3.671875 0.65625 -3.890625 C 0.539062 -4.117188 0.484375 -4.382812 0.484375 -4.6875 C 0.484375 -5.257812 0.675781 -5.707031 1.0625 -6.03125 C 1.445312 -6.351562 1.976562 -6.515625 2.65625 -6.515625 C 3 -6.515625 3.320312 -6.472656 3.625 -6.390625 C 3.925781 -6.316406 4.242188 -6.207031 4.578125 -6.0625 L 4.125 -5 C 3.78125 -5.144531 3.492188 -5.242188 3.265625 -5.296875 C 3.046875 -5.359375 2.832031 -5.390625 2.625 -5.390625 C 2.363281 -5.390625 2.160156 -5.328125 2.015625 -5.203125 C 1.878906 -5.078125 1.8125 -4.921875 1.8125 -4.734375 C 1.8125 -4.609375 1.835938 -4.5 1.890625 -4.40625 C 1.953125 -4.320312 2.039062 -4.238281 2.15625 -4.15625 C 2.28125 -4.070312 2.570312 -3.921875 3.03125 -3.703125 C 3.632812 -3.421875 4.046875 -3.132812 4.265625 -2.84375 C 4.484375 -2.550781 4.59375 -2.195312 4.59375 -1.78125 Z M 4.59375 -1.78125 "/></g></g></g><g fill="#000000" fill-opacity="1"><g transform="translate(230.613775, 213.641338)"><g><path d="M 6.078125 0 L 4.71875 0 L 4.71875 -2.765625 L 2.171875 -2.765625 L 2.171875 0 L 0.8125 0 L 0.8125 -6.421875 L 2.171875 -6.421875 L 2.171875 -3.90625 L 4.71875 -3.90625 L 4.71875 -6.421875 L 6.078125 -6.421875 Z M 6.078125 0 "/></g></g></g><g fill="#000000" fill-opacity="1"><g transform="translate(241.226442, 213.641338)"><g><path d="M 4.515625 0 L 0.8125 0 L 0.8125 -6.421875 L 4.515625 -6.421875 L 4.515625 -5.3125 L 2.171875 -5.3125 L 2.171875 -3.890625 L 4.34375 -3.890625 L 4.34375 -2.78125 L 2.171875 -2.78125 L 2.171875 -1.125 L 4.515625 -1.125 Z M 4.515625 0 "/></g></g></g><g fill="#000000" fill-opacity="1"><g transform="translate(249.993405, 213.641338)"><g><path d="M 4.59375 -1.78125 C 4.59375 -1.207031 4.382812 -0.75 3.96875 -0.40625 C 3.550781 -0.0703125 2.972656 0.09375 2.234375 0.09375 C 1.546875 0.09375 0.9375 -0.0351562 0.40625 -0.296875 L 0.40625 -1.5625 C 0.84375 -1.375 1.210938 -1.238281 1.515625 -1.15625 C 1.816406 -1.070312 2.09375 -1.03125 2.34375 -1.03125 C 2.632812 -1.03125 2.859375 -1.085938 3.015625 -1.203125 C 3.179688 -1.316406 3.265625 -1.488281 3.265625 -1.71875 C 3.265625 -1.84375 3.226562 -1.953125 3.15625 -2.046875 C 3.082031 -2.148438 2.976562 -2.242188 2.84375 -2.328125 C 2.707031 -2.421875 2.429688 -2.566406 2.015625 -2.765625 C 1.617188 -2.953125 1.320312 -3.128906 1.125 -3.296875 C 0.9375 -3.472656 0.78125 -3.671875 0.65625 -3.890625 C 0.539062 -4.117188 0.484375 -4.382812 0.484375 -4.6875 C 0.484375 -5.257812 0.675781 -5.707031 1.0625 -6.03125 C 1.445312 -6.351562 1.976562 -6.515625 2.65625 -6.515625 C 3 -6.515625 3.320312 -6.472656 3.625 -6.390625 C 3.925781 -6.316406 4.242188 -6.207031 4.578125 -6.0625 L 4.125 -5 C 3.78125 -5.144531 3.492188 -5.242188 3.265625 -5.296875 C 3.046875 -5.359375 2.832031 -5.390625 2.625 -5.390625 C 2.363281 -5.390625 2.160156 -5.328125 2.015625 -5.203125 C 1.878906 -5.078125 1.8125 -4.921875 1.8125 -4.734375 C 1.8125 -4.609375 1.835938 -4.5 1.890625 -4.40625 C 1.953125 -4.320312 2.039062 -4.238281 2.15625 -4.15625 C 2.28125 -4.070312 2.570312 -3.921875 3.03125 -3.703125 C 3.632812 -3.421875 4.046875 -3.132812 4.265625 -2.84375 C 4.484375 -2.550781 4.59375 -2.195312 4.59375 -1.78125 Z M 4.59375 -1.78125 "/></g></g></g><g fill="#000000" fill-opacity="1"><g transform="translate(258.676872, 213.641338)"><g><path d="M 0.265625 -1.859375 L 0.265625 -2.96875 L 2.625 -2.96875 L 2.625 -1.859375 Z M 0.265625 -1.859375 "/></g></g></g></svg>