<svg xmlns="http://www.w3.org/2000/svg" xmlns:xlink="http://www.w3.org/1999/xlink" width="500" zoomAndPan="magnify" viewBox="0 0 375 374.999991" height="500" preserveAspectRatio="xMidYMid meet" version="1.0"><defs><g/><clipPath id="bf5c3d2270"><path d="M 65 72 L 309 72 L 309 316 L 65 316 Z M 65 72 " clip-rule="nonzero"/></clipPath><clipPath id="d889b305b1"><path d="M 202.5 22.414062 L 358.652344 208.601562 L 172.46875 364.753906 L 16.316406 178.570312 Z M 202.5 22.414062 " clip-rule="nonzero"/></clipPath><clipPath id="e8b3d19ec1"><path d="M 202.5 22.414062 L 358.652344 208.601562 L 172.46875 364.753906 L 16.316406 178.570312 Z M 202.5 22.414062 " clip-rule="nonzero"/></clipPath><clipPath id="61871c6e4f"><path d="M 280.578125 115.507812 C 237.457031 64.09375 160.820312 57.371094 109.40625 100.492188 C 57.992188 143.613281 51.269531 220.25 94.390625 271.664062 C 137.511719 323.074219 214.148438 329.796875 265.5625 286.675781 C 316.976562 243.554688 323.699219 166.921875 280.578125 115.507812 " clip-rule="nonzero"/></clipPath><clipPath id="26d30a8994"><path d="M 96.511719 123 L 250.882812 123 L 250.882812 270.308594 L 96.511719 270.308594 Z M 96.511719 123 " clip-rule="nonzero"/></clipPath><clipPath id="8b6bb25927"><path d="M 238 117.28125 L 278.175781 117.28125 L 278.175781 189.253906 L 238 189.253906 Z M 238 117.28125 " clip-rule="nonzero"/></clipPath></defs><g clip-path="url(#bf5c3d2270)"><g clip-path="url(#d889b305b1)"><g clip-path="url(#e8b3d19ec1)"><g clip-path="url(#61871c6e4f)"><path stroke-linecap="butt" transform="matrix(0.48233, 0.575088, -0.575088, 0.48233, 202.499595, 22.415309)" fill="none" stroke-linejoin="miter" d="M 161.876218 -0.00123453 C 72.474366 -0.00147183 -0.000933555 72.473812 -0.00117086 161.875664 C -0.00140816 251.277515 72.473876 323.752815 161.875727 323.753053 C 251.273591 323.749946 323.748891 251.274662 323.749129 161.87281 C 323.749366 72.470958 251.27807 -0.00099723 161.876218 -0.00123453 " stroke="#000000" stroke-width="2" stroke-opacity="1" stroke-miterlimit="4"/></g></g></g></g><g fill="#000000" fill-opacity="1"><g transform="translate(71.063349, 189.203923)"><g><path d="M 4.03125 0.28125 C 4.832031 0.269531 5.546875 0.421875 6.171875 0.734375 C 6.796875 1.046875 7.285156 1.5 7.640625 2.09375 C 8.003906 2.6875 8.191406 3.390625 8.203125 4.203125 C 8.210938 4.898438 8.085938 5.523438 7.828125 6.078125 C 7.578125 6.628906 7.21875 7.078125 6.75 7.421875 C 6.28125 7.773438 5.722656 8.015625 5.078125 8.140625 L 5.046875 5.484375 C 5.304688 5.359375 5.507812 5.179688 5.65625 4.953125 C 5.800781 4.722656 5.867188 4.46875 5.859375 4.1875 C 5.859375 3.757812 5.695312 3.425781 5.375 3.1875 C 5.050781 2.945312 4.617188 2.832031 4.078125 2.84375 C 3.546875 2.851562 3.125 2.984375 2.8125 3.234375 C 2.5 3.484375 2.34375 3.820312 2.34375 4.25 C 2.351562 4.53125 2.429688 4.78125 2.578125 5 C 2.722656 5.21875 2.929688 5.390625 3.203125 5.515625 L 3.234375 8.171875 C 2.597656 8.066406 2.039062 7.84375 1.5625 7.5 C 1.082031 7.164062 0.703125 6.726562 0.421875 6.1875 C 0.148438 5.644531 0.0078125 5.023438 0 4.328125 C -0.0078125 3.515625 0.148438 2.804688 0.484375 2.203125 C 0.828125 1.597656 1.304688 1.128906 1.921875 0.796875 C 2.535156 0.460938 3.238281 0.289062 4.03125 0.28125 Z M 4.03125 0.28125 "/></g></g></g><g fill="#000000" fill-opacity="1"><g transform="translate(71.502047, 202.184459)"><g><path d="M 0.5 4.484375 C 0.394531 3.722656 0.476562 3.003906 0.75 2.328125 C 1.019531 1.648438 1.445312 1.085938 2.03125 0.640625 C 2.613281 0.203125 3.296875 -0.0664062 4.078125 -0.171875 C 4.859375 -0.273438 5.582031 -0.1875 6.25 0.09375 C 6.914062 0.382812 7.460938 0.820312 7.890625 1.40625 C 8.328125 1.988281 8.597656 2.660156 8.703125 3.421875 C 8.796875 4.160156 8.703125 4.863281 8.421875 5.53125 C 8.148438 6.207031 7.726562 6.769531 7.15625 7.21875 C 6.582031 7.664062 5.90625 7.941406 5.125 8.046875 C 4.34375 8.148438 3.613281 8.054688 2.9375 7.765625 C 2.257812 7.472656 1.707031 7.035156 1.28125 6.453125 C 0.851562 5.878906 0.59375 5.222656 0.5 4.484375 Z M 2.84375 4.171875 C 2.90625 4.660156 3.109375 5.019531 3.453125 5.25 C 3.796875 5.488281 4.242188 5.570312 4.796875 5.5 C 5.335938 5.425781 5.753906 5.234375 6.046875 4.921875 C 6.335938 4.609375 6.453125 4.207031 6.390625 3.71875 C 6.316406 3.207031 6.101562 2.832031 5.75 2.59375 C 5.394531 2.363281 4.945312 2.285156 4.40625 2.359375 C 3.851562 2.429688 3.4375 2.625 3.15625 2.9375 C 2.875 3.25 2.769531 3.660156 2.84375 4.171875 Z M 2.84375 4.171875 "/></g></g></g><g fill="#000000" fill-opacity="1"><g transform="translate(73.482425, 215.401075)"><g><path d="M 0.78125 3.640625 C 0.5625 2.703125 0.597656 1.875 0.890625 1.15625 C 1.191406 0.4375 1.757812 -0.046875 2.59375 -0.296875 L 3.203125 2.328125 C 2.765625 2.472656 2.59375 2.726562 2.6875 3.09375 C 2.71875 3.21875 2.769531 3.316406 2.84375 3.390625 C 2.925781 3.472656 3.035156 3.5 3.171875 3.46875 C 3.367188 3.425781 3.5 3.289062 3.5625 3.0625 C 3.625 2.832031 3.679688 2.488281 3.734375 2.03125 C 3.785156 1.476562 3.859375 1.019531 3.953125 0.65625 C 4.046875 0.289062 4.222656 -0.046875 4.484375 -0.359375 C 4.753906 -0.671875 5.144531 -0.882812 5.65625 -1 C 6.164062 -1.113281 6.628906 -1.082031 7.046875 -0.90625 C 7.472656 -0.726562 7.832031 -0.429688 8.125 -0.015625 C 8.414062 0.390625 8.628906 0.875 8.765625 1.4375 C 8.992188 2.394531 8.953125 3.207031 8.640625 3.875 C 8.328125 4.539062 7.769531 4.984375 6.96875 5.203125 L 6.34375 2.5625 C 6.570312 2.5 6.71875 2.40625 6.78125 2.28125 C 6.851562 2.164062 6.867188 2.03125 6.828125 1.875 C 6.804688 1.769531 6.753906 1.691406 6.671875 1.640625 C 6.585938 1.597656 6.484375 1.59375 6.359375 1.625 C 6.179688 1.664062 6.054688 1.796875 5.984375 2.015625 C 5.921875 2.242188 5.859375 2.59375 5.796875 3.0625 C 5.734375 3.59375 5.65625 4.035156 5.5625 4.390625 C 5.46875 4.753906 5.296875 5.09375 5.046875 5.40625 C 4.804688 5.71875 4.457031 5.925781 4 6.03125 C 3.519531 6.144531 3.0625 6.125 2.625 5.96875 C 2.1875 5.820312 1.804688 5.550781 1.484375 5.15625 C 1.160156 4.757812 0.925781 4.253906 0.78125 3.640625 Z M 0.78125 3.640625 "/></g></g></g><g fill="#000000" fill-opacity="1"><g transform="translate(76.293959, 226.595988)"><g><path d="M 11.046875 6.90625 L 3.484375 9.640625 L 2.625 7.265625 L 6.40625 5.90625 L 2.21875 6.109375 L 1.46875 4.0625 L 4.828125 1.546875 L 1.046875 2.90625 L 0.1875 0.53125 L 7.75 -2.203125 L 8.8125 0.703125 L 4.875 4.015625 L 10 4.015625 Z M 11.046875 6.90625 "/></g></g></g><g fill="#000000" fill-opacity="1"><g transform="translate(81.831333, 240.743121)"><g><path d="M 8.59375 -0.671875 L 1.328125 2.796875 L 0.25 0.5 L 7.515625 -2.96875 Z M 8.59375 -0.671875 "/></g></g></g><g fill="#000000" fill-opacity="1"><g transform="translate(85.365041, 247.949733)"><g><path d="M 4.234375 7.125 L 2.953125 4.953125 L 5.0625 0.59375 L 1.578125 2.65625 L 0.28125 0.484375 L 7.203125 -3.625 L 8.5 -1.453125 L 6.34375 2.9375 L 9.875 0.84375 L 11.15625 3.015625 Z M 4.234375 7.125 "/></g></g></g><g fill="#000000" fill-opacity="1"><g transform="translate(92.36776, 259.238871)"><g><path d="M 4.4375 3.828125 L 2.8125 1.6875 L 1.609375 2.109375 L 0 0 L 8.1875 -2.5 L 9.953125 -0.1875 L 5.3125 7.015625 L 3.703125 4.875 Z M 5.578125 2.203125 L 6.921875 0.265625 L 4.6875 1.03125 Z M 5.578125 2.203125 "/></g></g></g><g fill="#000000" fill-opacity="1"><g transform="translate(100.550645, 269.497161)"><g/></g></g><g fill="#000000" fill-opacity="1"><g transform="translate(104.770841, 274.137568)"><g><path d="M 3.015625 -2.6875 C 3.566406 -3.269531 4.171875 -3.675781 4.828125 -3.90625 C 5.492188 -4.132812 6.164062 -4.164062 6.84375 -4 C 7.519531 -3.84375 8.148438 -3.488281 8.734375 -2.9375 C 9.242188 -2.457031 9.601562 -1.929688 9.8125 -1.359375 C 10.03125 -0.785156 10.101562 -0.210938 10.03125 0.359375 C 9.957031 0.941406 9.738281 1.507812 9.375 2.0625 L 7.453125 0.234375 C 7.546875 -0.0546875 7.5625 -0.328125 7.5 -0.578125 C 7.4375 -0.835938 7.300781 -1.066406 7.09375 -1.265625 C 6.78125 -1.554688 6.425781 -1.671875 6.03125 -1.609375 C 5.632812 -1.546875 5.25 -1.316406 4.875 -0.921875 C 4.507812 -0.535156 4.304688 -0.144531 4.265625 0.25 C 4.222656 0.644531 4.359375 0.988281 4.671875 1.28125 C 4.878906 1.476562 5.113281 1.597656 5.375 1.640625 C 5.644531 1.691406 5.914062 1.664062 6.1875 1.5625 L 8.109375 3.390625 C 7.585938 3.773438 7.035156 4.019531 6.453125 4.125 C 5.878906 4.238281 5.300781 4.203125 4.71875 4.015625 C 4.144531 3.828125 3.601562 3.492188 3.09375 3.015625 C 2.507812 2.460938 2.117188 1.851562 1.921875 1.1875 C 1.722656 0.519531 1.71875 -0.144531 1.90625 -0.8125 C 2.101562 -1.488281 2.472656 -2.113281 3.015625 -2.6875 Z M 3.015625 -2.6875 "/></g></g></g><g fill="#000000" fill-opacity="1"><g transform="translate(114.366175, 282.862212)"><g><path d="M 3.671875 2.8125 L 4.21875 -0.40625 L 4.203125 -0.421875 L 2.453125 1.875 L 0.453125 0.34375 L 5.328125 -6.046875 L 8.3125 -3.765625 C 8.832031 -3.367188 9.207031 -2.9375 9.4375 -2.46875 C 9.664062 -2.007812 9.75 -1.554688 9.6875 -1.109375 C 9.632812 -0.660156 9.453125 -0.238281 9.140625 0.15625 C 8.816406 0.582031 8.410156 0.875 7.921875 1.03125 C 7.429688 1.1875 6.90625 1.164062 6.34375 0.96875 L 5.875 4.484375 Z M 5.234375 -1.765625 L 6.03125 -1.15625 C 6.226562 -1.007812 6.40625 -0.941406 6.5625 -0.953125 C 6.726562 -0.972656 6.882812 -1.070312 7.03125 -1.25 C 7.164062 -1.425781 7.21875 -1.597656 7.1875 -1.765625 C 7.15625 -1.929688 7.039062 -2.085938 6.84375 -2.234375 L 6.046875 -2.84375 Z M 5.234375 -1.765625 "/></g></g></g><g fill="#000000" fill-opacity="1"><g transform="translate(124.03471, 289.901819)"><g><path d="M 6.9375 -5.125 L 2.609375 1.65625 L 0.46875 0.296875 L 4.796875 -6.484375 Z M 6.9375 -5.125 "/></g></g></g><g fill="#000000" fill-opacity="1"><g transform="translate(130.842429, 294.106937)"><g><path d="M 3.265625 1.796875 C 2.410156 1.347656 1.804688 0.773438 1.453125 0.078125 C 1.109375 -0.609375 1.117188 -1.347656 1.484375 -2.140625 L 3.859375 -0.890625 C 3.671875 -0.460938 3.742188 -0.160156 4.078125 0.015625 C 4.203125 0.078125 4.320312 0.0976562 4.4375 0.078125 C 4.550781 0.0664062 4.640625 0.00390625 4.703125 -0.109375 C 4.796875 -0.285156 4.773438 -0.472656 4.640625 -0.671875 C 4.503906 -0.867188 4.285156 -1.132812 3.984375 -1.46875 C 3.609375 -1.875 3.3125 -2.226562 3.09375 -2.53125 C 2.882812 -2.84375 2.75 -3.203125 2.6875 -3.609375 C 2.632812 -4.023438 2.726562 -4.460938 2.96875 -4.921875 C 3.207031 -5.378906 3.53125 -5.707031 3.9375 -5.90625 C 4.351562 -6.113281 4.8125 -6.191406 5.3125 -6.140625 C 5.8125 -6.085938 6.320312 -5.925781 6.84375 -5.65625 C 7.71875 -5.195312 8.300781 -4.628906 8.59375 -3.953125 C 8.894531 -3.285156 8.867188 -2.578125 8.515625 -1.828125 L 6.109375 -3.09375 C 6.203125 -3.289062 6.222656 -3.457031 6.171875 -3.59375 C 6.128906 -3.738281 6.039062 -3.847656 5.90625 -3.921875 C 5.8125 -3.960938 5.71875 -3.96875 5.625 -3.9375 C 5.539062 -3.90625 5.46875 -3.832031 5.40625 -3.71875 C 5.320312 -3.5625 5.34375 -3.382812 5.46875 -3.1875 C 5.59375 -2.988281 5.804688 -2.71875 6.109375 -2.375 C 6.484375 -1.96875 6.769531 -1.609375 6.96875 -1.296875 C 7.175781 -0.984375 7.316406 -0.632812 7.390625 -0.25 C 7.460938 0.132812 7.390625 0.535156 7.171875 0.953125 C 6.941406 1.390625 6.625 1.722656 6.21875 1.953125 C 5.820312 2.191406 5.367188 2.296875 4.859375 2.265625 C 4.359375 2.242188 3.828125 2.085938 3.265625 1.796875 Z M 3.265625 1.796875 "/></g></g></g><g fill="#000000" fill-opacity="1"><g transform="translate(141.108462, 299.261709)"><g><path d="M 9.40625 -4.859375 L 8.65625 -3 L 6.6875 -3.796875 L 4.40625 1.796875 L 2.0625 0.84375 L 4.34375 -4.75 L 2.375 -5.546875 L 3.125 -7.40625 Z M 9.40625 -4.859375 "/></g></g></g><g fill="#000000" fill-opacity="1"><g transform="translate(151.723014, 303.348875)"><g><path d="M 4.71875 -4.890625 L 4.421875 -3.9375 L 6.8125 -3.21875 L 6.265625 -1.40625 L 3.875 -2.125 L 3.546875 -1.03125 L 6.265625 -0.203125 L 5.6875 1.71875 L 0.53125 0.15625 L 2.859375 -7.546875 L 8.015625 -5.984375 L 7.4375 -4.0625 Z M 4.71875 -4.890625 "/></g></g></g><g fill="#000000" fill-opacity="1"><g transform="translate(162.030621, 306.290218)"><g><path d="M 5.859375 -0.109375 L 3.21875 -0.625 L 2.609375 0.5 L 0 0 L 4.4375 -7.34375 L 7.28125 -6.796875 L 8.640625 1.671875 L 6.015625 1.171875 Z M 5.625 -2.078125 L 5.328125 -4.4375 L 4.1875 -2.34375 Z M 5.625 -2.078125 "/></g></g></g><g clip-path="url(#26d30a8994)"><path fill="#03072b" d="M 184.015625 270.339844 C 177.375 270.339844 170.433594 267.761719 162.820312 262.460938 C 156.3125 257.929688 150.527344 252.273438 145.246094 246.835938 C 131.550781 232.734375 119.011719 204.554688 115.210938 193.429688 C 113.875 194.15625 112.292969 194.207031 110.714844 193.566406 C 108.398438 192.628906 106.179688 190.296875 104.121094 186.640625 C 101.632812 182.222656 99.449219 175.953125 97.628906 168.003906 C 94.730469 155.375 98.203125 152.695312 99.828125 152.128906 C 101.292969 151.621094 103.085938 152.070312 104.875 153.398438 C 106.644531 154.710938 108.253906 156.777344 109.40625 159.214844 C 110.097656 160.832031 111.015625 161.535156 111.523438 161.378906 C 112.226562 161.167969 112.757812 159.382812 111.957031 155.058594 C 111.597656 153.105469 111.640625 151.925781 112.089844 151.347656 C 112.285156 151.097656 112.550781 150.960938 112.875 150.941406 C 113.6875 150.890625 114.523438 151.730469 115.789062 153 C 118.332031 155.554688 122.179688 159.414062 129.082031 159.339844 L 130.339844 159.324219 L 129.222656 159.902344 C 129.191406 159.917969 127.167969 160.972656 125.628906 162.394531 C 127.222656 161.238281 128.804688 160.582031 130.636719 160.714844 L 131.585938 160.78125 L 130.769531 161.265625 C 130.679688 161.320312 130.585938 161.378906 130.484375 161.433594 C 129.3125 162.125 127.910156 162.953125 127.332031 164.417969 C 128.710938 162.816406 130.632812 161.800781 132.359375 161.847656 L 133.554688 161.878906 L 132.488281 162.410156 C 131.398438 162.957031 130.59375 164.152344 130.28125 165.265625 C 131.6875 163.320312 133.882812 162.238281 135.585938 162.152344 L 137.5 162.058594 L 135.707031 162.730469 C 134.605469 163.144531 133.839844 164.546875 133.589844 165.953125 C 134.726562 164.136719 135.84375 163.007812 138.183594 162.6875 L 139.589844 162.496094 L 138.378906 163.238281 C 137.761719 163.617188 137.023438 164.949219 136.675781 166.226562 C 137.621094 164.613281 139.007812 163.355469 140.4375 162.902344 L 141.492188 162.566406 L 140.746094 163.386719 C 140.332031 163.84375 139.925781 164.914062 139.742188 165.945312 C 140.414062 164.464844 141.519531 163.113281 143.058594 162.816406 L 144.082031 162.621094 L 143.316406 163.328125 C 142.539062 164.054688 142.1875 165.4375 142.390625 166.738281 C 143.265625 164.683594 144.027344 163.09375 145.546875 162.671875 L 146.273438 162.46875 L 145.882812 163.113281 C 145.265625 164.128906 144.695312 165.535156 145.125 166.828125 C 145.730469 164.652344 146.597656 162.554688 148.203125 162.0625 L 149.078125 161.796875 L 148.53125 162.527344 C 147.703125 163.632812 147.617188 164.355469 147.929688 165.023438 C 148.296875 163.097656 149.179688 162.042969 150.859375 161.457031 L 151.695312 161.164062 L 151.203125 161.902344 C 150.8125 162.496094 150.710938 163.359375 150.90625 164.273438 C 150.914062 164.253906 150.917969 164.234375 150.925781 164.214844 C 151.417969 162.800781 151.980469 161.199219 153.949219 160.835938 L 154.570312 160.71875 L 154.261719 161.273438 C 153.773438 162.160156 153.410156 162.914062 153.5 163.8125 C 153.507812 163.789062 153.511719 163.765625 153.519531 163.746094 C 154.101562 161.851562 154.417969 160.804688 157.070312 160.300781 L 158.214844 160.082031 L 157.3125 160.824219 C 156.671875 161.351562 156.386719 161.871094 156.28125 162.5 C 157.328125 161.199219 159.007812 160.167969 160.824219 159.769531 C 162.359375 159.429688 163.808594 159.570312 165.003906 160.164062 C 163.671875 157.390625 161.628906 155.78125 158.648438 155.136719 C 155.605469 154.480469 151.910156 154.832031 147.632812 155.242188 C 138.589844 156.109375 127.339844 157.1875 116.246094 148.824219 L 115.414062 148.195312 L 116.453125 148.289062 C 120.75 148.679688 128.570312 145.992188 133.957031 143.574219 C 138.371094 141.59375 142.828125 140.648438 147.199219 140.769531 C 151.167969 140.875 154.941406 141.890625 158.105469 143.703125 C 162.660156 146.308594 165.644531 150.359375 166.386719 154.898438 C 167.207031 153.679688 167.964844 151.519531 168.042969 148.890625 C 168.121094 146.445312 167.640625 142.816406 164.914062 139.398438 C 160.636719 134.035156 153.53125 130.5 145.421875 129.699219 C 140.648438 129.230469 135.570312 129.691406 130.34375 131.066406 C 124.492188 132.609375 118.449219 135.308594 112.382812 139.085938 L 111.804688 139.441406 L 111.933594 138.777344 C 112.84375 133.933594 116.277344 130.058594 122.136719 127.257812 C 126.78125 125.039062 132.925781 123.589844 139.441406 123.167969 C 147.890625 122.625 155.71875 123.804688 162.070312 126.582031 C 167.890625 129.132812 172.277344 132.976562 174.417969 137.417969 C 177.5625 143.941406 177.660156 159.613281 177.707031 168.03125 C 177.714844 168.929688 177.71875 169.753906 177.726562 170.476562 C 177.871094 183.65625 173.746094 190.527344 171.28125 194.628906 C 171.070312 194.984375 170.867188 195.320312 170.679688 195.636719 C 168.605469 199.195312 168.578125 202.320312 170.613281 203.996094 C 172.148438 205.261719 173 204.65625 173.988281 203.957031 C 174.71875 203.4375 175.546875 202.851562 176.628906 203.269531 C 177.34375 203.546875 177.996094 204.023438 178.6875 204.527344 C 180.617188 205.933594 182.445312 207.269531 185.675781 204.410156 C 186.917969 203.316406 187.890625 202.855469 188.84375 202.917969 C 190.136719 203 191.300781 204.046875 192.652344 205.597656 L 193.003906 205.996094 L 192.480469 206.089844 C 188.578125 206.757812 185.863281 208.449219 184.421875 211.113281 C 182.679688 214.324219 183.230469 218.171875 184.226562 220.496094 L 183.679688 220.730469 C 182.628906 218.285156 182.054688 214.226562 183.898438 210.828125 C 185.367188 208.117188 188.042969 206.359375 191.851562 205.597656 C 190.5625 204.179688 189.660156 203.566406 188.800781 203.511719 C 188.023438 203.460938 187.183594 203.878906 186.070312 204.859375 C 182.480469 208.03125 180.277344 206.425781 178.335938 205.007812 C 177.679688 204.527344 177.058594 204.074219 176.414062 203.828125 C 175.628906 203.523438 175.03125 203.949219 174.332031 204.445312 C 173.347656 205.144531 172.121094 206.011719 170.234375 204.457031 C 167.953125 202.578125 167.929688 199.167969 170.167969 195.335938 C 170.355469 195.015625 170.554688 194.679688 170.769531 194.320312 C 173.203125 190.273438 177.273438 183.492188 177.128906 170.484375 C 177.125 169.757812 177.117188 168.9375 177.113281 168.035156 C 177.0625 159.664062 176.96875 144.082031 173.878906 137.675781 C 171.800781 133.363281 167.523438 129.621094 161.828125 127.132812 C 155.566406 124.390625 147.835938 123.226562 139.480469 123.765625 C 133.039062 124.179688 126.96875 125.613281 122.390625 127.796875 C 116.992188 130.375 113.722656 133.878906 112.664062 138.210938 C 118.582031 134.59375 124.476562 131.996094 130.191406 130.492188 C 135.488281 129.09375 140.632812 128.628906 145.480469 129.105469 C 153.75 129.917969 161.003906 133.535156 165.382812 139.027344 C 168.21875 142.585938 168.71875 146.367188 168.640625 148.910156 C 168.554688 151.75 167.675781 154.46875 166.410156 155.839844 L 165.964844 156.320312 L 165.890625 155.671875 C 165.378906 151.039062 162.429688 146.863281 157.808594 144.21875 C 154.730469 142.457031 151.054688 141.472656 147.183594 141.367188 C 142.902344 141.246094 138.53125 142.175781 134.203125 144.121094 C 132.339844 144.957031 123.195312 148.921875 117.394531 148.929688 C 128.046875 156.523438 138.851562 155.488281 147.578125 154.648438 C 156.144531 153.828125 162.910156 153.179688 165.933594 160.8125 L 166.335938 161.816406 L 165.476562 161.160156 C 164.300781 160.253906 162.695312 159.96875 160.953125 160.351562 C 158.890625 160.808594 157.027344 162.117188 156.203125 163.695312 L 155.691406 164.683594 L 155.644531 163.566406 C 155.601562 162.628906 155.699219 161.851562 156.210938 161.128906 C 154.804688 161.589844 154.574219 162.339844 154.09375 163.917969 C 153.992188 164.234375 153.886719 164.59375 153.757812 164.976562 L 153.503906 165.734375 L 153.199219 164.996094 C 152.648438 163.664062 152.910156 162.636719 153.40625 161.617188 C 152.292969 162.113281 151.898438 163.234375 151.488281 164.410156 C 151.382812 164.710938 151.277344 165.015625 151.15625 165.3125 L 150.878906 165.996094 L 150.605469 165.3125 C 150.175781 164.246094 150.097656 163.183594 150.359375 162.320312 C 149.175781 162.953125 148.609375 164.011719 148.40625 165.871094 L 148.328125 166.582031 L 147.878906 166.027344 C 147.148438 165.121094 146.976562 164.285156 147.378906 163.308594 C 146.46875 164.308594 145.90625 166.132812 145.496094 167.746094 L 145.332031 168.398438 L 144.960938 167.839844 C 144.042969 166.453125 144.34375 164.902344 144.921875 163.652344 C 144.046875 164.339844 143.472656 165.703125 142.742188 167.449219 L 142.304688 168.484375 L 142.042969 167.773438 C 141.554688 166.4375 141.667969 164.882812 142.261719 163.757812 C 140.988281 164.519531 140.089844 166.246094 139.71875 167.859375 L 139.445312 169.03125 L 139.140625 167.867188 C 138.859375 166.808594 139.226562 165.015625 139.773438 163.84375 C 138.382812 164.636719 137.125 166.214844 136.492188 168.035156 L 136.09375 169.183594 L 135.917969 167.984375 C 135.730469 166.742188 136.429688 164.671875 137.308594 163.480469 C 135.453125 164.027344 134.601562 165.351562 133.46875 167.324219 L 132.960938 168.199219 L 132.910156 167.1875 C 132.839844 165.773438 133.347656 164.054688 134.316406 163 C 132.738281 163.507812 131.035156 164.773438 130.128906 166.691406 L 129.6875 167.625 L 129.5625 166.601562 C 129.414062 165.390625 130.054688 163.667969 131.238281 162.566406 C 129.648438 162.953125 128.023438 164.1875 127.027344 165.855469 L 126.425781 166.855469 L 126.472656 165.691406 C 126.558594 163.433594 128.09375 162.207031 129.488281 161.335938 C 127.582031 161.578125 125.894531 162.785156 124.027344 164.5 L 123.058594 165.390625 L 123.550781 164.167969 C 124.273438 162.371094 126.644531 160.730469 127.996094 159.914062 C 121.511719 159.585938 117.695312 155.757812 115.367188 153.421875 C 114.300781 152.347656 113.457031 151.503906 112.914062 151.535156 C 112.757812 151.546875 112.648438 151.601562 112.5625 151.714844 C 112.332031 152.003906 112.148438 152.800781 112.542969 154.949219 C 113.292969 159.007812 112.988281 161.558594 111.699219 161.949219 C 110.761719 162.230469 109.621094 161.230469 108.863281 159.457031 C 106.621094 154.726562 102.738281 151.75 100.023438 152.695312 C 96.953125 153.761719 96.273438 159.4375 98.207031 167.871094 C 100.09375 176.097656 104.253906 190.300781 110.941406 193.015625 C 112.464844 193.632812 113.980469 193.535156 115.214844 192.734375 L 115.535156 192.523438 L 115.65625 192.890625 C 119.292969 203.71875 131.902344 232.238281 145.675781 246.417969 C 150.9375 251.835938 156.695312 257.46875 163.160156 261.972656 C 170.859375 267.328125 177.839844 269.871094 184.503906 269.738281 C 191.46875 269.605469 198.453125 266.742188 205.855469 260.992188 C 212.203125 256.0625 217.796875 249.800781 222.289062 244.769531 L 222.527344 244.503906 C 227.996094 238.414062 233.523438 230.578125 238.511719 221.835938 C 243.046875 213.894531 247.054688 205.390625 250.113281 197.226562 C 249.53125 196.554688 246.957031 193.492188 244.550781 189.308594 C 242.039062 184.933594 239.207031 178.398438 239.980469 172.109375 L 240.570312 172.179688 C 239.816406 178.300781 242.597656 184.707031 245.0625 189 C 247.746094 193.675781 250.648438 196.929688 250.675781 196.964844 L 250.796875 197.097656 L 250.734375 197.265625 C 247.65625 205.511719 243.609375 214.109375 239.03125 222.132812 C 234.019531 230.910156 228.464844 238.78125 222.96875 244.902344 L 222.734375 245.167969 C 218.222656 250.214844 212.613281 256.5 206.21875 261.464844 C 198.710938 267.296875 191.613281 270.199219 184.515625 270.335938 C 184.351562 270.339844 184.183594 270.339844 184.015625 270.339844 " fill-opacity="1" fill-rule="nonzero"/></g><path fill="#03072b" d="M 173.578125 230.351562 L 173.714844 230.214844 L 173.878906 230.324219 C 178.535156 233.414062 183.664062 234.378906 187.59375 232.898438 C 190.4375 231.828125 192.695312 231.125 195.828125 231.820312 C 197.753906 232.25 202.65625 232.769531 205.902344 231.136719 C 204.585938 231.535156 203.167969 231.667969 201.886719 231.667969 C 201.453125 231.667969 201.039062 231.652344 200.644531 231.628906 C 197.941406 231.460938 194.898438 230.742188 192.707031 229.753906 C 190.105469 228.578125 187.585938 228.054688 185.289062 227.914062 C 185.121094 228.652344 184.789062 229.273438 184.222656 229.664062 C 180.988281 231.90625 177.152344 231.210938 174.644531 229.8125 L 174.234375 229.582031 L 174.660156 229.386719 C 176.089844 228.730469 179.964844 227.214844 184.90625 227.417969 C 185.25 224.949219 183.917969 221.222656 183.683594 220.589844 C 182.585938 220.671875 181.460938 220.136719 180.273438 219.566406 C 178.753906 218.839844 177.183594 218.089844 175.429688 218.5 C 173.214844 219.019531 170.546875 221.328125 169.503906 222.296875 C 167.289062 224.351562 160.546875 230.210938 158.425781 230.929688 L 157.933594 231.09375 C 159.3125 231.410156 162.386719 231.824219 165.457031 231.898438 C 169.601562 231.996094 172.484375 231.449219 173.578125 230.351562 " fill-opacity="1" fill-rule="nonzero"/><path fill="#03072b" d="M 175.308594 229.621094 C 177.6875 230.792969 181.074219 231.265625 183.949219 229.273438 C 184.394531 228.964844 184.667969 228.480469 184.816406 227.890625 C 180.460938 227.726562 176.960938 228.917969 175.308594 229.621094 " fill-opacity="1" fill-rule="nonzero"/><path fill="#03072b" d="M 185.371094 227.441406 C 187.707031 227.585938 190.261719 228.125 192.902344 229.320312 C 197.03125 231.183594 204.515625 232.257812 208.066406 229.535156 C 207.871094 229.53125 207.910156 229.566406 207.570312 229.511719 C 206.082031 229.304688 204.175781 227.421875 201.976562 225.25 C 198.738281 222.054688 194.714844 218.085938 190.289062 218.085938 C 190.230469 218.085938 190.171875 218.085938 190.117188 218.089844 C 188.449219 218.128906 187.316406 218.84375 186.3125 219.480469 C 185.617188 219.921875 184.953125 220.339844 184.164062 220.515625 C 184.488281 221.394531 185.707031 224.914062 185.371094 227.441406 " fill-opacity="1" fill-rule="nonzero"/><path fill="#03072b" d="M 208.011719 230.160156 C 206.644531 231.664062 204.402344 232.515625 201.347656 232.695312 C 198.972656 232.832031 196.695312 232.503906 195.726562 232.289062 C 192.71875 231.621094 190.527344 232.304688 187.761719 233.347656 C 186.496094 233.820312 185.109375 234.054688 183.660156 234.054688 C 180.5 234.054688 177.023438 232.945312 173.769531 230.824219 C 170.851562 233.367188 160.628906 232.222656 157.773438 231.546875 C 157.9375 231.738281 158.144531 231.976562 158.308594 232.132812 C 159.875 233.636719 163.546875 237.164062 168.367188 240.300781 C 174.214844 244.105469 179.730469 246.03125 184.769531 246.03125 C 184.9375 246.03125 185.101562 246.03125 185.265625 246.027344 C 192.019531 245.855469 197.746094 241.707031 201.359375 238.257812 C 204.597656 235.167969 207.117188 231.527344 208.023438 230.152344 C 208.019531 230.15625 208.015625 230.15625 208.011719 230.160156 " fill-opacity="1" fill-rule="nonzero"/><path fill="#03072b" d="M 228.097656 156.035156 L 228.308594 156.59375 C 221.769531 159.058594 215.367188 163.976562 211.601562 169.429688 L 211.113281 169.089844 C 214.941406 163.542969 221.449219 158.542969 228.097656 156.035156 Z M 218.898438 177.347656 L 218.328125 177.171875 C 219.921875 171.980469 224 163.804688 228.0625 159.109375 L 228.511719 159.5 C 224.5 164.136719 220.472656 172.214844 218.898438 177.347656 Z M 206.144531 166.386719 C 206.273438 167.820312 207.675781 171.683594 209.976562 175.210938 C 211.980469 178.28125 215.253906 182.035156 219.480469 182.484375 C 222.523438 182.808594 225.109375 179.523438 226.746094 176.710938 C 228.664062 173.40625 230.117188 169.285156 230.707031 166.667969 C 231.453125 163.351562 232.054688 158.570312 231.507812 155.089844 C 231.179688 152.996094 230.476562 153.019531 228.59375 153.070312 C 228.285156 153.082031 227.933594 153.089844 227.5625 153.089844 C 227.011719 153.089844 224.839844 153.230469 221.933594 153.59375 C 218.050781 154.90625 214.238281 156.308594 211.371094 158.0625 C 207.503906 160.421875 205.84375 163.066406 206.144531 166.386719 " fill-opacity="1" fill-rule="nonzero"/><path fill="#03072b" d="M 262.167969 169.089844 L 261.675781 169.429688 C 257.914062 163.976562 251.511719 159.058594 244.96875 156.59375 L 245.179688 156.035156 C 251.828125 158.542969 258.335938 163.542969 262.167969 169.089844 Z M 254.378906 177.347656 C 252.804688 172.214844 248.777344 164.136719 244.765625 159.5 L 245.214844 159.109375 C 249.277344 163.804688 253.355469 171.980469 254.949219 177.171875 Z M 244.714844 153.070312 C 244.441406 153.0625 244.191406 153.054688 243.964844 153.054688 C 242.636719 153.054688 242.082031 153.300781 241.800781 155.089844 C 241.253906 158.570312 241.855469 163.351562 242.601562 166.667969 C 243.191406 169.285156 244.644531 173.40625 246.5625 176.710938 C 248.195312 179.523438 250.78125 182.808594 253.828125 182.484375 C 258.050781 182.035156 261.328125 178.28125 263.332031 175.210938 C 265.632812 171.683594 267.035156 167.820312 267.164062 166.386719 C 267.464844 163.066406 265.804688 160.421875 261.9375 158.0625 C 259.066406 156.308594 255.257812 154.90625 251.371094 153.59375 C 248.464844 153.230469 246.296875 153.089844 245.746094 153.089844 C 245.375 153.089844 245.023438 153.082031 244.714844 153.070312 " fill-opacity="1" fill-rule="nonzero"/><path fill="#03072b" d="M 236.71875 149.328125 C 236.355469 149.328125 236.011719 149.195312 235.730469 148.96875 C 234.753906 152.542969 234.257812 159.261719 234.464844 166.179688 C 234.667969 173.082031 235.5 178.460938 236.65625 180.402344 C 237.554688 178.886719 238.261719 175.273438 238.625 170.472656 C 238.683594 169.84375 238.800781 167.644531 238.84375 166.179688 C 239.046875 159.3125 238.5625 152.640625 237.601562 149.046875 C 237.339844 149.226562 237.039062 149.328125 236.71875 149.328125 " fill-opacity="1" fill-rule="nonzero"/><path fill="#03072b" d="M 228.417969 144.375 L 227.992188 144.792969 C 221.511719 138.191406 213.53125 132.855469 208.992188 130.996094 L 209.21875 130.445312 C 212.804688 131.914062 216.703125 134.570312 219.34375 136.535156 C 222.613281 138.976562 225.921875 141.832031 228.417969 144.375 Z M 228.171875 147.363281 C 219.632812 143.824219 211.585938 143.980469 208.523438 144.207031 C 208.375 144.21875 208.3125 144.226562 208.273438 144.226562 L 208.273438 143.628906 C 208.300781 143.628906 208.371094 143.621094 208.480469 143.613281 C 211.585938 143.378906 219.742188 143.226562 228.402344 146.8125 Z M 216.808594 128.941406 C 210.507812 124.085938 206.859375 123.492188 205.453125 123.492188 C 205.402344 123.492188 205.347656 123.492188 205.300781 123.496094 C 204.332031 123.527344 203.636719 123.835938 203.285156 124.394531 C 202.296875 125.953125 203.332031 127.738281 204.53125 129.800781 C 205.121094 130.816406 205.730469 131.867188 206.125 132.960938 C 207.8125 137.617188 206.605469 139.839844 205.4375 141.992188 C 205.105469 142.597656 204.765625 143.230469 204.5 143.902344 C 203.757812 145.792969 203.863281 147.292969 204.8125 148.371094 C 206.535156 150.324219 211.101562 151.046875 218.023438 150.460938 C 223.328125 150.011719 229.105469 148.875 232.882812 147.925781 C 232.511719 147.117188 231.449219 144.863281 229.835938 141.929688 C 225.390625 136.5625 220.964844 132.144531 216.808594 128.941406 " fill-opacity="1" fill-rule="nonzero"/><path fill="#03072b" d="M 253.933594 136.535156 C 256.574219 134.570312 260.472656 131.914062 264.058594 130.445312 L 264.285156 130.996094 C 259.75 132.855469 251.765625 138.191406 245.289062 144.792969 L 244.863281 144.375 C 247.355469 141.832031 250.664062 138.976562 253.933594 136.535156 Z M 265.007812 143.628906 L 265.007812 144.226562 C 264.964844 144.226562 264.902344 144.21875 264.753906 144.207031 C 261.691406 143.980469 253.644531 143.824219 245.105469 147.363281 L 244.875 146.8125 C 253.535156 143.226562 261.691406 143.378906 264.796875 143.613281 C 264.90625 143.621094 264.976562 143.628906 265.007812 143.628906 Z M 255.285156 150.460938 C 262.207031 151.046875 266.773438 150.324219 268.492188 148.371094 C 269.445312 147.292969 269.550781 145.792969 268.808594 143.902344 C 268.542969 143.230469 268.199219 142.597656 267.871094 141.988281 C 266.703125 139.839844 265.496094 137.617188 267.183594 132.960938 C 267.578125 131.867188 268.1875 130.816406 268.777344 129.800781 C 269.976562 127.738281 271.007812 125.953125 270.023438 124.394531 C 269.671875 123.835938 268.972656 123.527344 268.007812 123.496094 C 266.722656 123.453125 263.039062 123.902344 256.5 128.941406 C 252.34375 132.144531 247.917969 136.566406 243.472656 141.929688 C 241.859375 144.863281 240.796875 147.117188 240.425781 147.925781 C 244.203125 148.875 249.980469 150.011719 255.285156 150.460938 " fill-opacity="1" fill-rule="nonzero"/><g clip-path="url(#8b6bb25927)"><path fill="#03072b" d="M 239.441406 166.199219 C 239.398438 167.675781 239.324219 169.074219 239.230469 170.382812 C 240.054688 172.4375 246.121094 187.136719 251.332031 188.9375 C 253.207031 189.585938 256 188.753906 259.203125 186.597656 C 262.28125 184.523438 265.464844 181.371094 267.9375 177.953125 C 270.269531 174.730469 271.847656 171.46875 272.503906 168.523438 C 273.25 165.175781 272.796875 162.386719 271.15625 160.226562 C 269.425781 157.949219 264.769531 156.003906 257.683594 154.605469 C 256.574219 154.386719 255.476562 154.191406 254.429688 154.027344 C 257.316406 155.070312 260.046875 156.207031 262.246094 157.554688 C 266.273438 160.011719 268.078125 162.917969 267.757812 166.441406 C 267.496094 169.363281 262.214844 182.191406 253.890625 183.078125 C 253.730469 183.097656 253.574219 183.105469 253.414062 183.105469 C 250.90625 183.105469 248.371094 181.011719 246.046875 177.011719 C 244.097656 173.652344 242.621094 169.460938 242.019531 166.796875 C 241.261719 163.429688 240.648438 158.558594 241.210938 154.996094 C 241.621094 152.386719 242.792969 152.421875 244.730469 152.476562 C 245.050781 152.484375 245.382812 152.496094 245.746094 152.496094 C 246.148438 152.496094 247.199219 152.554688 248.671875 152.691406 C 246.582031 152 244.4375 151.285156 242.4375 150.527344 L 239.917969 149.578125 L 242.582031 149.953125 C 245.21875 150.324219 247.621094 150.714844 249.949219 151.09375 C 255.5625 152 260.40625 152.785156 265.347656 152.785156 C 270.339844 152.785156 273.390625 151.488281 274.417969 148.925781 C 275.449219 146.355469 274.65625 143.765625 273.894531 141.265625 C 273.601562 140.316406 273.304688 139.328125 273.105469 138.355469 C 272.265625 134.210938 272.933594 131.296875 275.40625 128.296875 C 277.636719 125.59375 278.527344 123.265625 278.054688 121.371094 C 277.550781 119.351562 275.589844 118.449219 275.203125 118.289062 C 271.042969 116.570312 266.628906 117.054688 262.085938 119.726562 C 258.417969 121.886719 254.65625 125.464844 250.90625 130.363281 C 248.648438 133.316406 246.664062 136.402344 245.042969 139.160156 C 248.832031 134.828125 252.582031 131.210938 256.136719 128.46875 C 260.847656 124.835938 265.179688 122.804688 268.023438 122.898438 C 269.199219 122.9375 270.066406 123.34375 270.527344 124.074219 C 271.707031 125.941406 270.53125 127.960938 269.292969 130.101562 C 268.714844 131.09375 268.121094 132.121094 267.742188 133.164062 C 266.148438 137.566406 267.238281 139.578125 268.394531 141.707031 C 268.734375 142.332031 269.082031 142.976562 269.363281 143.6875 C 270.191406 145.796875 270.050781 147.507812 268.941406 148.765625 C 267.0625 150.894531 262.453125 151.664062 255.238281 151.054688 C 249.730469 150.59375 243.722656 149.386719 239.933594 148.414062 L 239.59375 148.328125 L 239.734375 148.003906 C 239.75 147.96875 240.375 146.558594 241.503906 144.355469 C 240.382812 145.777344 239.261719 147.257812 238.148438 148.789062 C 239.15625 152.460938 239.652344 159.105469 239.441406 166.199219 " fill-opacity="1" fill-rule="nonzero"/></g><path fill="#03072b" d="M 236.71875 148.851562 C 237.441406 148.851562 238.03125 148.109375 238.03125 147.199219 C 238.03125 146.289062 237.441406 145.546875 236.71875 145.546875 C 235.996094 145.546875 235.40625 146.289062 235.40625 147.199219 C 235.40625 148.109375 235.996094 148.851562 236.71875 148.851562 " fill-opacity="1" fill-rule="nonzero"/><path fill="#03072b" d="M 233.574219 148.003906 L 233.714844 148.328125 L 233.375 148.414062 C 229.585938 149.386719 223.578125 150.59375 218.070312 151.054688 C 210.855469 151.664062 206.246094 150.894531 204.367188 148.765625 C 203.257812 147.507812 203.117188 145.796875 203.945312 143.6875 C 204.222656 142.976562 204.574219 142.332031 204.914062 141.707031 C 206.070312 139.578125 207.160156 137.566406 205.566406 133.164062 C 205.1875 132.121094 204.59375 131.09375 204.015625 130.101562 C 202.773438 127.960938 201.601562 125.941406 202.78125 124.074219 C 203.242188 123.34375 204.109375 122.9375 205.285156 122.898438 C 208.128906 122.804688 212.460938 124.835938 217.171875 128.46875 C 220.726562 131.210938 224.476562 134.828125 228.265625 139.160156 C 226.640625 136.398438 224.65625 133.308594 222.394531 130.355469 C 218.648438 125.460938 214.886719 121.882812 211.21875 119.726562 C 206.679688 117.054688 202.265625 116.570312 198.105469 118.289062 C 197.71875 118.449219 195.757812 119.351562 195.253906 121.371094 C 194.78125 123.265625 195.671875 125.59375 197.902344 128.296875 C 200.375 131.296875 201.042969 134.210938 200.203125 138.355469 C 200.003906 139.328125 199.703125 140.316406 199.414062 141.265625 C 197.859375 146.355469 198.386719 147.660156 198.890625 148.925781 C 199.917969 151.488281 202.96875 152.785156 207.960938 152.785156 C 212.898438 152.785156 217.746094 152 223.359375 151.09375 C 225.683594 150.714844 228.089844 150.324219 230.726562 149.953125 L 233.386719 149.578125 L 230.871094 150.527344 C 228.871094 151.285156 226.726562 152 224.636719 152.691406 C 226.105469 152.554688 227.160156 152.496094 227.5625 152.496094 C 227.925781 152.496094 228.257812 152.484375 228.578125 152.476562 C 230.515625 152.421875 231.6875 152.386719 232.097656 154.996094 C 232.660156 158.558594 232.046875 163.429688 231.289062 166.796875 C 230.6875 169.460938 229.210938 173.652344 227.257812 177.011719 C 224.789062 181.265625 222.078125 183.363281 219.417969 183.078125 C 211.09375 182.191406 205.8125 169.363281 205.550781 166.441406 C 205.230469 162.917969 207.035156 160.011719 211.058594 157.554688 C 213.261719 156.207031 215.992188 155.070312 218.878906 154.027344 C 217.828125 154.191406 216.734375 154.386719 215.625 154.605469 C 208.539062 156.003906 203.882812 157.949219 202.152344 160.226562 C 200.460938 162.453125 200.035156 165.359375 200.886719 168.863281 C 201.636719 171.945312 203.351562 175.324219 205.839844 178.640625 C 208.328125 181.953125 211.449219 184.957031 214.40625 186.886719 C 217.496094 188.902344 220.179688 189.632812 221.96875 188.941406 C 226.136719 187.328125 232.996094 173.664062 234.066406 170.230469 C 233.976562 168.960938 233.910156 167.617188 233.867188 166.199219 C 233.65625 159.105469 234.152344 152.460938 235.160156 148.789062 C 234.042969 147.257812 232.925781 145.777344 231.804688 144.359375 C 232.929688 146.558594 233.558594 147.96875 233.574219 148.003906 " fill-opacity="1" fill-rule="nonzero"/><path fill="#03072b" d="M 235.261719 144.324219 C 234.683594 140.070312 233.460938 133.65625 231.75 128.421875 C 230.257812 123.867188 227.839844 118.519531 224.777344 118.898438 L 224.703125 118.304688 C 227.484375 117.960938 230.046875 121.304688 232.3125 128.238281 C 234.039062 133.507812 235.273438 139.964844 235.851562 144.246094 L 235.261719 144.324219 " fill-opacity="1" fill-rule="nonzero"/><path fill="#03072b" d="M 237.847656 144.324219 L 237.257812 144.246094 C 237.839844 139.964844 239.074219 133.507812 240.796875 128.238281 C 243.0625 121.304688 245.621094 117.960938 248.40625 118.304688 L 248.335938 118.898438 C 245.265625 118.515625 242.851562 123.867188 241.363281 128.421875 C 239.652344 133.65625 238.425781 140.070312 237.847656 144.324219 " fill-opacity="1" fill-rule="nonzero"/></svg>