<svg xmlns="http://www.w3.org/2000/svg" xmlns:xlink="http://www.w3.org/1999/xlink" width="200" zoomAndPan="magnify" viewBox="0 0 375 374.999991" height="200" preserveAspectRatio="xMidYMid meet" version="1.0"><defs><g/><clipPath id="9129615f03"><path d="M 67.261719 126.164062 L 172.261719 126.164062 L 172.261719 190.359375 L 67.261719 190.359375 Z M 67.261719 126.164062 " clip-rule="nonzero"/></clipPath><clipPath id="297419da9c"><path d="M 77 110.125 L 165 110.125 L 165 147 L 77 147 Z M 77 110.125 " clip-rule="nonzero"/></clipPath><clipPath id="77eddd882f"><path d="M 202.566406 126.164062 L 307.566406 126.164062 L 307.566406 190.359375 L 202.566406 190.359375 Z M 202.566406 126.164062 " clip-rule="nonzero"/></clipPath><clipPath id="7683c4f9e3"><path d="M 210 110.125 L 298 110.125 L 298 147 L 210 147 Z M 210 110.125 " clip-rule="nonzero"/></clipPath></defs><g clip-path="url(#9129615f03)"><path fill="#ffffff" d="M 172.265625 168.046875 C 172.265625 168.046875 167.878906 153.101562 159.878906 154.75 C 159.878906 154.75 161.195312 160.90625 166.070312 165.628906 C 166.070312 165.628906 159.769531 160.136719 156.589844 156.453125 C 153.410156 152.769531 156.589844 156.949219 156.589844 156.949219 C 156.589844 156.949219 162.398438 165.300781 165.46875 167.277344 C 165.46875 167.277344 155.273438 160.464844 152.535156 157.167969 C 152.535156 157.167969 154.179688 163.210938 161.085938 168.597656 C 161.085938 168.597656 151.546875 162.222656 149.574219 158.816406 C 149.574219 158.816406 156.808594 172.664062 155.273438 177.832031 C 155.386719 177.453125 154.964844 176.5625 154.859375 176.214844 C 154.382812 174.652344 153.742188 173.140625 153.015625 171.679688 C 151.308594 168.25 149.074219 165.0625 146.496094 162.234375 C 146.761719 162.523438 146.699219 164.136719 146.761719 164.578125 C 146.910156 165.636719 147.089844 166.691406 147.3125 167.738281 C 147.859375 170.300781 148.625 172.84375 149.792969 175.191406 C 149.792969 175.191406 144.421875 167.828125 143.546875 164.089844 C 143.546875 164.089844 139.929688 169.695312 146.835938 185.085938 C 146.835938 185.085938 140.585938 174.972656 140.039062 166.621094 C 140.039062 166.621094 141.574219 179.589844 140.039062 184.316406 C 140.039062 184.316406 139.929688 173.308594 137.519531 169.851562 C 137.519531 169.851562 138.394531 183.105469 133.792969 186.84375 C 133.792969 186.84375 137.082031 179.367188 134.339844 168.816406 C 134.339844 168.816406 134.339844 181.785156 127.984375 187.722656 C 127.984375 187.722656 133.023438 180.6875 131.488281 169.917969 C 131.488281 169.917969 131.820312 183.875 118.664062 190.359375 C 118.664062 190.359375 126.667969 185.195312 127.324219 170.355469 C 127.324219 170.355469 126.667969 178.710938 116.800781 185.964844 C 116.800781 185.964844 124.144531 178.597656 124.144531 169.695312 C 124.144531 169.695312 122.0625 180.46875 112.855469 184.863281 C 112.855469 184.863281 121.078125 179.917969 122.722656 166.398438 C 122.722656 166.398438 119.871094 180.796875 106.5 185.632812 C 106.5 185.632812 115.378906 181.898438 119.433594 168.597656 C 119.433594 168.597656 110.992188 191.457031 94.882812 181.457031 C 94.882812 181.457031 110.117188 190.25 118.226562 166.070312 C 118.226562 166.070312 111.210938 178.597656 102.882812 180.6875 C 102.882812 180.6875 112.308594 175.742188 114.828125 167.167969 C 114.828125 167.167969 102.445312 183.546875 95.648438 178.820312 C 95.648438 178.820312 102.003906 183.324219 112.855469 165.519531 C 112.855469 165.519531 103.867188 180.46875 90.714844 175.742188 C 90.714844 175.742188 101.785156 179.257812 112.417969 163.210938 C 112.417969 163.210938 101.894531 176.511719 89.730469 172.992188 C 89.730469 172.992188 101.128906 174.644531 109.789062 163.433594 C 109.789062 163.433594 87.757812 179.589844 75.699219 166.839844 C 75.699219 166.839844 85.894531 178.269531 108.472656 161.125 C 108.472656 161.125 86.332031 178.378906 73.617188 162.113281 C 73.617188 162.113281 83.8125 174.53125 105.074219 161.015625 C 105.074219 161.015625 88.632812 169.917969 80.304688 162.882812 C 80.304688 162.882812 90.386719 168.378906 101.894531 160.023438 C 101.894531 160.023438 88.414062 166.179688 82.386719 160.792969 C 82.386719 160.792969 88.851562 164.640625 98.167969 158.816406 C 98.167969 158.816406 87.097656 162.554688 83.371094 159.367188 C 83.371094 159.367188 88.304688 161.785156 94.773438 158.046875 C 94.773438 158.046875 76.355469 159.914062 69.671875 153.652344 C 69.671875 153.652344 76.46875 158.925781 92.796875 155.300781 C 92.796875 155.300781 74.496094 157.167969 67.261719 150.574219 C 69.910156 152.988281 75.402344 153.46875 78.703125 153.308594 C 84.53125 153.023438 90.007812 150.34375 94.445312 146.65625 C 95.160156 146.0625 95.875 145.414062 96.238281 144.554688 C 96.871094 143.054688 95.664062 141.378906 94.972656 140.089844 C 94.03125 138.335938 92.9375 136.675781 91.746094 135.085938 C 89.355469 131.898438 86.589844 129.019531 83.8125 126.171875 C 87.4375 128.71875 90.859375 131.675781 93.933594 134.863281 C 96.289062 137.304688 98.382812 139.871094 99.8125 142.9375 C 101.34375 146.230469 103.316406 149.386719 105.988281 151.871094 C 114.046875 159.359375 125.445312 161.367188 136.039062 159.605469 C 142.449219 158.535156 148.617188 156.230469 154.410156 153.308594 C 154.410156 153.308594 169.398438 143.710938 172.265625 168.046875 " fill-opacity="1" fill-rule="nonzero"/></g><g clip-path="url(#297419da9c)"><path fill="#ffffff" d="M 164.441406 146.550781 C 164.121094 146.175781 163.792969 145.804688 163.453125 145.445312 C 163.117188 145.085938 162.773438 144.726562 162.425781 144.378906 C 161.726562 143.675781 161.011719 142.992188 160.28125 142.324219 C 158.824219 140.984375 157.308594 139.707031 155.746094 138.484375 C 154.964844 137.875 154.175781 137.273438 153.371094 136.695312 C 153.171875 136.546875 152.96875 136.402344 152.765625 136.257812 C 152.5625 136.113281 152.363281 135.96875 152.160156 135.828125 L 151.546875 135.402344 L 150.933594 134.984375 C 149.289062 133.871094 147.601562 132.816406 145.882812 131.816406 C 145.019531 131.320312 144.15625 130.828125 143.277344 130.363281 L 142.621094 130.011719 L 141.957031 129.667969 C 141.515625 129.4375 141.070312 129.21875 140.625 128.992188 C 138.839844 128.109375 137.023438 127.292969 135.179688 126.53125 C 133.339844 125.773438 131.46875 125.074219 129.574219 124.441406 C 129.339844 124.363281 129.105469 124.28125 128.867188 124.207031 L 128.152344 123.980469 C 127.679688 123.824219 127.199219 123.683594 126.722656 123.542969 C 126.246094 123.394531 125.761719 123.261719 125.28125 123.128906 C 124.804688 122.988281 124.320312 122.867188 123.835938 122.738281 C 121.902344 122.238281 119.953125 121.804688 117.988281 121.4375 L 117.253906 121.300781 C 117.007812 121.257812 116.761719 121.21875 116.515625 121.175781 C 116.019531 121.09375 115.527344 121.007812 115.035156 120.9375 C 114.046875 120.789062 113.054688 120.65625 112.0625 120.542969 C 111.566406 120.488281 111.070312 120.429688 110.574219 120.382812 L 109.082031 120.246094 C 108.582031 120.207031 108.085938 120.175781 107.585938 120.140625 L 107.222656 120.113281 L 106.875 120.089844 C 106.636719 120.070312 106.398438 120.046875 106.15625 120.027344 C 104.242188 119.839844 102.320312 119.578125 100.417969 119.25 C 99.464844 119.085938 98.515625 118.902344 97.570312 118.699219 C 96.625 118.5 95.683594 118.28125 94.753906 118.039062 C 93.820312 117.796875 92.894531 117.539062 91.976562 117.253906 C 91.058594 116.96875 90.152344 116.660156 89.253906 116.324219 C 88.359375 115.992188 87.476562 115.625 86.613281 115.230469 C 85.75 114.835938 84.902344 114.40625 84.082031 113.9375 C 83.265625 113.472656 82.472656 112.964844 81.71875 112.414062 C 80.96875 111.863281 80.253906 111.265625 79.597656 110.621094 L 79.566406 110.589844 C 79.113281 110.144531 78.382812 110.152344 77.9375 110.609375 C 77.542969 111.011719 77.503906 111.636719 77.820312 112.082031 C 78.273438 112.726562 78.726562 113.359375 79.183594 113.992188 C 79.640625 114.625 80.101562 115.253906 80.566406 115.882812 C 81.027344 116.511719 81.492188 117.136719 81.960938 117.761719 C 82.425781 118.386719 82.894531 119.007812 83.371094 119.628906 L 84.082031 120.558594 C 84.320312 120.867188 84.554688 121.175781 84.796875 121.484375 L 85.515625 122.40625 L 86.238281 123.324219 L 86.96875 124.242188 C 87.210938 124.546875 87.453125 124.851562 87.699219 125.152344 C 88.1875 125.761719 88.683594 126.363281 89.179688 126.964844 L 89.925781 127.867188 C 90.175781 128.167969 90.425781 128.464844 90.679688 128.761719 C 91.183594 129.359375 91.695312 129.949219 92.203125 130.539062 C 92.71875 131.125 93.230469 131.714844 93.753906 132.292969 C 94.273438 132.875 94.804688 133.445312 95.332031 134.019531 L 96.140625 134.871094 L 96.339844 135.082031 L 96.542969 135.292969 L 97.363281 136.128906 L 97.777344 136.542969 C 98.054688 136.816406 98.328125 137.09375 98.613281 137.359375 L 99.039062 137.765625 C 99.179688 137.898438 99.320312 138.035156 99.464844 138.164062 C 99.753906 138.425781 100.039062 138.691406 100.332031 138.953125 L 101.214844 139.714844 L 102.125 140.449219 L 101.300781 139.621094 L 100.5 138.773438 L 99.71875 137.914062 C 99.585938 137.769531 99.460938 137.625 99.332031 137.476562 L 98.949219 137.039062 C 98.691406 136.75 98.445312 136.453125 98.191406 136.15625 L 97.816406 135.714844 L 97.074219 134.816406 L 96.890625 134.59375 L 96.707031 134.367188 L 95.976562 133.460938 C 95.496094 132.851562 95.011719 132.25 94.539062 131.632812 C 94.300781 131.328125 94.0625 131.023438 93.828125 130.710938 L 93.121094 129.789062 C 92.652344 129.167969 92.183594 128.550781 91.722656 127.929688 L 90.34375 126.058594 C 89.886719 125.429688 89.429688 124.804688 88.976562 124.171875 C 88.523438 123.542969 88.074219 122.914062 87.621094 122.28125 L 86.949219 121.332031 L 86.28125 120.382812 C 85.835938 119.746094 85.390625 119.113281 84.949219 118.472656 L 83.625 116.558594 L 82.316406 114.636719 L 81.011719 112.710938 C 80.582031 112.070312 80.148438 111.421875 79.730469 110.78125 L 77.953125 112.242188 C 78.679688 113 79.460938 113.695312 80.277344 114.335938 C 81.097656 114.96875 81.957031 115.546875 82.835938 116.078125 C 83.054688 116.210938 83.277344 116.339844 83.496094 116.46875 C 83.722656 116.589844 83.945312 116.71875 84.167969 116.839844 C 84.394531 116.957031 84.621094 117.082031 84.847656 117.195312 L 85.191406 117.367188 L 85.53125 117.535156 C 86.449219 117.980469 87.382812 118.382812 88.324219 118.753906 C 90.207031 119.5 92.128906 120.113281 94.070312 120.640625 C 95.042969 120.902344 96.019531 121.136719 96.996094 121.355469 C 97.976562 121.570312 98.960938 121.765625 99.945312 121.941406 C 100.929688 122.121094 101.921875 122.273438 102.914062 122.410156 C 103.90625 122.546875 104.898438 122.667969 105.902344 122.757812 C 106.152344 122.78125 106.40625 122.804688 106.65625 122.824219 L 107.042969 122.851562 L 107.417969 122.875 L 108.867188 122.976562 L 110.316406 123.097656 C 110.796875 123.144531 111.28125 123.199219 111.761719 123.246094 C 112.726562 123.355469 113.6875 123.46875 114.648438 123.605469 C 115.128906 123.667969 115.605469 123.746094 116.085938 123.820312 C 116.324219 123.859375 116.566406 123.894531 116.804688 123.933594 L 117.519531 124.058594 C 119.433594 124.386719 121.332031 124.777344 123.21875 125.226562 C 123.691406 125.339844 124.164062 125.449219 124.632812 125.574219 C 125.105469 125.695312 125.574219 125.8125 126.042969 125.945312 C 126.511719 126.074219 126.980469 126.199219 127.445312 126.335938 L 128.144531 126.539062 C 128.378906 126.605469 128.609375 126.683594 128.839844 126.753906 C 130.699219 127.316406 132.542969 127.941406 134.363281 128.621094 C 136.1875 129.300781 137.992188 130.03125 139.773438 130.824219 C 140.214844 131.027344 140.664062 131.21875 141.105469 131.425781 L 141.765625 131.734375 L 142.425781 132.046875 C 143.308594 132.464844 144.179688 132.902344 145.050781 133.347656 C 145.914062 133.796875 146.777344 134.257812 147.632812 134.730469 C 148.0625 134.960938 148.484375 135.207031 148.910156 135.445312 L 149.542969 135.8125 L 149.863281 135.996094 L 150.175781 136.183594 C 151.019531 136.683594 151.851562 137.191406 152.679688 137.714844 C 153.507812 138.234375 154.328125 138.773438 155.140625 139.320312 C 156.765625 140.414062 158.359375 141.5625 159.917969 142.761719 C 160.304688 143.0625 160.691406 143.363281 161.074219 143.671875 C 161.460938 143.976562 161.839844 144.289062 162.21875 144.601562 C 162.976562 145.234375 163.722656 145.875 164.441406 146.550781 " fill-opacity="1" fill-rule="nonzero"/></g><g clip-path="url(#77eddd882f)"><path fill="#ffffff" d="M 202.566406 168.046875 C 202.566406 168.046875 206.953125 153.101562 214.953125 154.75 C 214.953125 154.75 213.636719 160.90625 208.761719 165.628906 C 208.761719 165.628906 215.0625 160.136719 218.242188 156.453125 C 221.421875 152.769531 218.242188 156.949219 218.242188 156.949219 C 218.242188 156.949219 212.433594 165.300781 209.363281 167.277344 C 209.363281 167.277344 219.558594 160.464844 222.296875 157.167969 C 222.296875 157.167969 220.652344 163.210938 213.75 168.597656 C 213.75 168.597656 223.285156 162.222656 225.257812 158.816406 C 225.257812 158.816406 218.023438 172.664062 219.558594 177.832031 C 219.445312 177.453125 219.867188 176.5625 219.972656 176.214844 C 220.449219 174.652344 221.089844 173.140625 221.816406 171.679688 C 223.523438 168.25 225.757812 165.0625 228.335938 162.234375 C 228.070312 162.523438 228.132812 164.136719 228.070312 164.578125 C 227.925781 165.636719 227.742188 166.691406 227.519531 167.738281 C 226.972656 170.300781 226.210938 172.84375 225.039062 175.191406 C 225.039062 175.191406 230.410156 167.828125 231.285156 164.089844 C 231.285156 164.089844 234.902344 169.695312 227.996094 185.085938 C 227.996094 185.085938 234.246094 174.972656 234.792969 166.621094 C 234.792969 166.621094 233.257812 179.589844 234.792969 184.316406 C 234.792969 184.316406 234.902344 173.308594 237.3125 169.851562 C 237.3125 169.851562 236.4375 183.105469 241.039062 186.84375 C 241.039062 186.84375 237.753906 179.367188 240.492188 168.816406 C 240.492188 168.816406 240.492188 181.785156 246.851562 187.722656 C 246.851562 187.722656 241.808594 180.6875 243.34375 169.917969 C 243.34375 169.917969 243.011719 183.875 256.167969 190.359375 C 256.167969 190.359375 248.164062 185.195312 247.507812 170.355469 C 247.507812 170.355469 248.164062 178.710938 258.03125 185.964844 C 258.03125 185.964844 250.6875 178.597656 250.6875 169.695312 C 250.6875 169.695312 252.769531 180.46875 261.976562 184.863281 C 261.976562 184.863281 253.753906 179.917969 252.109375 166.398438 C 252.109375 166.398438 254.960938 180.796875 268.332031 185.632812 C 268.332031 185.632812 259.453125 181.898438 255.398438 168.597656 C 255.398438 168.597656 263.839844 191.457031 279.953125 181.457031 C 279.953125 181.457031 264.714844 190.25 256.605469 166.070312 C 256.605469 166.070312 263.621094 178.597656 271.949219 180.6875 C 271.949219 180.6875 262.523438 175.742188 260.003906 167.167969 C 260.003906 167.167969 272.386719 183.546875 279.183594 178.820312 C 279.183594 178.820312 272.828125 183.324219 261.976562 165.519531 C 261.976562 165.519531 270.964844 180.46875 284.117188 175.742188 C 284.117188 175.742188 273.046875 179.257812 262.414062 163.210938 C 262.414062 163.210938 272.9375 176.511719 285.101562 172.992188 C 285.101562 172.992188 273.703125 174.644531 265.042969 163.433594 C 265.042969 163.433594 287.074219 179.589844 299.132812 166.839844 C 299.132812 166.839844 288.9375 178.269531 266.359375 161.125 C 266.359375 161.125 288.5 178.378906 301.214844 162.113281 C 301.214844 162.113281 291.023438 174.53125 269.757812 161.015625 C 269.757812 161.015625 286.199219 169.917969 294.527344 162.882812 C 294.527344 162.882812 284.445312 168.378906 272.9375 160.023438 C 272.9375 160.023438 286.417969 166.179688 292.445312 160.792969 C 292.445312 160.792969 285.980469 164.640625 276.664062 158.816406 C 276.664062 158.816406 287.734375 162.554688 291.460938 159.367188 C 291.460938 159.367188 286.527344 161.785156 280.0625 158.046875 C 280.0625 158.046875 298.476562 159.914062 305.160156 153.652344 C 305.160156 153.652344 298.363281 158.925781 282.035156 155.300781 C 282.035156 155.300781 300.339844 157.167969 307.570312 150.574219 C 304.921875 152.988281 299.429688 153.46875 296.128906 153.308594 C 290.300781 153.023438 284.824219 150.34375 280.386719 146.65625 C 279.671875 146.0625 278.957031 145.414062 278.59375 144.554688 C 277.960938 143.054688 279.167969 141.378906 279.863281 140.089844 C 280.800781 138.335938 281.898438 136.675781 283.085938 135.085938 C 285.476562 131.898438 288.242188 129.019531 291.023438 126.171875 C 287.394531 128.71875 283.972656 131.675781 280.898438 134.863281 C 278.542969 137.304688 276.449219 139.871094 275.019531 142.9375 C 273.488281 146.230469 271.515625 149.386719 268.84375 151.871094 C 260.789062 159.359375 249.386719 161.367188 238.796875 159.605469 C 232.382812 158.535156 226.214844 156.230469 220.421875 153.308594 C 220.421875 153.308594 205.433594 143.710938 202.566406 168.046875 " fill-opacity="1" fill-rule="nonzero"/></g><g clip-path="url(#7683c4f9e3)"><path fill="#ffffff" d="M 210.390625 146.550781 C 210.710938 146.175781 211.039062 145.804688 211.378906 145.445312 C 211.714844 145.085938 212.058594 144.726562 212.40625 144.378906 C 213.105469 143.675781 213.820312 142.992188 214.550781 142.324219 C 216.007812 140.984375 217.523438 139.707031 219.085938 138.484375 C 219.867188 137.875 220.660156 137.273438 221.460938 136.695312 C 221.660156 136.546875 221.863281 136.402344 222.066406 136.257812 C 222.269531 136.113281 222.46875 135.96875 222.671875 135.828125 L 223.285156 135.402344 L 223.898438 134.984375 C 225.546875 133.871094 227.230469 132.816406 228.949219 131.816406 C 229.8125 131.320312 230.675781 130.828125 231.554688 130.363281 L 232.210938 130.011719 L 232.875 129.667969 C 233.316406 129.4375 233.761719 129.21875 234.207031 128.992188 C 235.992188 128.109375 237.808594 127.292969 239.652344 126.53125 C 241.496094 125.773438 243.363281 125.074219 245.257812 124.441406 C 245.492188 124.363281 245.726562 124.28125 245.964844 124.207031 L 246.679688 123.980469 C 247.15625 123.824219 247.632812 123.683594 248.109375 123.542969 C 248.589844 123.394531 249.070312 123.261719 249.550781 123.128906 C 250.03125 122.988281 250.511719 122.867188 250.996094 122.738281 C 252.929688 122.238281 254.878906 121.804688 256.84375 121.4375 L 257.578125 121.300781 C 257.824219 121.257812 258.070312 121.21875 258.316406 121.175781 C 258.8125 121.09375 259.304688 121.007812 259.796875 120.9375 C 260.785156 120.789062 261.777344 120.65625 262.769531 120.542969 C 263.265625 120.488281 263.761719 120.429688 264.257812 120.382812 L 265.75 120.246094 C 266.25 120.207031 266.746094 120.175781 267.246094 120.140625 L 267.609375 120.113281 L 267.960938 120.089844 C 268.195312 120.070312 268.4375 120.046875 268.675781 120.027344 C 270.589844 119.839844 272.511719 119.578125 274.417969 119.25 C 275.367188 119.085938 276.316406 118.902344 277.261719 118.699219 C 278.207031 118.5 279.148438 118.28125 280.078125 118.039062 C 281.011719 117.796875 281.9375 117.539062 282.855469 117.253906 C 283.773438 116.96875 284.683594 116.660156 285.578125 116.324219 C 286.472656 115.992188 287.355469 115.625 288.21875 115.230469 C 289.082031 114.835938 289.929688 114.40625 290.75 113.9375 C 291.566406 113.472656 292.359375 112.964844 293.113281 112.414062 C 293.863281 111.863281 294.578125 111.265625 295.234375 110.621094 L 295.265625 110.589844 C 295.722656 110.144531 296.449219 110.152344 296.894531 110.609375 C 297.289062 111.011719 297.328125 111.636719 297.011719 112.082031 C 296.558594 112.726562 296.105469 113.359375 295.648438 113.992188 C 295.191406 114.625 294.730469 115.253906 294.265625 115.882812 C 293.804688 116.511719 293.339844 117.136719 292.871094 117.761719 C 292.40625 118.386719 291.9375 119.007812 291.460938 119.628906 L 290.75 120.558594 C 290.511719 120.867188 290.277344 121.175781 290.035156 121.484375 L 289.316406 122.40625 L 288.59375 123.324219 L 287.863281 124.242188 C 287.621094 124.546875 287.378906 124.851562 287.132812 125.152344 C 286.644531 125.761719 286.148438 126.363281 285.652344 126.964844 L 284.90625 127.867188 C 284.65625 128.167969 284.40625 128.464844 284.152344 128.761719 C 283.648438 129.359375 283.136719 129.949219 282.628906 130.539062 C 282.117188 131.125 281.601562 131.714844 281.078125 132.292969 C 280.558594 132.875 280.027344 133.445312 279.5 134.019531 L 278.691406 134.871094 L 278.492188 135.082031 L 278.289062 135.292969 L 277.46875 136.128906 L 277.054688 136.542969 C 276.777344 136.816406 276.503906 137.09375 276.21875 137.359375 L 275.792969 137.765625 C 275.652344 137.898438 275.511719 138.035156 275.367188 138.164062 C 275.078125 138.425781 274.792969 138.691406 274.503906 138.953125 L 273.617188 139.714844 L 272.707031 140.449219 L 273.53125 139.621094 L 274.332031 138.773438 L 275.113281 137.914062 C 275.246094 137.769531 275.371094 137.625 275.5 137.476562 L 275.882812 137.039062 C 276.140625 136.75 276.390625 136.453125 276.640625 136.15625 L 277.015625 135.714844 L 277.757812 134.816406 L 277.945312 134.59375 L 278.125 134.367188 L 278.855469 133.460938 C 279.335938 132.851562 279.820312 132.25 280.296875 131.632812 C 280.53125 131.328125 280.769531 131.023438 281.003906 130.710938 L 281.710938 129.789062 C 282.179688 129.167969 282.648438 128.550781 283.109375 127.929688 L 284.488281 126.058594 C 284.945312 125.429688 285.402344 124.804688 285.855469 124.171875 C 286.308594 123.542969 286.761719 122.914062 287.210938 122.28125 L 287.882812 121.332031 L 288.550781 120.382812 C 288.996094 119.746094 289.441406 119.113281 289.882812 118.472656 L 291.207031 116.558594 L 292.519531 114.636719 L 293.820312 112.710938 C 294.25 112.070312 294.683594 111.421875 295.101562 110.78125 L 296.878906 112.242188 C 296.15625 113 295.371094 113.695312 294.554688 114.335938 C 293.734375 114.96875 292.875 115.546875 292 116.078125 C 291.777344 116.210938 291.558594 116.339844 291.335938 116.46875 C 291.113281 116.589844 290.890625 116.71875 290.664062 116.839844 C 290.4375 116.957031 290.210938 117.082031 289.984375 117.195312 L 289.644531 117.367188 L 289.300781 117.535156 C 288.382812 117.980469 287.449219 118.382812 286.507812 118.753906 C 284.625 119.5 282.703125 120.113281 280.761719 120.640625 C 279.789062 120.902344 278.816406 121.136719 277.835938 121.355469 C 276.855469 121.570312 275.875 121.765625 274.886719 121.941406 C 273.902344 122.121094 272.910156 122.273438 271.917969 122.410156 C 270.925781 122.546875 269.933594 122.667969 268.929688 122.757812 C 268.679688 122.78125 268.429688 122.804688 268.175781 122.824219 L 267.789062 122.851562 L 267.414062 122.875 L 265.964844 122.976562 L 264.515625 123.097656 C 264.035156 123.144531 263.550781 123.199219 263.070312 123.246094 C 262.105469 123.355469 261.144531 123.46875 260.183594 123.605469 C 259.703125 123.667969 259.226562 123.746094 258.746094 123.820312 C 258.507812 123.859375 258.265625 123.894531 258.027344 123.933594 L 257.3125 124.058594 C 255.402344 124.386719 253.5 124.777344 251.613281 125.226562 C 251.140625 125.339844 250.667969 125.449219 250.199219 125.574219 C 249.730469 125.695312 249.257812 125.8125 248.789062 125.945312 C 248.324219 126.074219 247.851562 126.199219 247.386719 126.335938 L 246.6875 126.539062 C 246.453125 126.605469 246.222656 126.683594 245.992188 126.753906 C 244.132812 127.316406 242.292969 127.941406 240.46875 128.621094 C 238.644531 129.300781 236.839844 130.03125 235.0625 130.824219 C 234.617188 131.027344 234.167969 131.21875 233.730469 131.425781 L 233.066406 131.734375 L 232.40625 132.046875 C 231.523438 132.464844 230.652344 132.902344 229.78125 133.347656 C 228.917969 133.796875 228.054688 134.257812 227.199219 134.730469 C 226.769531 134.960938 226.347656 135.207031 225.921875 135.445312 L 225.289062 135.8125 L 224.96875 135.996094 L 224.65625 136.183594 C 223.8125 136.683594 222.980469 137.191406 222.152344 137.714844 C 221.324219 138.234375 220.503906 138.773438 219.691406 139.320312 C 218.066406 140.414062 216.472656 141.5625 214.914062 142.761719 C 214.527344 143.0625 214.140625 143.363281 213.757812 143.671875 C 213.371094 143.976562 212.992188 144.289062 212.613281 144.601562 C 211.859375 145.234375 211.109375 145.875 210.390625 146.550781 " fill-opacity="1" fill-rule="nonzero"/></g><g fill="#ffffff" fill-opacity="1"><g transform="translate(102.738749, 206.849986)"><g><path d="M 13.359375 -0.78125 C 13.359375 -0.457031 13.585938 -0.296875 14.046875 -0.296875 C 14.722656 -0.296875 15.53125 -0.570312 16.46875 -1.125 C 16.769531 -1.300781 17.039062 -1.503906 17.28125 -1.734375 C 17.3125 -1.710938 17.328125 -1.660156 17.328125 -1.578125 C 17.328125 -1.441406 17.3125 -1.351562 17.28125 -1.3125 C 16.53125 -0.695312 15.625 -0.285156 14.5625 -0.078125 C 14.28125 -0.00390625 13.96875 0.03125 13.625 0.03125 C 13.28125 0.03125 12.992188 -0.0703125 12.765625 -0.28125 C 12.535156 -0.5 12.421875 -0.71875 12.421875 -0.9375 C 12.421875 -1.15625 12.441406 -1.347656 12.484375 -1.515625 C 12.523438 -1.691406 12.609375 -1.910156 12.734375 -2.171875 C 13.265625 -3.335938 14.234375 -4.816406 15.640625 -6.609375 L 17.46875 -8.859375 L 19.40625 -11.046875 L 21.3125 -13.109375 L 23.09375 -14.9375 L 24.65625 -16.484375 C 24.425781 -16.328125 24.175781 -16.140625 23.90625 -15.921875 L 23.03125 -15.1875 L 20.46875 -12.859375 L 16.25 -8.875 C 14.0625 -6.789062 11.648438 -4.207031 9.015625 -1.125 C 8.410156 -0.425781 8.007812 -0.078125 7.8125 -0.078125 C 7.757812 -0.078125 7.703125 -0.113281 7.640625 -0.1875 C 7.585938 -0.269531 7.5625 -0.460938 7.5625 -0.765625 C 7.5625 -1.078125 7.664062 -1.546875 7.875 -2.171875 C 8.082031 -2.804688 8.378906 -3.507812 8.765625 -4.28125 C 9.148438 -5.050781 9.617188 -5.882812 10.171875 -6.78125 C 10.722656 -7.675781 11.34375 -8.609375 12.03125 -9.578125 C 13.46875 -11.597656 15.085938 -13.617188 16.890625 -15.640625 L 15.96875 -14.75 L 14.484375 -13.25 L 12.40625 -11.03125 L 9.671875 -8.046875 C 6.296875 -4.347656 3.4375 -1.894531 1.09375 -0.6875 C 0.164062 -0.21875 -0.660156 0.015625 -1.390625 0.015625 C -2.128906 0.015625 -2.679688 -0.125 -3.046875 -0.40625 C -3.410156 -0.6875 -3.59375 -1.046875 -3.59375 -1.484375 C -3.59375 -1.816406 -3.503906 -2.054688 -3.328125 -2.203125 C -3.054688 -2.441406 -2.820312 -2.5625 -2.625 -2.5625 C -2.144531 -2.5625 -1.90625 -2.378906 -1.90625 -2.015625 C -1.90625 -1.859375 -1.972656 -1.722656 -2.109375 -1.609375 C -2.242188 -1.492188 -2.414062 -1.4375 -2.625 -1.4375 C -2.84375 -1.4375 -3.015625 -1.476562 -3.140625 -1.5625 L -3.15625 -1.421875 C -3.15625 -1.078125 -3.007812 -0.804688 -2.71875 -0.609375 C -2.425781 -0.410156 -2.035156 -0.3125 -1.546875 -0.3125 C -1.066406 -0.3125 -0.597656 -0.378906 -0.140625 -0.515625 C 0.316406 -0.660156 0.828125 -0.898438 1.390625 -1.234375 C 1.953125 -1.566406 2.578125 -2.003906 3.265625 -2.546875 C 3.953125 -3.085938 4.71875 -3.75 5.5625 -4.53125 C 6.40625 -5.3125 7.34375 -6.222656 8.375 -7.265625 L 11.75 -10.859375 C 13.757812 -13.046875 15.472656 -14.769531 16.890625 -16.03125 C 17.910156 -16.9375 18.507812 -17.390625 18.6875 -17.390625 C 18.90625 -17.390625 19.015625 -17.351562 19.015625 -17.28125 C 19.015625 -17.226562 18.96875 -17.160156 18.875 -17.078125 L 18.546875 -16.796875 C 18.171875 -16.460938 17.789062 -16.023438 17.40625 -15.484375 L 16.140625 -13.640625 L 13.0625 -8.890625 C 10.195312 -4.234375 8.582031 -1.523438 8.21875 -0.765625 L 10.171875 -3 L 11.875 -4.90625 L 13.484375 -6.640625 L 15.171875 -8.34375 L 17.09375 -10.21875 L 19.390625 -12.421875 C 22.953125 -15.753906 25.191406 -17.421875 26.109375 -17.421875 C 26.191406 -17.421875 26.234375 -17.390625 26.234375 -17.328125 C 26.234375 -17.265625 26.128906 -17.164062 25.921875 -17.03125 C 25.722656 -16.894531 25.4375 -16.660156 25.0625 -16.328125 C 24.6875 -16.003906 24.207031 -15.523438 23.625 -14.890625 C 23.050781 -14.265625 22.457031 -13.578125 21.84375 -12.828125 L 20 -10.4375 L 18.125 -7.90625 C 15.3125 -3.945312 13.828125 -1.828125 13.671875 -1.546875 C 13.460938 -1.179688 13.359375 -0.925781 13.359375 -0.78125 Z M 13.359375 -0.78125 "/></g></g><g transform="translate(123.24656, 206.849986)"><g><path d="M 4.671875 0.03125 C 3.890625 0.03125 3.5 -0.210938 3.5 -0.703125 C 3.5 -1.097656 3.726562 -1.597656 4.1875 -2.203125 L 4.921875 -3.140625 L 4.8125 -3.1875 C 3.5 -1.570312 2.257812 -0.554688 1.09375 -0.140625 C 0.769531 -0.0234375 0.492188 0.03125 0.265625 0.03125 C -0.703125 0.03125 -1.1875 -0.484375 -1.1875 -1.515625 C -1.1875 -2.710938 -0.703125 -3.859375 0.265625 -4.953125 C 1.679688 -6.609375 3.109375 -7.59375 4.546875 -7.90625 C 4.972656 -7.988281 5.335938 -8.03125 5.640625 -8.03125 C 5.953125 -8.03125 6.195312 -8.007812 6.375 -7.96875 C 6.550781 -7.925781 6.703125 -7.863281 6.828125 -7.78125 C 7.109375 -7.601562 7.25 -7.382812 7.25 -7.125 C 7.25 -6.863281 7.203125 -6.613281 7.109375 -6.375 L 8.265625 -7.796875 C 8.472656 -7.734375 8.664062 -7.703125 8.84375 -7.703125 C 9.3125 -7.703125 9.644531 -7.71875 9.84375 -7.75 L 5.890625 -2.984375 C 4.953125 -1.890625 4.484375 -1.125 4.484375 -0.6875 C 4.484375 -0.4375 4.628906 -0.3125 4.921875 -0.3125 C 5.222656 -0.3125 5.566406 -0.398438 5.953125 -0.578125 C 6.347656 -0.753906 6.734375 -0.984375 7.109375 -1.265625 C 7.492188 -1.546875 7.867188 -1.859375 8.234375 -2.203125 C 8.597656 -2.546875 8.929688 -2.878906 9.234375 -3.203125 C 9.546875 -3.535156 9.820312 -3.84375 10.0625 -4.125 L 10.625 -4.765625 L 10.859375 -4.5625 L 10.265625 -3.875 C 8.015625 -1.269531 6.148438 0.03125 4.671875 0.03125 Z M 1.4375 -4.203125 C 0.332031 -2.859375 -0.21875 -1.765625 -0.21875 -0.921875 C -0.21875 -0.523438 -0.0390625 -0.328125 0.3125 -0.328125 C 1.445312 -0.328125 3.085938 -1.585938 5.234375 -4.109375 L 6.21875 -5.296875 C 6.6875 -6.003906 6.921875 -6.519531 6.921875 -6.84375 C 6.921875 -7.394531 6.648438 -7.671875 6.109375 -7.671875 C 5.367188 -7.671875 4.300781 -7.035156 2.90625 -5.765625 C 2.425781 -5.328125 1.9375 -4.804688 1.4375 -4.203125 Z M 1.4375 -4.203125 "/></g></g><g transform="translate(133.781716, 206.849986)"><g><path d="M 9.828125 -18.6875 C 10.347656 -18.601562 10.890625 -18.601562 11.453125 -18.6875 L 1.8125 -5.28125 C -0.0195312 -2.625 -1.164062 -0.9375 -1.625 -0.21875 C -1.84375 -0.257812 -2.019531 -0.28125 -2.15625 -0.28125 C -2.300781 -0.28125 -2.410156 -0.273438 -2.484375 -0.265625 C -2.566406 -0.265625 -2.648438 -0.253906 -2.734375 -0.234375 C -2.816406 -0.222656 -2.894531 -0.207031 -2.96875 -0.1875 C -3.039062 -0.175781 -3.097656 -0.171875 -3.140625 -0.171875 Z M 3.78125 -0.671875 C 3.78125 -0.429688 3.972656 -0.3125 4.359375 -0.3125 C 4.742188 -0.3125 5.15625 -0.414062 5.59375 -0.625 C 6.03125 -0.84375 6.460938 -1.109375 6.890625 -1.421875 C 7.316406 -1.742188 7.722656 -2.09375 8.109375 -2.46875 C 8.492188 -2.851562 8.835938 -3.210938 9.140625 -3.546875 C 9.597656 -4.046875 9.945312 -4.453125 10.1875 -4.765625 L 10.421875 -4.5625 C 10.390625 -4.53125 10.273438 -4.394531 10.078125 -4.15625 C 9.878906 -3.925781 9.617188 -3.640625 9.296875 -3.296875 C 8.984375 -2.960938 8.617188 -2.597656 8.203125 -2.203125 C 7.796875 -1.816406 7.367188 -1.457031 6.921875 -1.125 C 5.878906 -0.351562 4.972656 0.03125 4.203125 0.03125 C 3.421875 0.03125 3.03125 -0.390625 3.03125 -1.234375 C 3.03125 -1.929688 3.507812 -2.742188 4.46875 -3.671875 C 4.851562 -4.066406 5.046875 -4.335938 5.046875 -4.484375 C 5.046875 -4.796875 4.8125 -5.03125 4.34375 -5.1875 C 3.882812 -4.925781 3.476562 -4.796875 3.125 -4.796875 C 2.539062 -4.796875 2.25 -4.914062 2.25 -5.15625 C 2.25 -5.300781 2.359375 -5.425781 2.578125 -5.53125 C 2.804688 -5.644531 3.082031 -5.703125 3.40625 -5.703125 C 3.726562 -5.703125 4.039062 -5.65625 4.34375 -5.5625 C 4.59375 -5.6875 4.785156 -5.828125 4.921875 -5.984375 C 5.265625 -6.335938 5.582031 -6.691406 5.875 -7.046875 C 6.164062 -7.398438 6.441406 -7.691406 6.703125 -7.921875 C 7.304688 -8.453125 7.910156 -8.71875 8.515625 -8.71875 C 8.890625 -8.71875 9.191406 -8.617188 9.421875 -8.421875 C 9.660156 -8.234375 9.773438 -8 9.765625 -7.71875 C 9.753906 -7.445312 9.664062 -7.25 9.5 -7.125 C 9.34375 -7 9.164062 -6.9375 8.96875 -6.9375 C 8.769531 -6.9375 8.597656 -7.003906 8.453125 -7.140625 C 8.304688 -7.273438 8.238281 -7.425781 8.25 -7.59375 C 8.269531 -7.925781 8.429688 -8.140625 8.734375 -8.234375 C 8.617188 -8.328125 8.46875 -8.375 8.28125 -8.375 C 8.09375 -8.375 7.910156 -8.335938 7.734375 -8.265625 C 7.566406 -8.203125 7.378906 -8.085938 7.171875 -7.921875 C 6.753906 -7.597656 6.238281 -7.046875 5.625 -6.265625 C 5.332031 -5.929688 5.03125 -5.648438 4.71875 -5.421875 C 5.46875 -5.078125 5.84375 -4.566406 5.84375 -3.890625 C 5.84375 -3.347656 5.59375 -2.78125 5.09375 -2.1875 C 4.875 -1.9375 4.644531 -1.695312 4.40625 -1.46875 C 3.988281 -1.09375 3.78125 -0.828125 3.78125 -0.671875 Z M 3.78125 -0.671875 "/></g></g><g transform="translate(143.871559, 206.849986)"><g><path d="M 4.53125 -1.015625 C 4.03125 -0.703125 3.492188 -0.441406 2.921875 -0.234375 C 2.347656 -0.0234375 1.800781 0.078125 1.28125 0.078125 C 0.769531 0.078125 0.378906 0.0234375 0.109375 -0.078125 C -0.160156 -0.191406 -0.378906 -0.34375 -0.546875 -0.53125 C -1.285156 -1.320312 -1.285156 -2.5 -0.546875 -4.0625 C -0.222656 -4.75 0.257812 -5.375 0.90625 -5.9375 C 1.5625 -6.5 2.132812 -6.921875 2.625 -7.203125 C 3.582031 -7.753906 4.476562 -8.03125 5.3125 -8.03125 C 6.132812 -8.03125 6.566406 -7.769531 6.609375 -7.25 C 6.660156 -6.414062 5.644531 -5.507812 3.5625 -4.53125 C 2.800781 -4.164062 1.835938 -3.789062 0.671875 -3.40625 C 0.203125 -2.65625 -0.03125 -2.046875 -0.03125 -1.578125 C -0.03125 -1.109375 0.09375 -0.769531 0.34375 -0.5625 C 0.59375 -0.363281 0.953125 -0.265625 1.421875 -0.265625 C 1.898438 -0.265625 2.410156 -0.363281 2.953125 -0.5625 C 3.503906 -0.769531 4.019531 -1.03125 4.5 -1.34375 C 4.988281 -1.65625 5.425781 -1.992188 5.8125 -2.359375 C 6.207031 -2.734375 6.550781 -3.085938 6.84375 -3.421875 C 7.144531 -3.753906 7.390625 -4.046875 7.578125 -4.296875 C 7.773438 -4.546875 7.910156 -4.703125 7.984375 -4.765625 L 8.234375 -4.5625 C 8.128906 -4.476562 7.972656 -4.300781 7.765625 -4.03125 C 7.554688 -3.769531 7.289062 -3.46875 6.96875 -3.125 C 6.65625 -2.78125 6.296875 -2.421875 5.890625 -2.046875 C 5.484375 -1.671875 5.03125 -1.328125 4.53125 -1.015625 Z M 0.9375 -3.828125 C 3.300781 -4.648438 4.820312 -5.472656 5.5 -6.296875 C 5.726562 -6.566406 5.84375 -6.832031 5.84375 -7.09375 C 5.84375 -7.53125 5.640625 -7.75 5.234375 -7.75 C 4.515625 -7.75 3.613281 -7.117188 2.53125 -5.859375 C 1.78125 -4.984375 1.25 -4.304688 0.9375 -3.828125 Z M 0.9375 -3.828125 "/></g></g><g transform="translate(151.769996, 206.849986)"><g><path d="M -0.953125 -0.6875 C -0.953125 -0.40625 -0.765625 -0.265625 -0.390625 -0.265625 C 0.140625 -0.265625 0.703125 -0.46875 1.296875 -0.875 C 2.597656 -1.738281 3.953125 -3.035156 5.359375 -4.765625 C 5.359375 -4.765625 6.242188 -5.828125 8.015625 -7.953125 C 8.390625 -7.910156 8.726562 -7.890625 9.03125 -7.890625 C 9.34375 -7.890625 9.597656 -7.898438 9.796875 -7.921875 L 8.65625 -6.59375 L 4.5 -1.546875 C 4.226562 -1.210938 4.09375 -0.941406 4.09375 -0.734375 C 4.09375 -0.453125 4.28125 -0.3125 4.65625 -0.3125 C 5.03125 -0.3125 5.414062 -0.410156 5.8125 -0.609375 C 6.21875 -0.804688 6.617188 -1.054688 7.015625 -1.359375 C 7.421875 -1.660156 7.816406 -1.992188 8.203125 -2.359375 C 8.585938 -2.722656 8.9375 -3.070312 9.25 -3.40625 L 10.484375 -4.765625 L 10.71875 -4.5625 L 10.25 -4.046875 C 10.03125 -3.785156 9.753906 -3.488281 9.421875 -3.15625 L 8.328125 -2.09375 C 6.835938 -0.675781 5.601562 0.03125 4.625 0.03125 C 4.300781 0.03125 4.035156 -0.0546875 3.828125 -0.234375 C 3.617188 -0.410156 3.507812 -0.648438 3.5 -0.953125 C 3.476562 -1.523438 3.675781 -2.171875 4.09375 -2.890625 C 2.289062 -0.941406 0.765625 0.03125 -0.484375 0.03125 C -1.179688 0.03125 -1.628906 -0.222656 -1.828125 -0.734375 C -1.878906 -0.867188 -1.910156 -1.046875 -1.921875 -1.265625 C -1.929688 -1.484375 -1.878906 -1.742188 -1.765625 -2.046875 C -1.648438 -2.359375 -1.476562 -2.691406 -1.25 -3.046875 C -1.03125 -3.398438 -0.753906 -3.785156 -0.421875 -4.203125 L 1.6875 -6.75 C 2.019531 -7.15625 2.367188 -7.554688 2.734375 -7.953125 C 3.035156 -7.910156 3.28125 -7.890625 3.46875 -7.890625 L 3.875 -7.890625 C 4.207031 -7.890625 4.421875 -7.898438 4.515625 -7.921875 C 3.597656 -6.921875 2.957031 -6.195312 2.59375 -5.75 L 0.265625 -2.953125 C -0.554688 -2.003906 -0.960938 -1.25 -0.953125 -0.6875 Z M -0.953125 -0.6875 "/></g></g><g transform="translate(162.164526, 206.849986)"><g><path d="M 4.296875 0.03125 C 3.390625 0.03125 2.9375 -0.359375 2.9375 -1.140625 C 2.9375 -2.304688 4.222656 -3.832031 6.796875 -5.71875 C 7.691406 -6.363281 8.1875 -6.832031 8.28125 -7.125 C 8.300781 -7.207031 8.3125 -7.289062 8.3125 -7.375 C 8.3125 -7.457031 8.269531 -7.535156 8.1875 -7.609375 C 8.101562 -7.691406 7.929688 -7.734375 7.671875 -7.734375 C 6.441406 -7.734375 4.535156 -6.535156 1.953125 -4.140625 C 0.753906 -2.984375 -0.078125 -2.144531 -0.546875 -1.625 L -1.796875 -0.21875 C -2.117188 0.207031 -2.484375 0.707031 -2.890625 1.28125 L -5.28125 4.859375 L -7.0625 7.671875 C -7.257812 7.984375 -7.375 8.164062 -7.40625 8.21875 C -7.632812 8.28125 -7.882812 8.3125 -8.15625 8.3125 C -8.4375 8.3125 -8.613281 8.304688 -8.6875 8.296875 C -8.757812 8.296875 -8.84375 8.289062 -8.9375 8.28125 C -9.082031 8.269531 -9.222656 8.242188 -9.359375 8.203125 L -3.375 0.078125 L 0.421875 -5.28125 L 5.046875 -11.453125 C 5.460938 -11.398438 5.773438 -11.375 5.984375 -11.375 C 6.378906 -11.375 6.65625 -11.40625 6.8125 -11.46875 L 3.03125 -6.84375 L 0.25 -3.125 L 0.328125 -3.03125 C 2.753906 -5.363281 4.546875 -6.832031 5.703125 -7.4375 C 6.296875 -7.75 6.738281 -7.925781 7.03125 -7.96875 C 7.332031 -8.007812 7.597656 -8.03125 7.828125 -8.03125 C 8.566406 -8.03125 8.9375 -7.707031 8.9375 -7.0625 C 8.9375 -5.78125 7.765625 -4.3125 5.421875 -2.65625 C 4.359375 -1.90625 3.753906 -1.390625 3.609375 -1.109375 C 3.566406 -1.015625 3.546875 -0.921875 3.546875 -0.828125 C 3.546875 -0.484375 3.820312 -0.3125 4.375 -0.3125 C 5.71875 -0.3125 7.429688 -1.550781 9.515625 -4.03125 L 10.140625 -4.765625 L 10.390625 -4.5625 L 9.78125 -3.859375 C 7.601562 -1.265625 5.773438 0.03125 4.296875 0.03125 Z M 4.296875 0.03125 "/></g></g><g transform="translate(172.219213, 206.849986)"><g/></g><g transform="translate(180.457494, 206.849986)"><g><path d="M 5.515625 -0.21875 C 5.285156 -0.257812 5.03125 -0.28125 4.75 -0.28125 C 4.320312 -0.28125 3.953125 -0.257812 3.640625 -0.21875 L 4.625 -1.859375 C 3.65625 -2.628906 3.019531 -3.613281 2.71875 -4.8125 C 2.625 -5.195312 2.578125 -5.601562 2.578125 -6.03125 C 2.578125 -6.46875 2.632812 -6.875 2.75 -7.25 C 2.863281 -7.625 3.019531 -7.953125 3.21875 -8.234375 C 3.65625 -8.828125 4.191406 -9.125 4.828125 -9.125 C 5.316406 -9.125 5.738281 -8.910156 6.09375 -8.484375 C 6.488281 -8.003906 6.6875 -7.378906 6.6875 -6.609375 C 6.6875 -5.960938 6.429688 -5.019531 5.921875 -3.78125 C 5.765625 -3.394531 5.585938 -3.007812 5.390625 -2.625 C 7.253906 -5.507812 9.203125 -7.96875 11.234375 -10 L 12.8125 -11.53125 C 12.945312 -11.65625 13.054688 -11.71875 13.140625 -11.71875 C 13.234375 -11.71875 13.28125 -11.6875 13.28125 -11.625 C 13.28125 -11.550781 13.066406 -11.3125 12.640625 -10.90625 C 12.210938 -10.5 11.691406 -9.925781 11.078125 -9.1875 C 10.460938 -8.445312 9.859375 -7.660156 9.265625 -6.828125 C 8.015625 -5.046875 6.945312 -3.234375 6.0625 -1.390625 C 6.550781 -1.191406 7.050781 -1.09375 7.5625 -1.09375 C 8.582031 -1.09375 9.46875 -1.410156 10.21875 -2.046875 C 10.925781 -2.671875 11.28125 -3.367188 11.28125 -4.140625 C 11.28125 -4.179688 11.269531 -4.238281 11.25 -4.3125 C 10.9375 -4.332031 10.78125 -4.472656 10.78125 -4.734375 C 10.78125 -4.816406 10.8125 -4.894531 10.875 -4.96875 C 10.945312 -5.039062 11.046875 -5.078125 11.171875 -5.078125 C 11.304688 -5.078125 11.425781 -5.007812 11.53125 -4.875 C 11.632812 -4.738281 11.6875 -4.488281 11.6875 -4.125 C 11.6875 -3.757812 11.570312 -3.359375 11.34375 -2.921875 C 11.113281 -2.484375 10.800781 -2.101562 10.40625 -1.78125 C 9.582031 -1.113281 8.628906 -0.78125 7.546875 -0.78125 C 7.003906 -0.78125 6.460938 -0.890625 5.921875 -1.109375 Z M 4.796875 -2.203125 C 5.816406 -4.097656 6.328125 -5.609375 6.328125 -6.734375 C 6.328125 -7.628906 6.039062 -8.226562 5.46875 -8.53125 C 5.300781 -8.613281 5.117188 -8.65625 4.921875 -8.65625 C 4.734375 -8.65625 4.535156 -8.582031 4.328125 -8.4375 C 4.117188 -8.289062 3.9375 -8.097656 3.78125 -7.859375 C 3.425781 -7.304688 3.25 -6.664062 3.25 -5.9375 C 3.25 -4.40625 3.765625 -3.160156 4.796875 -2.203125 Z M 4.796875 -2.203125 "/></g></g><g transform="translate(197.473118, 206.849986)"><g/></g><g transform="translate(205.711399, 206.849986)"><g><path d="M 3.890625 3.0625 C 3.972656 3.144531 4.015625 3.210938 4.015625 3.265625 C 4.015625 3.316406 3.96875 3.34375 3.875 3.34375 C 3.5625 3.34375 3.300781 2.863281 3.09375 1.90625 C 2.976562 1.40625 2.910156 0.878906 2.890625 0.328125 L 2.890625 -0.015625 C 1.847656 -0.117188 1.003906 -0.457031 0.359375 -1.03125 C -0.273438 -1.582031 -0.597656 -2.265625 -0.609375 -3.078125 C -0.640625 -4.054688 -0.335938 -5 0.296875 -5.90625 C 1.234375 -7.257812 2.640625 -8.160156 4.515625 -8.609375 C 5.117188 -8.742188 5.757812 -8.8125 6.4375 -8.8125 L 6.5 -8.8125 C 6.289062 -9.101562 6.140625 -9.4375 6.046875 -9.8125 C 4.816406 -10.070312 3.816406 -10.484375 3.046875 -11.046875 C 2.285156 -11.617188 1.734375 -12.285156 1.390625 -13.046875 C 1.347656 -13.128906 1.328125 -13.222656 1.328125 -13.328125 C 1.328125 -13.429688 1.363281 -13.484375 1.4375 -13.484375 C 1.507812 -13.484375 1.585938 -13.390625 1.671875 -13.203125 C 2.378906 -11.609375 3.816406 -10.582031 5.984375 -10.125 C 5.984375 -10.164062 5.984375 -10.207031 5.984375 -10.25 C 5.984375 -10.300781 5.984375 -10.347656 5.984375 -10.390625 C 5.960938 -11.554688 6.328125 -12.617188 7.078125 -13.578125 C 8.128906 -14.921875 9.585938 -15.800781 11.453125 -16.21875 C 12.015625 -16.351562 12.566406 -16.421875 13.109375 -16.421875 C 14.378906 -16.421875 15.363281 -16.195312 16.0625 -15.75 C 16.769531 -15.300781 17.125 -14.671875 17.125 -13.859375 C 17.125 -13.265625 16.90625 -12.703125 16.46875 -12.171875 C 16.03125 -11.640625 15.441406 -11.179688 14.703125 -10.796875 C 13.078125 -9.953125 11.160156 -9.53125 8.953125 -9.53125 C 8.265625 -9.53125 7.625 -9.566406 7.03125 -9.640625 C 7.113281 -9.335938 7.242188 -9.046875 7.421875 -8.765625 C 8.179688 -8.679688 8.757812 -8.523438 9.15625 -8.296875 C 9.550781 -8.078125 9.753906 -7.847656 9.765625 -7.609375 C 9.765625 -7.359375 9.570312 -7.234375 9.1875 -7.234375 C 8.351562 -7.234375 7.570312 -7.617188 6.84375 -8.390625 C 5.332031 -8.222656 3.90625 -7.535156 2.5625 -6.328125 C 1.75 -5.566406 1.175781 -4.769531 0.84375 -3.9375 C 0.675781 -3.507812 0.597656 -3.035156 0.609375 -2.515625 C 0.628906 -2.003906 0.832031 -1.539062 1.21875 -1.125 C 1.601562 -0.707031 2.171875 -0.4375 2.921875 -0.3125 C 3.046875 -1.75 3.613281 -3.035156 4.625 -4.171875 C 5.664062 -5.335938 6.816406 -5.921875 8.078125 -5.921875 C 8.566406 -5.921875 8.992188 -5.757812 9.359375 -5.4375 C 9.722656 -5.113281 9.90625 -4.691406 9.90625 -4.171875 C 9.90625 -3.648438 9.742188 -3.125 9.421875 -2.59375 C 9.097656 -2.070312 8.65625 -1.613281 8.09375 -1.21875 C 6.882812 -0.382812 5.410156 0.03125 3.671875 0.03125 L 3.25 0.015625 C 3.238281 0.078125 3.234375 0.132812 3.234375 0.1875 L 3.234375 0.359375 C 3.234375 1.160156 3.367188 1.894531 3.640625 2.5625 C 3.734375 2.8125 3.816406 2.976562 3.890625 3.0625 Z M 6.984375 -9.96875 C 7.421875 -9.90625 7.96875 -9.875 8.625 -9.875 C 9.289062 -9.875 9.929688 -9.914062 10.546875 -10 C 11.160156 -10.09375 11.765625 -10.222656 12.359375 -10.390625 C 12.953125 -10.566406 13.507812 -10.78125 14.03125 -11.03125 C 14.550781 -11.28125 15.007812 -11.566406 15.40625 -11.890625 C 16.257812 -12.585938 16.6875 -13.363281 16.6875 -14.21875 C 16.6875 -14.769531 16.40625 -15.222656 15.84375 -15.578125 C 15.257812 -15.941406 14.59375 -16.125 13.84375 -16.125 C 13.101562 -16.125 12.46875 -16.03125 11.9375 -15.84375 C 11.40625 -15.65625 10.894531 -15.40625 10.40625 -15.09375 C 9.914062 -14.78125 9.460938 -14.421875 9.046875 -14.015625 C 8.628906 -13.609375 8.269531 -13.179688 7.96875 -12.734375 C 7.3125 -11.796875 6.984375 -10.925781 6.984375 -10.125 Z M 7.671875 -8.421875 C 8.210938 -7.804688 8.765625 -7.5 9.328125 -7.5 C 9.453125 -7.5 9.515625 -7.535156 9.515625 -7.609375 C 9.515625 -7.691406 9.460938 -7.773438 9.359375 -7.859375 C 9.265625 -7.941406 9.140625 -8.019531 8.984375 -8.09375 C 8.597656 -8.28125 8.160156 -8.390625 7.671875 -8.421875 Z M 3.265625 -0.28125 C 3.421875 -0.269531 3.640625 -0.265625 3.921875 -0.265625 C 4.210938 -0.265625 4.578125 -0.332031 5.015625 -0.46875 C 5.453125 -0.613281 5.878906 -0.800781 6.296875 -1.03125 C 6.710938 -1.257812 7.109375 -1.523438 7.484375 -1.828125 C 7.859375 -2.128906 8.1875 -2.441406 8.46875 -2.765625 C 9.0625 -3.472656 9.359375 -4.09375 9.359375 -4.625 C 9.359375 -4.945312 9.238281 -5.191406 9 -5.359375 C 8.757812 -5.535156 8.425781 -5.625 8 -5.625 C 7.582031 -5.625 7.101562 -5.492188 6.5625 -5.234375 C 6.03125 -4.984375 5.53125 -4.625 5.0625 -4.15625 C 4.007812 -3.09375 3.410156 -1.800781 3.265625 -0.28125 Z M 3.265625 -0.28125 "/></g></g><g transform="translate(218.918429, 206.849986)"><g><path d="M -1.0625 -0.828125 C -1.0625 -0.460938 -0.832031 -0.28125 -0.375 -0.28125 C 0.0820312 -0.28125 0.59375 -0.398438 1.15625 -0.640625 C 1.71875 -0.878906 2.265625 -1.191406 2.796875 -1.578125 C 3.835938 -2.296875 4.796875 -3.203125 5.671875 -4.296875 C 7.046875 -5.859375 7.867188 -6.804688 8.140625 -7.140625 C 8.140625 -7.140625 8.351562 -7.398438 8.78125 -7.921875 C 9.082031 -7.867188 9.304688 -7.84375 9.453125 -7.84375 C 9.847656 -7.84375 10.144531 -7.859375 10.34375 -7.890625 L 6.265625 -2.859375 L 4.203125 -0.078125 L 2.421875 2.234375 C 4.429688 1.265625 5.976562 0.300781 7.0625 -0.65625 C 7.757812 -1.28125 8.414062 -1.96875 9.03125 -2.71875 L 10.71875 -4.765625 L 10.96875 -4.5625 L 9.5 -2.8125 C 8.625 -1.78125 7.890625 -1.007812 7.296875 -0.5 C 6.710938 0.0078125 6.179688 0.425781 5.703125 0.75 C 4.773438 1.363281 3.539062 2.03125 2 2.75 C 0.550781 4.570312 -0.539062 5.835938 -1.28125 6.546875 C -2.019531 7.265625 -2.601562 7.769531 -3.03125 8.0625 C -3.46875 8.363281 -3.890625 8.601562 -4.296875 8.78125 C -4.984375 9.070312 -5.796875 9.21875 -6.734375 9.21875 C -7.210938 9.21875 -7.53125 9.050781 -7.6875 8.71875 C -7.738281 8.625 -7.765625 8.472656 -7.765625 8.265625 C -7.765625 8.066406 -7.628906 7.785156 -7.359375 7.421875 C -7.097656 7.054688 -6.65625 6.65625 -6.03125 6.21875 C -4.757812 5.320312 -2.566406 4.21875 0.546875 2.90625 L 5.3125 -3.140625 L 5.1875 -3.1875 C 4.4375 -2.394531 3.675781 -1.765625 2.90625 -1.296875 C 1.457031 -0.410156 0.300781 0.03125 -0.5625 0.03125 C -1 0.03125 -1.328125 -0.0546875 -1.546875 -0.234375 C -1.765625 -0.410156 -1.875 -0.625 -1.875 -0.875 C -1.875 -1.132812 -1.847656 -1.367188 -1.796875 -1.578125 C -1.753906 -1.785156 -1.664062 -2.035156 -1.53125 -2.328125 C -1.238281 -2.878906 -0.6875 -3.722656 0.125 -4.859375 C 0.488281 -5.304688 0.925781 -5.789062 1.4375 -6.3125 L 3.0625 -7.953125 L 3.609375 -7.90625 C 3.734375 -7.894531 3.925781 -7.890625 4.1875 -7.890625 C 4.445312 -7.890625 4.6875 -7.898438 4.90625 -7.921875 C 4.207031 -7.296875 3.6875 -6.789062 3.34375 -6.40625 L 2.515625 -5.46875 C 0.785156 -3.550781 -0.1875 -2.429688 -0.40625 -2.109375 C -0.84375 -1.484375 -1.0625 -1.054688 -1.0625 -0.828125 Z M 0.125 3.40625 C -3.800781 5.09375 -6.164062 6.429688 -6.96875 7.421875 C -7.25 7.773438 -7.390625 8.113281 -7.390625 8.4375 C -7.390625 8.519531 -7.332031 8.617188 -7.21875 8.734375 C -7.113281 8.847656 -6.890625 8.90625 -6.546875 8.90625 C -6.203125 8.90625 -5.820312 8.828125 -5.40625 8.671875 C -4.988281 8.523438 -4.523438 8.253906 -4.015625 7.859375 C -3.066406 7.109375 -1.6875 5.625 0.125 3.40625 Z M 0.125 3.40625 "/></g></g><g transform="translate(229.570772, 206.849986)"><g><path d="M 4.53125 -1.015625 C 4.03125 -0.703125 3.492188 -0.441406 2.921875 -0.234375 C 2.347656 -0.0234375 1.800781 0.078125 1.28125 0.078125 C 0.769531 0.078125 0.378906 0.0234375 0.109375 -0.078125 C -0.160156 -0.191406 -0.378906 -0.34375 -0.546875 -0.53125 C -1.285156 -1.320312 -1.285156 -2.5 -0.546875 -4.0625 C -0.222656 -4.75 0.257812 -5.375 0.90625 -5.9375 C 1.5625 -6.5 2.132812 -6.921875 2.625 -7.203125 C 3.582031 -7.753906 4.476562 -8.03125 5.3125 -8.03125 C 6.132812 -8.03125 6.566406 -7.769531 6.609375 -7.25 C 6.660156 -6.414062 5.644531 -5.507812 3.5625 -4.53125 C 2.800781 -4.164062 1.835938 -3.789062 0.671875 -3.40625 C 0.203125 -2.65625 -0.03125 -2.046875 -0.03125 -1.578125 C -0.03125 -1.109375 0.09375 -0.769531 0.34375 -0.5625 C 0.59375 -0.363281 0.953125 -0.265625 1.421875 -0.265625 C 1.898438 -0.265625 2.410156 -0.363281 2.953125 -0.5625 C 3.503906 -0.769531 4.019531 -1.03125 4.5 -1.34375 C 4.988281 -1.65625 5.425781 -1.992188 5.8125 -2.359375 C 6.207031 -2.734375 6.550781 -3.085938 6.84375 -3.421875 C 7.144531 -3.753906 7.390625 -4.046875 7.578125 -4.296875 C 7.773438 -4.546875 7.910156 -4.703125 7.984375 -4.765625 L 8.234375 -4.5625 C 8.128906 -4.476562 7.972656 -4.300781 7.765625 -4.03125 C 7.554688 -3.769531 7.289062 -3.46875 6.96875 -3.125 C 6.65625 -2.78125 6.296875 -2.421875 5.890625 -2.046875 C 5.484375 -1.671875 5.03125 -1.328125 4.53125 -1.015625 Z M 0.9375 -3.828125 C 3.300781 -4.648438 4.820312 -5.472656 5.5 -6.296875 C 5.726562 -6.566406 5.84375 -6.832031 5.84375 -7.09375 C 5.84375 -7.53125 5.640625 -7.75 5.234375 -7.75 C 4.515625 -7.75 3.613281 -7.117188 2.53125 -5.859375 C 1.78125 -4.984375 1.25 -4.304688 0.9375 -3.828125 Z M 0.9375 -3.828125 "/></g></g><g transform="translate(237.469209, 206.849986)"><g><path d="M -1.140625 -0.6875 C -1.140625 -0.4375 -0.953125 -0.3125 -0.578125 -0.3125 C -0.203125 -0.3125 0.195312 -0.410156 0.625 -0.609375 C 1.050781 -0.804688 1.472656 -1.054688 1.890625 -1.359375 C 2.304688 -1.660156 2.707031 -1.992188 3.09375 -2.359375 C 3.488281 -2.722656 3.847656 -3.070312 4.171875 -3.40625 L 4.984375 -4.265625 C 5.203125 -4.515625 5.347656 -4.679688 5.421875 -4.765625 L 5.65625 -4.5625 C 5.570312 -4.476562 5.414062 -4.304688 5.1875 -4.046875 C 4.957031 -3.785156 4.675781 -3.488281 4.34375 -3.15625 C 4.007812 -2.820312 3.632812 -2.46875 3.21875 -2.09375 C 2.8125 -1.71875 2.390625 -1.375 1.953125 -1.0625 C 0.910156 -0.332031 0 0.03125 -0.78125 0.03125 C -1.113281 0.03125 -1.382812 -0.0546875 -1.59375 -0.234375 C -1.8125 -0.421875 -1.921875 -0.617188 -1.921875 -0.828125 C -1.921875 -1.035156 -1.910156 -1.203125 -1.890625 -1.328125 C -1.867188 -1.453125 -1.828125 -1.59375 -1.765625 -1.75 C -1.703125 -1.914062 -1.613281 -2.101562 -1.5 -2.3125 C -1.382812 -2.53125 -1.226562 -2.789062 -1.03125 -3.09375 L 0.765625 -5.75 L 9.828125 -18.6875 C 10.390625 -18.613281 10.929688 -18.613281 11.453125 -18.6875 C 3.992188 -8.332031 0.132812 -2.957031 -0.125 -2.5625 C -0.394531 -2.164062 -0.59375 -1.867188 -0.71875 -1.671875 C -0.84375 -1.472656 -0.9375 -1.3125 -1 -1.1875 C -1.09375 -1 -1.140625 -0.832031 -1.140625 -0.6875 Z M -1.140625 -0.6875 "/></g></g><g transform="translate(242.812959, 206.849986)"><g><path d="M 4.671875 0.03125 C 3.890625 0.03125 3.5 -0.210938 3.5 -0.703125 C 3.5 -1.097656 3.726562 -1.597656 4.1875 -2.203125 L 4.921875 -3.140625 L 4.8125 -3.1875 C 3.5 -1.570312 2.257812 -0.554688 1.09375 -0.140625 C 0.769531 -0.0234375 0.492188 0.03125 0.265625 0.03125 C -0.703125 0.03125 -1.1875 -0.484375 -1.1875 -1.515625 C -1.1875 -2.710938 -0.703125 -3.859375 0.265625 -4.953125 C 1.679688 -6.609375 3.109375 -7.59375 4.546875 -7.90625 C 4.972656 -7.988281 5.335938 -8.03125 5.640625 -8.03125 C 5.953125 -8.03125 6.195312 -8.007812 6.375 -7.96875 C 6.550781 -7.925781 6.703125 -7.863281 6.828125 -7.78125 C 7.109375 -7.601562 7.25 -7.382812 7.25 -7.125 C 7.25 -6.863281 7.203125 -6.613281 7.109375 -6.375 L 8.265625 -7.796875 C 8.472656 -7.734375 8.664062 -7.703125 8.84375 -7.703125 C 9.3125 -7.703125 9.644531 -7.71875 9.84375 -7.75 L 5.890625 -2.984375 C 4.953125 -1.890625 4.484375 -1.125 4.484375 -0.6875 C 4.484375 -0.4375 4.628906 -0.3125 4.921875 -0.3125 C 5.222656 -0.3125 5.566406 -0.398438 5.953125 -0.578125 C 6.347656 -0.753906 6.734375 -0.984375 7.109375 -1.265625 C 7.492188 -1.546875 7.867188 -1.859375 8.234375 -2.203125 C 8.597656 -2.546875 8.929688 -2.878906 9.234375 -3.203125 C 9.546875 -3.535156 9.820312 -3.84375 10.0625 -4.125 L 10.625 -4.765625 L 10.859375 -4.5625 L 10.265625 -3.875 C 8.015625 -1.269531 6.148438 0.03125 4.671875 0.03125 Z M 1.4375 -4.203125 C 0.332031 -2.859375 -0.21875 -1.765625 -0.21875 -0.921875 C -0.21875 -0.523438 -0.0390625 -0.328125 0.3125 -0.328125 C 1.445312 -0.328125 3.085938 -1.585938 5.234375 -4.109375 L 6.21875 -5.296875 C 6.6875 -6.003906 6.921875 -6.519531 6.921875 -6.84375 C 6.921875 -7.394531 6.648438 -7.671875 6.109375 -7.671875 C 5.367188 -7.671875 4.300781 -7.035156 2.90625 -5.765625 C 2.425781 -5.328125 1.9375 -4.804688 1.4375 -4.203125 Z M 1.4375 -4.203125 "/></g></g><g transform="translate(253.348114, 206.849986)"><g><path d="M 3.609375 -2.15625 C 3.703125 -2.144531 3.820312 -2.140625 3.96875 -2.140625 C 4.113281 -2.140625 4.285156 -2.191406 4.484375 -2.296875 C 4.691406 -2.410156 4.898438 -2.550781 5.109375 -2.71875 C 5.328125 -2.894531 5.539062 -3.082031 5.75 -3.28125 C 5.96875 -3.488281 6.160156 -3.6875 6.328125 -3.875 C 6.503906 -4.070312 6.660156 -4.25 6.796875 -4.40625 L 7.0625 -4.765625 L 7.328125 -4.5625 C 7.234375 -4.46875 7.113281 -4.335938 6.96875 -4.171875 L 6.46875 -3.609375 C 5.382812 -2.441406 4.523438 -1.859375 3.890625 -1.859375 L 3.6875 -1.859375 C 3.625 -1.859375 3.5625 -1.863281 3.5 -1.875 C 2.84375 -0.445312 1.445312 0.265625 -0.6875 0.265625 C -1.613281 0.265625 -2.285156 0.0390625 -2.703125 -0.40625 C -2.890625 -0.59375 -2.984375 -0.835938 -2.984375 -1.140625 C -2.984375 -1.453125 -2.910156 -1.710938 -2.765625 -1.921875 C -2.617188 -2.140625 -2.445312 -2.320312 -2.25 -2.46875 C -1.851562 -2.75 -1.492188 -2.890625 -1.171875 -2.890625 C -0.859375 -2.890625 -0.703125 -2.742188 -0.703125 -2.453125 C -0.722656 -2.242188 -0.894531 -2.09375 -1.21875 -2 C -1.320312 -1.96875 -1.421875 -1.953125 -1.515625 -1.953125 C -1.617188 -1.953125 -1.710938 -1.984375 -1.796875 -2.046875 C -1.890625 -2.109375 -1.960938 -2.15625 -2.015625 -2.1875 C -2.066406 -2.144531 -2.128906 -2.09375 -2.203125 -2.03125 C -2.273438 -1.96875 -2.347656 -1.894531 -2.421875 -1.8125 C -2.585938 -1.59375 -2.671875 -1.375 -2.671875 -1.15625 C -2.671875 -0.9375 -2.597656 -0.757812 -2.453125 -0.625 C -2.304688 -0.488281 -2.128906 -0.382812 -1.921875 -0.3125 C -1.617188 -0.207031 -1.300781 -0.15625 -0.96875 -0.15625 C -0.632812 -0.15625 -0.289062 -0.222656 0.0625 -0.359375 C 0.414062 -0.503906 0.765625 -0.738281 1.109375 -1.0625 C 2.054688 -1.96875 2.570312 -3.300781 2.65625 -5.0625 C 2.695312 -6.25 2.835938 -7.179688 3.078125 -7.859375 C 3.085938 -7.878906 3.09375 -7.910156 3.09375 -7.953125 L 0.328125 -4.5625 C 0.171875 -4.375 0.0546875 -4.25 -0.015625 -4.1875 C -0.0859375 -4.132812 -0.125 -4.109375 -0.125 -4.109375 C -0.21875 -4.109375 -0.28125 -4.132812 -0.3125 -4.1875 C -0.332031 -4.226562 -0.300781 -4.300781 -0.21875 -4.40625 C 1.800781 -6.8125 2.9375 -8.179688 3.1875 -8.515625 C 3.3125 -9.117188 3.515625 -9.421875 3.796875 -9.421875 C 3.929688 -9.421875 4.039062 -9.382812 4.125 -9.3125 C 4.21875 -9.25 4.265625 -9.160156 4.265625 -9.046875 C 4.253906 -8.898438 4.132812 -8.691406 3.90625 -8.421875 C 3.675781 -8.148438 3.535156 -7.976562 3.484375 -7.90625 C 3.429688 -7.832031 3.394531 -7.769531 3.375 -7.71875 C 3.363281 -7.664062 3.359375 -7.617188 3.359375 -7.578125 L 3.359375 -7.4375 C 3.359375 -7.21875 3.378906 -6.96875 3.421875 -6.6875 L 3.71875 -4.734375 C 3.882812 -3.671875 3.847656 -2.8125 3.609375 -2.15625 Z M 3.609375 -2.15625 "/></g></g><g transform="translate(260.332489, 206.849986)"><g><path d="M -1.34375 -0.21875 C -1.550781 -0.257812 -1.785156 -0.28125 -2.046875 -0.28125 C -2.484375 -0.28125 -2.847656 -0.242188 -3.140625 -0.171875 L 9.828125 -18.6875 C 10.359375 -18.613281 10.90625 -18.613281 11.46875 -18.6875 L -0.171875 -2.5625 L -0.109375 -2.421875 C 0.484375 -3.109375 1.035156 -3.71875 1.546875 -4.25 L 2.9375 -5.65625 C 3.738281 -6.4375 4.382812 -6.984375 4.875 -7.296875 C 5.613281 -7.785156 6.316406 -8.03125 6.984375 -8.03125 C 7.679688 -8.03125 8.117188 -7.78125 8.296875 -7.28125 C 8.648438 -6.3125 7.550781 -4.457031 5 -1.71875 L 4.546875 -1.21875 C 4.296875 -0.9375 4.171875 -0.722656 4.171875 -0.578125 C 4.171875 -0.492188 4.253906 -0.425781 4.421875 -0.375 C 4.597656 -0.332031 4.84375 -0.3125 5.15625 -0.3125 C 5.46875 -0.3125 5.832031 -0.410156 6.25 -0.609375 C 6.675781 -0.804688 7.085938 -1.054688 7.484375 -1.359375 C 7.890625 -1.660156 8.269531 -1.992188 8.625 -2.359375 C 8.988281 -2.734375 9.3125 -3.082031 9.59375 -3.40625 C 9.875 -3.738281 10.113281 -4.03125 10.3125 -4.28125 C 10.507812 -4.53125 10.644531 -4.691406 10.71875 -4.765625 L 10.96875 -4.5625 C 10.894531 -4.476562 10.753906 -4.304688 10.546875 -4.046875 C 10.335938 -3.785156 10.082031 -3.484375 9.78125 -3.140625 C 9.476562 -2.804688 9.132812 -2.453125 8.75 -2.078125 C 8.375 -1.703125 7.972656 -1.363281 7.546875 -1.0625 C 6.566406 -0.332031 5.671875 0.03125 4.859375 0.03125 C 4.222656 0.03125 3.753906 -0.144531 3.453125 -0.5 C 3.359375 -0.613281 3.3125 -0.742188 3.3125 -0.890625 C 3.3125 -1.035156 3.332031 -1.203125 3.375 -1.390625 C 3.414062 -1.585938 3.519531 -1.835938 3.6875 -2.140625 C 4.09375 -2.804688 4.625 -3.507812 5.28125 -4.25 C 5.9375 -4.988281 6.367188 -5.488281 6.578125 -5.75 C 6.785156 -6.019531 6.953125 -6.253906 7.078125 -6.453125 C 7.316406 -6.828125 7.4375 -7.113281 7.4375 -7.3125 C 7.4375 -7.59375 7.25 -7.734375 6.875 -7.734375 C 6.382812 -7.734375 5.820312 -7.515625 5.1875 -7.078125 C 3.625 -6.035156 1.804688 -4.226562 -0.265625 -1.65625 Z M -1.34375 -0.21875 "/></g></g></g><g fill="#ffffff" fill-opacity="1"><g transform="translate(270.961398, 206.849986)"><g/></g></g></svg>