<svg xmlns="http://www.w3.org/2000/svg" xmlns:xlink="http://www.w3.org/1999/xlink" width="500" zoomAndPan="magnify" viewBox="0 0 375 374.999991" height="500" preserveAspectRatio="xMidYMid meet" version="1.0"><defs><clipPath id="b0cdbd7055"><path d="M 34 26 L 336 26 L 336 328 L 34 328 Z M 34 26 " clip-rule="nonzero"/></clipPath><clipPath id="e258287bc5"><path d="M 203.351562 -34.769531 L 396.617188 195.664062 L 166.183594 388.929688 L -27.082031 158.496094 Z M 203.351562 -34.769531 " clip-rule="nonzero"/></clipPath><clipPath id="7194b19716"><path d="M 203.351562 -34.769531 L 396.617188 195.664062 L 166.183594 388.929688 L -27.082031 158.496094 Z M 203.351562 -34.769531 " clip-rule="nonzero"/></clipPath><clipPath id="0ad840d61b"><path d="M 299.984375 80.449219 C 246.613281 16.816406 151.765625 8.496094 88.132812 61.863281 C 24.503906 115.234375 16.183594 210.082031 69.550781 273.714844 C 122.917969 337.347656 217.769531 345.664062 281.398438 292.296875 C 345.03125 238.929688 353.351562 144.082031 299.984375 80.449219 " clip-rule="nonzero"/></clipPath><clipPath id="0b26575a94"><path d="M 75.402344 92 L 261.535156 92 L 261.535156 269.800781 L 75.402344 269.800781 Z M 75.402344 92 " clip-rule="nonzero"/></clipPath><clipPath id="e6f8bd7260"><path d="M 246 85.425781 L 294.445312 85.425781 L 294.445312 172.140625 L 246 172.140625 Z M 246 85.425781 " clip-rule="nonzero"/></clipPath><clipPath id="31085afcef"><path d="M 34 26 L 336 26 L 336 328 L 34 328 Z M 34 26 " clip-rule="nonzero"/></clipPath><clipPath id="edecdc3ba5"><path d="M 203.351562 -34.769531 L 396.617188 195.664062 L 166.183594 388.929688 L -27.082031 158.496094 Z M 203.351562 -34.769531 " clip-rule="nonzero"/></clipPath><clipPath id="4f56d78dd3"><path d="M 203.351562 -34.769531 L 396.617188 195.664062 L 166.183594 388.929688 L -27.082031 158.496094 Z M 203.351562 -34.769531 " clip-rule="nonzero"/></clipPath><clipPath id="1eecfa199d"><path d="M 299.984375 80.449219 C 246.613281 16.816406 151.765625 8.496094 88.132812 61.863281 C 24.503906 115.234375 16.183594 210.082031 69.550781 273.714844 C 122.917969 337.347656 217.769531 345.664062 281.398438 292.296875 C 345.03125 238.929688 353.351562 144.082031 299.984375 80.449219 " clip-rule="nonzero"/></clipPath></defs><g clip-path="url(#b0cdbd7055)"><g clip-path="url(#e258287bc5)"><g clip-path="url(#7194b19716)"><g clip-path="url(#0ad840d61b)"><path stroke-linecap="butt" transform="matrix(0.482165, 0.574891, -0.574891, 0.482165, 203.350861, -34.767786)" fill="none" stroke-linejoin="miter" d="M 200.415649 -0.000234843 C 89.727312 0.00162544 -0.00102925 89.729627 -0.00315785 200.414619 C 0.00204793 311.098967 89.73005 400.827308 200.415041 400.829436 C 311.100032 400.831565 400.82773 311.096229 400.826513 200.415226 C 400.828642 89.730235 311.10064 0.00189375 200.415649 -0.000234843 " stroke="#000000" stroke-width="2" stroke-opacity="1" stroke-miterlimit="4"/></g></g></g></g><g clip-path="url(#0b26575a94)"><path fill="#03072b" d="M 180.910156 269.84375 C 172.902344 269.84375 164.535156 266.734375 155.351562 260.347656 C 147.507812 254.890625 140.53125 248.074219 134.164062 241.519531 C 117.648438 224.527344 102.527344 190.578125 97.949219 177.171875 C 96.335938 178.046875 94.429688 178.113281 92.53125 177.339844 C 89.734375 176.207031 87.058594 173.398438 84.578125 168.992188 C 81.578125 163.671875 78.941406 156.117188 76.746094 146.539062 C 73.253906 131.320312 77.441406 128.09375 79.402344 127.414062 C 81.167969 126.796875 83.328125 127.339844 85.484375 128.941406 C 87.617188 130.519531 89.558594 133.007812 90.949219 135.945312 C 91.785156 137.894531 92.886719 138.742188 93.503906 138.554688 C 94.347656 138.300781 94.988281 136.152344 94.027344 130.941406 C 93.59375 128.585938 93.644531 127.164062 94.1875 126.46875 C 94.421875 126.167969 94.738281 126.003906 95.132812 125.980469 C 96.109375 125.921875 97.117188 126.929688 98.644531 128.460938 C 101.714844 131.535156 106.351562 136.1875 114.671875 136.097656 L 116.1875 136.082031 L 114.839844 136.777344 C 114.808594 136.792969 112.363281 138.066406 110.507812 139.777344 C 112.429688 138.386719 114.335938 137.597656 116.546875 137.753906 L 117.691406 137.832031 L 116.707031 138.421875 C 116.597656 138.484375 116.484375 138.554688 116.367188 138.621094 C 114.949219 139.457031 113.261719 140.453125 112.566406 142.214844 C 114.222656 140.289062 116.542969 139.066406 118.625 139.121094 L 120.066406 139.15625 L 118.777344 139.800781 C 117.464844 140.457031 116.496094 141.894531 116.121094 143.238281 C 117.8125 140.894531 120.460938 139.589844 122.515625 139.484375 L 124.824219 139.371094 L 122.664062 140.183594 C 121.332031 140.683594 120.410156 142.375 120.109375 144.066406 C 121.480469 141.878906 122.824219 140.519531 125.644531 140.132812 L 127.34375 139.902344 L 125.882812 140.796875 C 125.140625 141.25 124.25 142.859375 123.828125 144.394531 C 124.96875 142.453125 126.644531 140.9375 128.363281 140.390625 L 129.636719 139.988281 L 128.738281 140.976562 C 128.238281 141.527344 127.746094 142.816406 127.523438 144.058594 C 128.339844 142.277344 129.671875 140.644531 131.527344 140.289062 L 132.757812 140.050781 L 131.835938 140.90625 C 130.898438 141.777344 130.476562 143.445312 130.722656 145.015625 C 131.773438 142.539062 132.695312 140.621094 134.527344 140.113281 L 135.398438 139.867188 L 134.929688 140.644531 C 134.1875 141.871094 133.496094 143.5625 134.015625 145.121094 C 134.746094 142.5 135.789062 139.96875 137.730469 139.378906 L 138.78125 139.058594 L 138.125 139.9375 C 137.125 141.273438 137.019531 142.144531 137.398438 142.945312 C 137.839844 140.628906 138.90625 139.355469 140.929688 138.648438 L 141.941406 138.296875 L 141.347656 139.1875 C 140.875 139.902344 140.75 140.941406 140.988281 142.042969 C 140.996094 142.019531 141.003906 141.996094 141.011719 141.972656 C 141.605469 140.269531 142.285156 138.339844 144.65625 137.898438 L 145.40625 137.761719 L 145.035156 138.429688 C 144.441406 139.496094 144.007812 140.40625 144.117188 141.488281 C 144.125 141.460938 144.132812 141.433594 144.140625 141.40625 C 144.839844 139.125 145.222656 137.867188 148.417969 137.257812 L 149.800781 136.996094 L 148.714844 137.886719 C 147.941406 138.523438 147.597656 139.148438 147.46875 139.90625 C 148.730469 138.339844 150.757812 137.097656 152.949219 136.617188 C 154.796875 136.207031 156.546875 136.378906 157.984375 137.09375 C 156.378906 133.75 153.917969 131.8125 150.320312 131.035156 C 146.652344 130.242188 142.199219 130.671875 137.042969 131.164062 C 126.136719 132.207031 112.570312 133.507812 99.199219 123.429688 L 98.191406 122.671875 L 99.449219 122.785156 C 104.628906 123.257812 114.054688 120.019531 120.550781 117.105469 C 125.875 114.71875 131.246094 113.582031 136.519531 113.722656 C 141.304688 113.851562 145.851562 115.074219 149.667969 117.257812 C 155.15625 120.394531 158.757812 125.28125 159.65625 130.75 C 160.644531 129.277344 161.554688 126.679688 161.652344 123.507812 C 161.746094 120.566406 161.164062 116.191406 157.878906 112.074219 C 152.71875 105.609375 144.152344 101.347656 134.375 100.386719 C 128.617188 99.820312 122.5 100.375 116.195312 102.035156 C 109.140625 103.894531 101.855469 107.140625 94.539062 111.695312 L 93.84375 112.125 L 93.996094 111.324219 C 95.09375 105.488281 99.230469 100.816406 106.296875 97.445312 C 111.898438 94.773438 119.304688 93.023438 127.164062 92.515625 C 137.355469 91.859375 146.789062 93.285156 154.445312 96.632812 C 161.46875 99.703125 166.753906 104.335938 169.335938 109.683594 C 173.128906 117.546875 173.246094 136.425781 173.304688 146.570312 C 173.308594 147.65625 173.316406 148.644531 173.324219 149.519531 C 173.5 165.398438 168.527344 173.675781 165.554688 178.617188 C 165.296875 179.046875 165.054688 179.449219 164.832031 179.832031 C 162.328125 184.117188 162.292969 187.886719 164.75 189.90625 C 166.601562 191.429688 167.628906 190.703125 168.816406 189.859375 C 169.699219 189.234375 170.699219 188.527344 172.003906 189.03125 C 172.867188 189.363281 173.652344 189.9375 174.484375 190.542969 C 176.8125 192.242188 179.015625 193.847656 182.910156 190.40625 C 184.40625 189.085938 185.585938 188.53125 186.730469 188.605469 C 188.289062 188.707031 189.695312 189.96875 191.324219 191.835938 L 191.746094 192.316406 L 191.113281 192.425781 C 186.410156 193.234375 183.140625 195.269531 181.398438 198.480469 C 179.300781 202.347656 179.960938 206.988281 181.164062 209.78125 L 180.507812 210.066406 C 179.238281 207.125 178.546875 202.234375 180.765625 198.136719 C 182.539062 194.871094 185.761719 192.75 190.359375 191.835938 C 188.800781 190.125 187.714844 189.386719 186.679688 189.320312 C 185.742188 189.261719 184.726562 189.761719 183.386719 190.941406 C 179.054688 194.765625 176.402344 192.832031 174.058594 191.121094 C 173.269531 190.546875 172.519531 190 171.746094 189.703125 C 170.800781 189.335938 170.074219 189.847656 169.230469 190.445312 C 168.046875 191.289062 166.566406 192.335938 164.292969 190.460938 C 161.542969 188.195312 161.511719 184.085938 164.210938 179.46875 C 164.4375 179.085938 164.679688 178.679688 164.941406 178.25 C 167.871094 173.371094 172.78125 165.199219 172.609375 149.527344 C 172.597656 148.652344 172.59375 147.660156 172.585938 146.574219 C 172.527344 136.488281 172.414062 117.714844 168.6875 109.996094 C 166.183594 104.804688 161.023438 100.292969 154.160156 97.292969 C 146.605469 93.988281 137.285156 92.585938 127.210938 93.234375 C 119.441406 93.734375 112.125 95.460938 106.605469 98.09375 C 100.097656 101.203125 96.152344 105.421875 94.875 110.640625 C 102.011719 106.28125 109.117188 103.15625 116.011719 101.339844 C 122.398438 99.65625 128.601562 99.09375 134.445312 99.667969 C 144.414062 100.652344 153.160156 105.007812 158.441406 111.625 C 161.863281 115.914062 162.46875 120.46875 162.371094 123.53125 C 162.265625 126.953125 161.207031 130.230469 159.679688 131.882812 L 159.144531 132.460938 L 159.058594 131.679688 C 158.4375 126.097656 154.882812 121.066406 149.308594 117.882812 C 145.597656 115.757812 141.167969 114.570312 136.5 114.441406 C 131.335938 114.300781 126.066406 115.417969 120.847656 117.761719 C 118.601562 118.769531 107.578125 123.546875 100.582031 123.554688 C 113.421875 132.703125 126.453125 131.457031 136.972656 130.445312 C 147.304688 129.457031 155.460938 128.675781 159.109375 137.871094 L 159.589844 139.082031 L 158.558594 138.289062 C 157.136719 137.203125 155.203125 136.855469 153.101562 137.316406 C 150.613281 137.867188 148.367188 139.449219 147.375 141.347656 L 146.753906 142.539062 L 146.699219 141.195312 C 146.652344 140.0625 146.765625 139.125 147.382812 138.253906 C 145.6875 138.808594 145.410156 139.714844 144.828125 141.617188 C 144.710938 141.996094 144.582031 142.429688 144.425781 142.890625 L 144.117188 143.804688 L 143.753906 142.914062 C 143.089844 141.308594 143.40625 140.074219 144.003906 138.84375 C 142.660156 139.4375 142.1875 140.792969 141.6875 142.210938 C 141.5625 142.570312 141.433594 142.941406 141.292969 143.292969 L 140.953125 144.117188 L 140.625 143.292969 C 140.109375 142.011719 140.011719 140.730469 140.328125 139.691406 C 138.902344 140.453125 138.21875 141.726562 137.972656 143.96875 L 137.878906 144.828125 L 137.335938 144.15625 C 136.457031 143.066406 136.25 142.054688 136.734375 140.882812 C 135.636719 142.085938 134.957031 144.285156 134.464844 146.230469 L 134.265625 147.015625 L 133.816406 146.339844 C 132.710938 144.667969 133.074219 142.804688 133.769531 141.292969 C 132.71875 142.125 132.027344 143.765625 131.140625 145.871094 L 130.613281 147.117188 L 130.300781 146.257812 C 129.710938 144.648438 129.847656 142.777344 130.5625 141.421875 C 129.027344 142.339844 127.945312 144.417969 127.496094 146.363281 L 127.171875 147.773438 L 126.800781 146.375 C 126.460938 145.097656 126.902344 142.941406 127.5625 141.527344 C 125.886719 142.480469 124.375 144.382812 123.609375 146.578125 L 123.128906 147.960938 L 122.914062 146.511719 C 122.691406 145.019531 123.535156 142.519531 124.589844 141.089844 C 122.355469 141.75 121.328125 143.34375 119.960938 145.71875 L 119.351562 146.773438 L 119.289062 145.554688 C 119.203125 143.851562 119.816406 141.78125 120.984375 140.507812 C 119.082031 141.121094 117.03125 142.644531 115.933594 144.957031 L 115.40625 146.082031 L 115.253906 144.847656 C 115.074219 143.390625 115.847656 141.3125 117.273438 139.988281 C 115.355469 140.453125 113.398438 141.941406 112.195312 143.953125 L 111.472656 145.152344 L 111.527344 143.75 C 111.632812 141.03125 113.480469 139.550781 115.164062 138.507812 C 112.863281 138.796875 110.828125 140.25 108.578125 142.316406 L 107.410156 143.390625 L 108.003906 141.917969 C 108.875 139.75 111.734375 137.773438 113.363281 136.792969 C 105.542969 136.398438 100.941406 131.785156 98.136719 128.96875 C 96.847656 127.675781 95.832031 126.65625 95.175781 126.695312 C 94.988281 126.710938 94.859375 126.777344 94.753906 126.910156 C 94.480469 127.261719 94.253906 128.222656 94.734375 130.808594 C 95.636719 135.699219 95.265625 138.773438 93.714844 139.242188 C 92.582031 139.585938 91.210938 138.378906 90.296875 136.242188 C 87.59375 130.539062 82.910156 126.957031 79.636719 128.09375 C 75.933594 129.378906 75.117188 136.214844 77.445312 146.378906 C 79.71875 156.289062 84.734375 173.402344 92.800781 176.671875 C 94.636719 177.417969 96.464844 177.296875 97.949219 176.335938 L 98.339844 176.082031 L 98.488281 176.523438 C 102.871094 189.570312 118.074219 223.933594 134.679688 241.019531 C 141.023438 247.546875 147.96875 254.332031 155.765625 259.757812 C 165.046875 266.210938 173.464844 269.277344 181.496094 269.117188 C 189.898438 268.953125 198.316406 265.507812 207.242188 258.578125 C 214.898438 252.636719 221.640625 245.09375 227.058594 239.03125 L 227.34375 238.710938 C 233.9375 231.375 240.601562 221.933594 246.621094 211.398438 C 252.085938 201.832031 256.917969 191.585938 260.605469 181.746094 C 259.90625 180.941406 256.800781 177.25 253.902344 172.207031 C 250.875 166.9375 247.457031 159.0625 248.386719 151.484375 L 249.097656 151.570312 C 248.191406 158.945312 251.546875 166.664062 254.519531 171.835938 C 257.753906 177.46875 261.25 181.390625 261.285156 181.429688 L 261.433594 181.59375 L 261.355469 181.796875 C 257.648438 191.730469 252.765625 202.09375 247.246094 211.757812 C 241.203125 222.332031 234.503906 231.816406 227.878906 239.191406 L 227.59375 239.511719 C 222.15625 245.59375 215.390625 253.167969 207.683594 259.148438 C 198.628906 266.171875 190.070312 269.667969 181.511719 269.835938 C 181.3125 269.839844 181.109375 269.84375 180.910156 269.84375 " fill-opacity="1" fill-rule="nonzero"/></g><path fill="#03072b" d="M 168.324219 221.660156 L 168.492188 221.496094 L 168.6875 221.625 C 174.304688 225.351562 180.484375 226.511719 185.226562 224.730469 C 188.652344 223.441406 191.375 222.589844 195.152344 223.429688 C 197.476562 223.945312 203.382812 224.570312 207.300781 222.605469 C 205.710938 223.085938 204.003906 223.246094 202.460938 223.246094 C 201.9375 223.246094 201.433594 223.226562 200.960938 223.199219 C 197.699219 223 194.03125 222.132812 191.390625 220.9375 C 188.253906 219.523438 185.214844 218.890625 182.445312 218.722656 C 182.242188 219.609375 181.84375 220.359375 181.15625 220.832031 C 177.257812 223.535156 172.636719 222.695312 169.609375 221.007812 L 169.117188 220.734375 L 169.632812 220.496094 C 171.351562 219.703125 176.023438 217.878906 181.984375 218.125 C 182.394531 215.148438 180.792969 210.660156 180.507812 209.898438 C 179.1875 209.996094 177.828125 209.351562 176.398438 208.667969 C 174.566406 207.792969 172.671875 206.882812 170.558594 207.378906 C 167.890625 208.003906 164.671875 210.789062 163.410156 211.953125 C 160.742188 214.429688 152.613281 221.492188 150.054688 222.355469 L 149.460938 222.554688 C 151.121094 222.9375 154.828125 223.433594 158.535156 223.523438 C 163.527344 223.640625 167.003906 222.980469 168.324219 221.660156 " fill-opacity="1" fill-rule="nonzero"/><path fill="#03072b" d="M 170.414062 220.78125 C 173.277344 222.191406 177.363281 222.761719 180.832031 220.359375 C 181.363281 219.988281 181.695312 219.402344 181.875 218.691406 C 176.621094 218.496094 172.402344 219.933594 170.414062 220.78125 " fill-opacity="1" fill-rule="nonzero"/><path fill="#03072b" d="M 182.546875 218.152344 C 185.363281 218.328125 188.441406 218.980469 191.625 220.414062 C 196.601562 222.660156 205.625 223.957031 209.90625 220.675781 C 209.675781 220.671875 209.722656 220.710938 209.308594 220.648438 C 207.515625 220.398438 205.21875 218.132812 202.566406 215.515625 C 198.660156 211.664062 193.8125 206.882812 188.472656 206.882812 C 188.402344 206.882812 188.332031 206.882812 188.265625 206.882812 C 186.257812 206.933594 184.890625 207.796875 183.679688 208.558594 C 182.839844 209.09375 182.039062 209.597656 181.089844 209.808594 C 181.480469 210.871094 182.949219 215.109375 182.546875 218.152344 " fill-opacity="1" fill-rule="nonzero"/><path fill="#03072b" d="M 209.84375 221.425781 C 208.195312 223.242188 205.488281 224.269531 201.808594 224.484375 C 198.941406 224.648438 196.199219 224.253906 195.027344 223.992188 C 191.40625 223.1875 188.761719 224.011719 185.425781 225.265625 C 183.902344 225.839844 182.230469 226.121094 180.484375 226.121094 C 176.671875 226.121094 172.480469 224.785156 168.558594 222.230469 C 165.035156 225.292969 152.710938 223.914062 149.269531 223.101562 C 149.464844 223.332031 149.714844 223.617188 149.910156 223.804688 C 151.800781 225.621094 156.230469 229.867188 162.039062 233.648438 C 169.089844 238.230469 175.742188 240.554688 181.820312 240.554688 C 182.019531 240.554688 182.214844 240.550781 182.414062 240.542969 C 190.558594 240.339844 197.464844 235.34375 201.824219 231.183594 C 205.730469 227.460938 208.765625 223.074219 209.855469 221.421875 C 209.851562 221.421875 209.847656 221.425781 209.84375 221.425781 " fill-opacity="1" fill-rule="nonzero"/><path fill="#03072b" d="M 234.0625 132.117188 L 234.316406 132.792969 C 226.429688 135.761719 218.710938 141.6875 214.171875 148.253906 L 213.582031 147.847656 C 218.199219 141.164062 226.046875 135.136719 234.0625 132.117188 Z M 222.96875 157.792969 L 222.285156 157.582031 C 224.207031 151.328125 229.121094 141.480469 234.019531 135.820312 L 234.5625 136.292969 C 229.722656 141.878906 224.867188 151.613281 222.96875 157.792969 Z M 207.589844 144.589844 C 207.746094 146.316406 209.4375 150.972656 212.214844 155.222656 C 214.628906 158.921875 218.578125 163.445312 223.671875 163.988281 C 227.339844 164.378906 230.460938 160.421875 232.429688 157.03125 C 234.742188 153.050781 236.496094 148.082031 237.207031 144.925781 C 238.109375 140.933594 238.832031 135.171875 238.175781 130.976562 C 237.777344 128.457031 236.929688 128.484375 234.660156 128.546875 C 234.285156 128.558594 233.863281 128.570312 233.414062 128.570312 C 232.75 128.570312 230.136719 128.738281 226.628906 129.175781 C 221.949219 130.757812 217.351562 132.449219 213.890625 134.558594 C 209.230469 137.402344 207.226562 140.589844 207.589844 144.589844 " fill-opacity="1" fill-rule="nonzero"/><path fill="#03072b" d="M 275.140625 147.847656 L 274.550781 148.253906 C 270.011719 141.6875 262.292969 135.761719 254.40625 132.792969 L 254.660156 132.117188 C 262.675781 135.136719 270.523438 141.164062 275.140625 147.847656 Z M 265.75 157.792969 C 263.851562 151.613281 258.996094 141.878906 254.160156 136.292969 L 254.703125 135.820312 C 259.601562 141.480469 264.519531 151.328125 266.441406 157.582031 Z M 254.097656 128.546875 C 253.769531 128.539062 253.46875 128.527344 253.195312 128.527344 C 251.589844 128.527344 250.921875 128.824219 250.582031 130.976562 C 249.921875 135.171875 250.648438 140.933594 251.546875 144.925781 C 252.257812 148.082031 254.011719 153.050781 256.328125 157.03125 C 258.296875 160.421875 261.414062 164.375 265.085938 163.988281 C 270.179688 163.445312 274.128906 158.921875 276.542969 155.222656 C 279.316406 150.972656 281.011719 146.316406 281.167969 144.589844 C 281.527344 140.589844 279.527344 137.402344 274.863281 134.558594 C 271.40625 132.449219 266.808594 130.757812 262.125 129.175781 C 258.621094 128.738281 256.007812 128.570312 255.34375 128.570312 C 254.894531 128.570312 254.46875 128.558594 254.097656 128.546875 " fill-opacity="1" fill-rule="nonzero"/><path fill="#03072b" d="M 244.457031 124.035156 C 244.015625 124.035156 243.605469 123.875 243.265625 123.605469 C 242.085938 127.910156 241.488281 136.003906 241.738281 144.34375 C 241.984375 152.660156 242.988281 159.136719 244.378906 161.476562 C 245.464844 159.648438 246.316406 155.296875 246.753906 149.515625 C 246.828125 148.757812 246.96875 146.105469 247.019531 144.34375 C 247.265625 136.066406 246.679688 128.027344 245.519531 123.699219 C 245.207031 123.914062 244.84375 124.035156 244.457031 124.035156 " fill-opacity="1" fill-rule="nonzero"/><path fill="#03072b" d="M 234.445312 118.066406 L 233.933594 118.570312 C 226.121094 110.617188 216.496094 104.1875 211.027344 101.949219 L 211.300781 101.285156 C 215.625 103.054688 220.324219 106.253906 223.503906 108.621094 C 227.449219 111.5625 231.4375 115.003906 234.445312 118.066406 Z M 234.152344 121.667969 C 223.855469 117.40625 214.152344 117.589844 210.460938 117.867188 C 210.28125 117.882812 210.203125 117.890625 210.15625 117.890625 L 210.15625 117.167969 C 210.191406 117.167969 210.277344 117.160156 210.40625 117.152344 C 214.152344 116.871094 223.988281 116.683594 234.429688 121.003906 Z M 220.449219 99.472656 C 212.855469 93.625 208.453125 92.910156 206.757812 92.910156 C 206.695312 92.910156 206.632812 92.910156 206.578125 92.910156 C 205.410156 92.949219 204.566406 93.320312 204.144531 93.992188 C 202.953125 95.871094 204.203125 98.019531 205.648438 100.507812 C 206.359375 101.730469 207.09375 102.996094 207.570312 104.3125 C 209.601562 109.925781 208.144531 112.605469 206.738281 115.195312 C 206.339844 115.929688 205.929688 116.6875 205.609375 117.5 C 204.714844 119.777344 204.84375 121.585938 205.988281 122.882812 C 208.0625 125.234375 213.570312 126.105469 221.914062 125.402344 C 228.308594 124.863281 235.273438 123.492188 239.832031 122.34375 C 239.382812 121.375 238.105469 118.65625 236.160156 115.121094 C 230.800781 108.65625 225.460938 103.335938 220.449219 99.472656 " fill-opacity="1" fill-rule="nonzero"/><path fill="#03072b" d="M 265.214844 108.621094 C 268.398438 106.253906 273.097656 103.054688 277.421875 101.285156 L 277.695312 101.949219 C 272.226562 104.1875 262.601562 110.617188 254.789062 118.570312 L 254.273438 118.066406 C 257.28125 115.003906 261.269531 111.5625 265.214844 108.621094 Z M 278.5625 117.167969 L 278.5625 117.890625 C 278.515625 117.890625 278.441406 117.882812 278.257812 117.867188 C 274.566406 117.589844 264.863281 117.40625 254.566406 121.667969 L 254.292969 121.003906 C 264.734375 116.683594 274.570312 116.871094 278.3125 117.152344 C 278.445312 117.160156 278.53125 117.167969 278.5625 117.167969 Z M 266.84375 125.402344 C 275.1875 126.105469 280.695312 125.234375 282.769531 122.882812 C 283.914062 121.585938 284.042969 119.777344 283.148438 117.5 C 282.828125 116.6875 282.414062 115.929688 282.015625 115.195312 C 280.609375 112.605469 279.15625 109.925781 281.1875 104.3125 C 281.664062 102.996094 282.398438 101.730469 283.109375 100.507812 C 284.554688 98.019531 285.804688 95.871094 284.613281 93.992188 C 284.191406 93.320312 283.347656 92.949219 282.179688 92.910156 C 280.632812 92.859375 276.191406 93.398438 268.308594 99.472656 C 263.296875 103.335938 257.957031 108.660156 252.597656 115.121094 C 250.652344 118.65625 249.375 121.375 248.925781 122.34375 C 253.480469 123.488281 260.449219 124.863281 266.84375 125.402344 " fill-opacity="1" fill-rule="nonzero"/><g clip-path="url(#e6f8bd7260)"><path fill="#03072b" d="M 247.738281 144.363281 C 247.6875 146.140625 247.597656 147.828125 247.484375 149.40625 C 248.480469 151.882812 255.792969 169.589844 262.074219 171.761719 C 264.335938 172.542969 267.707031 171.539062 271.566406 168.941406 C 275.28125 166.441406 279.117188 162.644531 282.097656 158.527344 C 284.910156 154.644531 286.8125 150.710938 287.605469 147.164062 C 288.503906 143.132812 287.957031 139.769531 285.980469 137.167969 C 283.894531 134.421875 278.277344 132.078125 269.738281 130.394531 C 268.394531 130.128906 267.074219 129.898438 265.8125 129.699219 C 269.292969 130.957031 272.582031 132.324219 275.238281 133.945312 C 280.09375 136.910156 282.265625 140.410156 281.882812 144.652344 C 281.566406 148.175781 275.199219 163.632812 265.164062 164.703125 C 264.96875 164.722656 264.777344 164.734375 264.589844 164.734375 C 261.5625 164.734375 258.507812 162.210938 255.707031 157.390625 C 253.351562 153.34375 251.570312 148.292969 250.847656 145.082031 C 249.933594 141.027344 249.195312 135.160156 249.875 130.867188 C 250.367188 127.722656 251.78125 127.761719 254.117188 127.828125 C 254.503906 127.839844 254.902344 127.851562 255.34375 127.851562 C 255.828125 127.851562 257.09375 127.921875 258.867188 128.089844 C 256.347656 127.253906 253.761719 126.394531 251.351562 125.480469 L 248.316406 124.335938 L 251.527344 124.789062 C 254.703125 125.238281 257.605469 125.707031 260.410156 126.160156 C 267.175781 127.257812 273.019531 128.203125 278.976562 128.203125 C 284.992188 128.203125 288.671875 126.636719 289.910156 123.550781 C 291.152344 120.453125 290.203125 117.335938 289.28125 114.324219 C 288.929688 113.175781 288.566406 111.988281 288.328125 110.816406 C 287.316406 105.820312 288.121094 102.3125 291.105469 98.695312 C 293.792969 95.441406 294.867188 92.632812 294.296875 90.351562 C 293.6875 87.914062 291.328125 86.832031 290.859375 86.636719 C 285.839844 84.566406 280.519531 85.148438 275.042969 88.371094 C 270.617188 90.972656 266.085938 95.285156 261.5625 101.1875 C 258.839844 104.742188 256.449219 108.464844 254.492188 111.785156 C 259.058594 106.566406 263.582031 102.207031 267.867188 98.902344 C 273.550781 94.527344 278.773438 92.078125 282.203125 92.191406 C 283.621094 92.238281 284.664062 92.730469 285.222656 93.609375 C 286.644531 95.855469 285.226562 98.292969 283.730469 100.871094 C 283.039062 102.066406 282.320312 103.300781 281.863281 104.558594 C 279.941406 109.867188 281.257812 112.289062 282.648438 114.855469 C 283.058594 115.605469 283.480469 116.382812 283.816406 117.238281 C 284.816406 119.78125 284.644531 121.84375 283.308594 123.359375 C 281.046875 125.921875 275.484375 126.851562 266.785156 126.117188 C 260.144531 125.558594 252.898438 124.105469 248.332031 122.9375 L 247.921875 122.832031 L 248.09375 122.441406 C 248.113281 122.398438 248.867188 120.699219 250.226562 118.046875 C 248.875 119.757812 247.523438 121.542969 246.179688 123.386719 C 247.398438 127.808594 247.992188 135.816406 247.738281 144.363281 " fill-opacity="1" fill-rule="nonzero"/></g><path fill="#03072b" d="M 244.457031 123.460938 C 245.328125 123.460938 246.039062 122.566406 246.039062 121.472656 C 246.039062 120.375 245.328125 119.480469 244.457031 119.480469 C 243.585938 119.480469 242.875 120.375 242.875 121.472656 C 242.875 122.566406 243.585938 123.460938 244.457031 123.460938 " fill-opacity="1" fill-rule="nonzero"/><path fill="#03072b" d="M 240.664062 122.441406 L 240.835938 122.832031 L 240.425781 122.9375 C 235.855469 124.105469 228.609375 125.558594 221.972656 126.117188 C 213.273438 126.851562 207.710938 125.921875 205.449219 123.359375 C 204.109375 121.84375 203.941406 119.78125 204.941406 117.238281 C 205.277344 116.382812 205.699219 115.605469 206.109375 114.855469 C 207.5 112.289062 208.816406 109.867188 206.894531 104.558594 C 206.4375 103.300781 205.71875 102.066406 205.023438 100.871094 C 203.527344 98.292969 202.113281 95.855469 203.535156 93.609375 C 204.09375 92.730469 205.136719 92.238281 206.554688 92.191406 C 209.980469 92.082031 215.207031 94.527344 220.886719 98.902344 C 225.175781 102.207031 229.699219 106.566406 234.265625 111.785156 C 232.304688 108.457031 229.914062 104.738281 227.1875 101.175781 C 222.667969 95.277344 218.132812 90.964844 213.710938 88.367188 C 208.234375 85.148438 202.914062 84.566406 197.898438 86.636719 C 197.429688 86.832031 195.066406 87.914062 194.460938 90.351562 C 193.890625 92.632812 194.964844 95.441406 197.652344 98.695312 C 200.636719 102.3125 201.4375 105.820312 200.429688 110.816406 C 200.1875 111.988281 199.824219 113.175781 199.476562 114.324219 C 197.605469 120.453125 198.234375 122.027344 198.847656 123.550781 C 200.085938 126.636719 203.761719 128.203125 209.78125 128.203125 C 215.738281 128.203125 221.582031 127.257812 228.347656 126.160156 C 231.152344 125.707031 234.054688 125.238281 237.230469 124.789062 L 240.441406 124.335938 L 237.40625 125.480469 C 234.996094 126.394531 232.40625 127.253906 229.890625 128.089844 C 231.660156 127.921875 232.929688 127.851562 233.414062 127.851562 C 233.851562 127.851562 234.253906 127.839844 234.640625 127.828125 C 236.976562 127.761719 238.390625 127.722656 238.882812 130.867188 C 239.5625 135.160156 238.824219 141.027344 237.910156 145.082031 C 237.1875 148.292969 235.402344 153.34375 233.050781 157.390625 C 230.070312 162.515625 226.800781 165.042969 223.59375 164.703125 C 213.558594 163.632812 207.191406 148.175781 206.875 144.652344 C 206.488281 140.410156 208.664062 136.910156 213.515625 133.945312 C 216.171875 132.324219 219.464844 130.957031 222.945312 129.699219 C 221.679688 129.898438 220.359375 130.128906 219.019531 130.394531 C 210.480469 132.078125 204.863281 134.421875 202.777344 137.167969 C 200.738281 139.851562 200.226562 143.351562 201.253906 147.574219 C 202.15625 151.285156 204.222656 155.359375 207.226562 159.355469 C 210.222656 163.34375 213.988281 166.964844 217.554688 169.289062 C 221.277344 171.71875 224.515625 172.597656 226.671875 171.765625 C 231.699219 169.820312 239.96875 153.359375 241.261719 149.21875 C 241.152344 147.695312 241.070312 146.070312 241.019531 144.363281 C 240.765625 135.816406 241.359375 127.808594 242.574219 123.386719 C 241.230469 121.542969 239.882812 119.757812 238.527344 118.046875 C 239.890625 120.699219 240.648438 122.398438 240.664062 122.441406 " fill-opacity="1" fill-rule="nonzero"/><path fill="#03072b" d="M 242.699219 118.007812 C 242.003906 112.878906 240.527344 105.152344 238.464844 98.847656 C 236.664062 93.359375 233.753906 86.917969 230.054688 87.371094 L 229.96875 86.660156 C 233.320312 86.246094 236.410156 90.269531 239.144531 98.625 C 241.222656 104.976562 242.710938 112.753906 243.410156 117.910156 L 242.699219 118.007812 " fill-opacity="1" fill-rule="nonzero"/><path fill="#03072b" d="M 245.816406 118.007812 L 245.105469 117.910156 C 245.808594 112.753906 247.292969 104.976562 249.371094 98.625 C 252.105469 90.269531 255.191406 86.246094 258.550781 86.660156 L 258.460938 87.371094 C 254.761719 86.914062 251.851562 93.359375 250.054688 98.847656 C 247.992188 105.152344 246.511719 112.878906 245.816406 118.007812 " fill-opacity="1" fill-rule="nonzero"/><g clip-path="url(#31085afcef)"><g clip-path="url(#edecdc3ba5)"><g clip-path="url(#4f56d78dd3)"><g clip-path="url(#1eecfa199d)"><path stroke-linecap="butt" transform="matrix(0.482165, 0.574891, -0.574891, 0.482165, 203.350861, -34.767786)" fill="none" stroke-linejoin="miter" d="M 200.415649 -0.000234843 C 89.727312 0.00162544 -0.00102925 89.729627 -0.00315785 200.414619 C 0.00204793 311.098967 89.73005 400.827308 200.415041 400.829436 C 311.100032 400.831565 400.82773 311.096229 400.826513 200.415226 C 400.828642 89.730235 311.10064 0.00189375 200.415649 -0.000234843 " stroke="#000000" stroke-width="2" stroke-opacity="1" stroke-miterlimit="4"/></g></g></g></g></svg>